<svg xmlns="http://www.w3.org/2000/svg" width="16.586" height="22.164" viewBox="0 0 16.586 22.164">
  <g id="padlock" transform="translate(-60.75)">
    <g id="Group_1166" data-name="Group 1166" transform="translate(60.75)">
      <path id="Path_235" data-name="Path 235" d="M76.138,9.659h-.326V6.771a6.771,6.771,0,1,0-13.543,0c0,.344-.137,4.086.627,4.086s.613-3.741.613-4.086a5.532,5.532,0,1,1,11.064,0V9.659H61.948a1.2,1.2,0,0,0-1.2,1.2v7.717a3.6,3.6,0,0,0,3.59,3.59h9.406a3.6,3.6,0,0,0,3.59-3.59V10.857A1.2,1.2,0,0,0,76.138,9.659ZM76.1,18.574a2.352,2.352,0,0,1-2.35,2.35h-9.4a2.352,2.352,0,0,1-2.35-2.35V10.9H76.1v7.676Z" transform="translate(-60.75)" fill="#c9c9c9"/>
      <path id="Path_236" data-name="Path 236" d="M193.268,302.737a2.318,2.318,0,1,0-2.318-2.318A2.321,2.321,0,0,0,193.268,302.737Zm0-3.4a1.081,1.081,0,1,1-1.079,1.083A1.08,1.08,0,0,1,193.268,299.335Z" transform="translate(-184.973 -284.415)" fill="#c9c9c9"/>
    </g>
  </g>
</svg>
