<svg xmlns="http://www.w3.org/2000/svg" enable-background="new 0 0 100 100" viewBox="0 0 100 100"><path d="M91.5 96.6H73v-3.8c0-.6-.4-1-1-1s-1 .4-1 1v3.7H13V83.9h2.7v4.8c0 .6.4 1 1 1s1-.4 1-1v-4.8H23v2.4c0 .6.4 1 1 1s1-.4 1-1v-2.4h5.2v4.8c0 .6.4 1 1 1s1-.4 1-1v-4.8h5.2v2.4c0 .6.4 1 1 1s1-.4 1-1v-2.4h5.2v4.8c0 .6.4 1 1 1s1-.4 1-1v-4.8h5.2v2.4c0 .6.4 1 1 1s1-.4 1-1v-2.4h5.2v4.8c0 .6.4 1 1 1s1-.4 1-1v-4.8h5.2v2.4c0 .6.4 1 1 1s1-.4 1-1v-2.4H71v4.3c0 .6.4 1 1 1s1-.4 1-1v-5.3c0-.6-.4-1-1-1H12c-.6 0-1 .4-1 1v13.7H7.8c-.6 0-1 .4-1 1s.4 1 1 1h83.6c.6 0 1-.4 1-1S92 96.6 91.5 96.6zM3.6 96.6H2c-.6 0-1 .4-1 1s.4 1 1 1h1.6c.6 0 1-.4 1-1S4.2 96.6 3.6 96.6zM98 96.6h-2.6c-.6 0-1 .4-1 1s.4 1 1 1H98c.6 0 1-.4 1-1S98.5 96.6 98 96.6zM76.7 23.1L76.7 23.1c2.4 0 4.3-1.9 4.2-4.3 0-2.3-1.9-4.2-4.3-4.2-2.3 0-4.2 1.9-4.2 4.3C72.5 21.2 74.4 23.1 76.7 23.1zM76.7 16.7L76.7 16.7c1.2 0 2.2 1 2.3 2.2 0 1.2-.9 2.2-2.2 2.3-1.2 0-2.2-.9-2.3-2.2C74.5 17.7 75.4 16.7 76.7 16.7z"/><path d="M94.8,67.6c0.4,0,0.8-0.3,0.9-0.7c0-0.1,2.2-7.4,2.1-6.9c0,0,0-0.1,0-0.1c0,0,0,0,0,0c0,0,0-0.1,0-0.1c0-0.1,0-0.1,0-0.2
			c0,0,0.3,0.9-12.8-41.2c-0.2-3.1-2.1-5.7-4.7-7l-0.1-6.3c0-2.2-1.9-3.8-3.8-3.7c-2.1,0-3.7,1.7-3.7,3.8l0.1,6.3
			c-2.6,1.4-4.3,4-4.4,7.1l-3.3,11.9H30.4c-0.6,0-1,0.4-1,1c0,0.6,0.4,1,1,1h34.1l-1.1,3.9H44.8c-0.6,0-1,0.4-1,1s0.4,1,1,1h4.8v5.4
			c0,0.6,0.4,1,1,1c0.6,0,1-0.4,1-1v-5.4h11.3L59,52.7h-7.4v-4.3c0-0.6-0.4-1-1-1c-0.6,0-1,0.4-1,1v11.3c0,0.6,0.4,1,1,1
			c0.6,0,1-0.4,1-1v-4.9h6.8L57,60.1c0,0.2,0,0.3,0,0.5c0,0,0,0.1,0,0.1l2.3,6.9c0.1,0.4,0.5,0.7,0.9,0.7c0,0,0,0,0,0
			c0.4,0,0.8-0.3,0.9-0.6c0-0.1,2.5-6.1,2.3-5.7c0,0,0,0,0-0.1c0.3-0.9,2.4-7.5,2.3-7.1h4v14.2H51.6c0-0.1,0-0.1,0-0.2v-5.4
			c0-0.6-0.4-1-1-1c-0.6,0-1,0.4-1,1v5.4c0,0.1,0,0.2,0,0.2H31.4V54.7H44c0.6,0,1-0.4,1-1s-0.4-1-1-1H31.4V38.4H37c0.6,0,1-0.4,1-1
			s-0.4-1-1-1h-6.6c-0.6,0-1,0.4-1,1v32.5c0,0.6,0.4,1,1,1h40.4c0.6,0,1-0.4,1-1V37.4c0-0.2-0.1-0.4-0.2-0.6l1.4-4.3h7.9l0.3,0.8
			v41.5H11.2c-7.2,0-9.3-10-2.4-12.9c4.3-1.6,8.6,1.4,9,5.4V69c0,0.5,0.4,1,0.9,1c0.5,0,1-0.4,1.1-0.9c0.1-0.6,0.1,1.7,0-36.6h4.8
			c0.5,0,1-0.4,1-1c0-0.6-0.5-1-1-1h-4.8V28c0-4.7-3.9-8.6-8.6-8.6c-4.7,0-8.6,3.8-8.6,8.6c0,9.5,0,34.3,0,39.2v1.9c0,0,0,0.1,0,0.1
			c0.5,4.2,4.1,7.6,8.6,7.6h70.9c0.5,0,1-0.5,1-1v-37l8.1,22.5v0c0,0,0,0,0,0.1l2.5,5.6C94,67.4,94.4,67.6,94.8,67.6L94.8,67.6z
			 M4.6,28c0-3.7,3-6.6,6.6-6.6c3.6,0,6.6,3,6.6,6.6c0,12.7,0,21.8,0,34.6c-3.4-4-9.5-4-12.9-0.4c-0.1,0.1-0.2,0.2-0.3,0.3
			C4.6,52.2,4.6,43.8,4.6,28z M95.6,59l-2.2,0.6l-0.5,0.1L80.7,26.2c0,0,0,0,0,0c1.6-0.9,2.8-2.2,3.5-3.7c0,0,0,0,0,0l2.5,8.1
			L95.6,59z M74.7,5.2c0-1,0.8-1.8,1.8-1.8h0c1,0,1.7,0.8,1.7,1.7l0.1,5.6c-0.5-0.1-1.1-0.2-1.6-0.2h-0.1c-0.6,0-1.2,0.1-1.8,0.2
			L74.7,5.2z M76.6,12.6h0.1c3.5,0,6.3,2.8,6.3,6.2c0.1,3.5-2.7,6.4-6.2,6.5c-3.5,0-6.4-2.7-6.5-6.2C70.3,15.5,73.1,12.6,76.6,12.6z
			 M61.9,60.3c-0.2,0-2.1-0.5-2.8-0.7l10.2-36.9c0.8,1.6,2.1,2.8,3.6,3.6L61.9,60.3z M60.3,64.3l-0.9-2.6l1.8,0.4L60.3,64.3z
			 M69.8,52.7h-3.3l3.3-10.3V52.7z M73.7,30.5l1.1-3.5c0,0,0,0,0,0c0.6,0.1,1.3,0.2,1.9,0.2h0.1c0.7,0,1.4-0.1,2-0.3c0,0,0,0,0,0
			l1.3,3.6H73.7z M93.6,61.7c0.1,0,1.8-0.5,1.7-0.5l-0.8,2.6L93.6,61.7z"/></svg>