<svg xmlns="http://www.w3.org/2000/svg" width="94.357" height="71.271" viewBox="0 0 94.357 71.271">
<g id="camera" transform="translate(0 -0.5)">
    <path id="Path_270" data-name="Path 270" d="M1.382,235.656a1.383,1.383,0,0,0,1.382-1.382v-5.591a1.382,1.382,0,0,0-2.764,0v5.591A1.383,1.383,0,0,0,1.382,235.656Zm0,0" transform="translate(0 -185.003)"/>
    <path id="Path_271" data-name="Path 271" d="M89.037,9.524H83.312V8.872a3.355,3.355,0,0,0-3.351-3.351h-.587V3.851A3.355,3.355,0,0,0,76.023.5h-6.6a3.355,3.355,0,0,0-3.351,3.351V5.521h-.587a3.355,3.355,0,0,0-3.351,3.351v.652H42.457V8.084a3.355,3.355,0,0,0-3.351-3.351H36.441A3.355,3.355,0,0,0,33.09,8.084v1.44H29.856V6.115A3.355,3.355,0,0,0,26.5,2.764H12.026A3.356,3.356,0,0,0,8.675,6.115V9.524H5.32A5.326,5.326,0,0,0,0,14.844V37.66a1.382,1.382,0,1,0,2.764,0V24.533h7.565a5.252,5.252,0,0,0,10.133,0H31.439a26.21,26.21,0,0,0-5.7,36.116H2.764v-5.36a1.382,1.382,0,0,0-2.764,0v8.646a5.326,5.326,0,0,0,5.32,5.32H35.971a26.215,26.215,0,0,0,22.417,0l.032,0H89.037a5.326,5.326,0,0,0,5.32-5.32V14.844A5.326,5.326,0,0,0,89.037,9.524Zm-20.2-5.673a.588.588,0,0,1,.587-.587h6.6a.587.587,0,0,1,.587.587V5.521H68.834V3.851ZM64.9,8.872a.588.588,0,0,1,.587-.587H79.961a.588.588,0,0,1,.587.587v.652H64.9V8.872ZM35.854,8.084a.588.588,0,0,1,.587-.587h2.665a.587.587,0,0,1,.587.587v1.44H35.854ZM11.44,6.115a.588.588,0,0,1,.587-.587H26.506a.588.588,0,0,1,.587.587V9.524H11.44ZM15.4,25.639a2.488,2.488,0,1,1,2.488-2.488A2.491,2.491,0,0,1,15.4,25.639Zm5.067-3.87a5.252,5.252,0,0,0-10.133,0H2.764V14.844A2.559,2.559,0,0,1,5.32,12.288H89.037a2.559,2.559,0,0,1,2.556,2.556v6.925H87.479V16.747A1.383,1.383,0,0,0,86.1,15.365H73.234a1.383,1.383,0,0,0-1.382,1.382v5.022H58.328a26.2,26.2,0,0,0-22.3,0Zm54.154,0v-3.64h10.1v3.64ZM5.32,66.491a2.559,2.559,0,0,1-2.556-2.556v-.521H27.992a26.474,26.474,0,0,0,3.414,3.077ZM23.7,45.525A23.482,23.482,0,0,1,64.762,29.961a1.382,1.382,0,1,0,2.069-1.833,26.272,26.272,0,0,0-3.9-3.6H91.593V60.65H68.618a26.121,26.121,0,0,0,4.332-10.143h3.616a3.7,3.7,0,0,0,3.7-3.7V43.366a3.7,3.7,0,0,0-3.7-3.7h-3.8a26.129,26.129,0,0,0-2.33-6.326,1.382,1.382,0,0,0-2.448,1.285A23.484,23.484,0,1,1,23.7,45.525Zm49.545-3.093h3.324a.935.935,0,0,1,.934.934v3.444a.935.935,0,0,1-.934.934H73.331c.062-.731.1-1.471.1-2.219A26.1,26.1,0,0,0,73.241,42.431Zm15.8,24.059H62.951a26.474,26.474,0,0,0,3.414-3.077H91.593v.521A2.559,2.559,0,0,1,89.037,66.491Zm0,0"/>
    <path id="Path_272" data-name="Path 272" d="M173.687,143.9a18.6,18.6,0,1,0,18.6,18.6A18.618,18.618,0,0,0,173.687,143.9Zm0,34.43A15.833,15.833,0,1,1,189.519,162.5,15.85,15.85,0,0,1,173.687,178.329Zm0,0" transform="translate(-126.508 -116.971)"/>
    <path id="Path_273" data-name="Path 273" d="M198.512,174.332A12.989,12.989,0,1,0,211.5,187.321,13,13,0,0,0,198.512,174.332Zm0,23.213a10.224,10.224,0,1,1,10.225-10.224A10.235,10.235,0,0,1,198.512,197.545Zm0,0" transform="translate(-151.333 -141.796)"/>
</g>
</svg>
