<svg xmlns="http://www.w3.org/2000/svg" width="28.412" height="41.001" viewBox="0 0 28.412 41.001">
  <g id="certificate" transform="translate(-150.147 -103.118)">
    <g id="Group_1155" data-name="Group 1155" transform="translate(150.148 103.118)">
      <g id="Group_1154" data-name="Group 1154" transform="translate(0)">
        <path fill="#757575" id="Path_208" data-name="Path 208" d="M177.919,116.65a3.9,3.9,0,0,0-1.487-5.561,1.189,1.189,0,0,1-.657-1.139,3.9,3.9,0,0,0-4.074-4.074,1.211,1.211,0,0,1-1.139-.657A3.9,3.9,0,0,0,165,103.732a1.224,1.224,0,0,1-1.313,0,3.9,3.9,0,0,0-5.561,1.487,1.225,1.225,0,0,1-1.139.657,3.9,3.9,0,0,0-4.074,4.074,1.189,1.189,0,0,1-.657,1.139,3.883,3.883,0,0,0-1.97,2.452,3.416,3.416,0,0,0-.094,1.514c.134.683.777,1.581.683,2.265a2.86,2.86,0,0,1-.107.657,3.909,3.909,0,0,0-.482,3.109,2.313,2.313,0,0,0,.147.429,7.3,7.3,0,0,0,2.412,2.68c.121.107.094.322.08.482A3.9,3.9,0,0,0,157,128.75a1.225,1.225,0,0,1,1.139.657,3.457,3.457,0,0,0,.6.844v12.489a1.378,1.378,0,0,0,.536,1.112,1.34,1.34,0,0,0,1.742-.121l3.337-3.323,3.337,3.323a1.349,1.349,0,0,0,.951.389,1.4,1.4,0,0,0,.777-.241,1.379,1.379,0,0,0,.563-1.139V130.264a4.812,4.812,0,0,0,.6-.844,1.225,1.225,0,0,1,1.139-.657,3.9,3.9,0,0,0,4.074-4.074,1.189,1.189,0,0,1,.657-1.139,3.9,3.9,0,0,0,1.487-5.561A1.218,1.218,0,0,1,177.919,116.65ZM167.28,139.536l-2-2a1.334,1.334,0,0,0-1.889,0l-2.01,2V131.5a3.868,3.868,0,0,0,2.291-.616,1.224,1.224,0,0,1,1.313,0,3.93,3.93,0,0,0,2.1.616h.188v8.04Zm8.536-19.148a1.214,1.214,0,0,1-.616.764,3.909,3.909,0,0,0-2.1,3.645,1.211,1.211,0,0,1-.362.925,1.242,1.242,0,0,1-.925.362,3.91,3.91,0,0,0-3.645,2.1,1.214,1.214,0,0,1-.764.616,1.2,1.2,0,0,1-.978-.147,3.9,3.9,0,0,0-4.208,0,1.2,1.2,0,0,1-.978.147,1.214,1.214,0,0,1-.764-.616,3.91,3.91,0,0,0-3.645-2.1,1.211,1.211,0,0,1-.925-.362,1.242,1.242,0,0,1-.362-.925,3.906,3.906,0,0,0-1.059-2.854l-.067-.067a4.028,4.028,0,0,0-.978-.724,1.214,1.214,0,0,1-.616-.764,1.2,1.2,0,0,1,.147-.978,3.916,3.916,0,0,0,0-4.208,1.2,1.2,0,0,1-.147-.978,1.214,1.214,0,0,1,.616-.764,3.91,3.91,0,0,0,2.1-3.645,1.211,1.211,0,0,1,.362-.925,1.242,1.242,0,0,1,.925-.362,3.91,3.91,0,0,0,3.645-2.1,1.214,1.214,0,0,1,.764-.616,1.2,1.2,0,0,1,.978.147,3.916,3.916,0,0,0,4.208,0,1.2,1.2,0,0,1,.978-.147,1.214,1.214,0,0,1,.764.616,3.91,3.91,0,0,0,3.645,2.1,1.211,1.211,0,0,1,.925.362,1.242,1.242,0,0,1,.362.925,3.909,3.909,0,0,0,2.1,3.645,1.214,1.214,0,0,1,.616.764,1.2,1.2,0,0,1-.147.978,3.916,3.916,0,0,0,0,4.208A1.2,1.2,0,0,1,175.815,120.388Z" transform="translate(-150.148 -103.118)"/>
      </g>
    </g>
    <g id="Group_1157" data-name="Group 1157" transform="translate(159.322 113.269)">
      <g id="Group_1156" data-name="Group 1156" transform="translate(0 0)">
        <path fill="#757575" id="Path_209" data-name="Path 209" d="M236.463,179.267a1.334,1.334,0,0,0-1.889,0l-4.449,4.449-1.769-1.769a1.336,1.336,0,1,0-1.889,1.889l2.72,2.72a1.316,1.316,0,0,0,.951.389,1.373,1.373,0,0,0,.951-.389l5.4-5.4A1.36,1.36,0,0,0,236.463,179.267Z" transform="translate(-226.075 -178.875)"/>
      </g>
    </g>
  </g>
</svg>
