<svg xmlns="http://www.w3.org/2000/svg" width="27.544" height="27.544" viewBox="0 0 27.544 27.544">
  <g id="add" transform="translate(-0.001 13.771) rotate(-45)">
    <g id="Group_1230" data-name="Group 1230" transform="translate(0 0.001)">
      <path id="Path_274" data-name="Path 274" d="M18.42,8.38H11.1V1.058A1.314,1.314,0,0,0,9.738,0,1.314,1.314,0,0,0,8.379,1.058V8.38H1.057A1.313,1.313,0,0,0,0,9.739,1.314,1.314,0,0,0,1.057,11.1H8.379v7.323a1.314,1.314,0,0,0,1.359,1.057A1.314,1.314,0,0,0,11.1,18.421V11.1H18.42a1.314,1.314,0,0,0,1.057-1.359A1.314,1.314,0,0,0,18.42,8.38Z" transform="translate(0 -0.001)" fill="#727272"/>
    </g>
  </g>
</svg>
