<svg xmlns="http://www.w3.org/2000/svg" width="21.406" height="13.379" viewBox="0 0 21.406 13.379">
  <g id="google-plus" transform="translate(0 -96)">
    <g id="Group_21" data-name="Group 21" transform="translate(14.717 98.676)">
      <g id="Group_20" data-name="Group 20">
        <path id="Path_100" data-name="Path 100" d="M356.014,162.676V160h-1.338v2.676H352v1.338h2.676v2.676h1.338v-2.676h2.676v-1.338Z" transform="translate(-352 -160)" fill="#c9c9c9"/>
      </g>
    </g>
    <g id="Group_23" data-name="Group 23" transform="translate(0 96)">
      <g id="Group_22" data-name="Group 22">
        <path id="Path_101" data-name="Path 101" d="M6.689,101.352v2.676h3.785a4.014,4.014,0,1,1-3.785-5.352,3.954,3.954,0,0,1,2.6.969l1.758-2.018A6.629,6.629,0,0,0,6.689,96a6.689,6.689,0,1,0,6.689,6.689v-1.338Z" transform="translate(0 -96)" fill="#c9c9c9"/>
      </g>
    </g>
  </g>
</svg>
