<svg id="business-and-finance" xmlns="http://www.w3.org/2000/svg" width="82.286" height="76.962" viewBox="0 0 82.286 76.962">
  <path id="Path_52" data-name="Path 52" d="M78.419,0H51.793a3.872,3.872,0,0,0-3.868,3.868V15.975H3.868A3.873,3.873,0,0,0,0,19.843V57.622a1.205,1.205,0,1,0,2.411,0V19.843a1.459,1.459,0,0,1,1.457-1.458H47.925v6.782a3.873,3.873,0,0,0,3.868,3.868h7.488l4.972,4.972a1.2,1.2,0,0,0,1.7,0l4.972-4.972h.958V67.768a1.459,1.459,0,0,1-1.457,1.458H22.506a1.206,1.206,0,0,0-.853.353l-4.472,4.473-4.473-4.473a1.2,1.2,0,0,0-.852-.353H3.868a1.459,1.459,0,0,1-1.457-1.458V62.443a1.205,1.205,0,0,0-2.411,0v5.325a3.873,3.873,0,0,0,3.868,3.868h7.488l4.972,4.972a1.2,1.2,0,0,0,1.7,0L23,71.637H70.431A3.873,3.873,0,0,0,74.3,67.768V29.036h4.12a3.873,3.873,0,0,0,3.868-3.868V3.868A3.872,3.872,0,0,0,78.419,0Zm1.457,25.168a1.459,1.459,0,0,1-1.457,1.458H70.431a1.2,1.2,0,0,0-.853.353l-4.472,4.473-4.473-4.473a1.2,1.2,0,0,0-.852-.353H51.794a1.46,1.46,0,0,1-1.458-1.458V3.868a1.459,1.459,0,0,1,1.458-1.457H78.419a1.459,1.459,0,0,1,1.457,1.457Zm0,0" fill="#7c7c7c"/>
  <path id="Path_53" data-name="Path 53" d="M374.474,33.133A5.871,5.871,0,0,0,368.609,39a1.205,1.205,0,1,0,2.411,0,3.454,3.454,0,1,1,3.454,3.454,1.205,1.205,0,0,0-1.205,1.205V46.32a1.205,1.205,0,1,0,2.411,0V44.738a5.865,5.865,0,0,0-1.205-11.605Zm0,0" transform="translate(-309.368 -27.808)" fill="#7c7c7c"/>
  <path id="Path_54" data-name="Path 54" d="M398.807,128.391A1.205,1.205,0,0,0,397.6,129.6v.665a1.205,1.205,0,0,0,2.411,0V129.6A1.206,1.206,0,0,0,398.807,128.391Zm0,0" transform="translate(-333.701 -107.756)" fill="#7c7c7c"/>
  <path id="Path_55" data-name="Path 55" d="M53.476,206.536H64.309a3.781,3.781,0,0,0,3.777-3.777v-.182a3.781,3.781,0,0,0-3.777-3.777H53.476a3.781,3.781,0,0,0-3.777,3.777v.182A3.781,3.781,0,0,0,53.476,206.536Zm-1.366-3.959a1.368,1.368,0,0,1,1.366-1.366H64.309a1.368,1.368,0,0,1,1.366,1.366v.182a1.368,1.368,0,0,1-1.366,1.366H53.476a1.368,1.368,0,0,1-1.366-1.366Zm0,0" transform="translate(-41.712 -166.85)" fill="#7c7c7c"/>
  <path id="Path_56" data-name="Path 56" d="M191.518,206.536a3.781,3.781,0,0,0,3.777-3.777v-.182a3.781,3.781,0,0,0-3.777-3.777h-5.507a3.781,3.781,0,0,0-3.777,3.777v.182a3.781,3.781,0,0,0,3.777,3.777Zm-6.873-3.777v-.182a1.368,1.368,0,0,1,1.366-1.366h5.507a1.368,1.368,0,0,1,1.366,1.366v.182a1.368,1.368,0,0,1-1.366,1.366h-5.507A1.368,1.368,0,0,1,184.645,202.76Zm0,0" transform="translate(-152.946 -166.85)" fill="#7c7c7c"/>
  <path id="Path_57" data-name="Path 57" d="M50.9,267.477h55.913a1.205,1.205,0,1,0,0-2.411H50.9a1.205,1.205,0,0,0,0,2.411Zm0,0" transform="translate(-41.712 -222.466)" fill="#7c7c7c"/>
  <path id="Path_58" data-name="Path 58" d="M50.9,300.61h55.913a1.205,1.205,0,0,0,0-2.411H50.9a1.205,1.205,0,0,0,0,2.411Zm0,0" transform="translate(-41.712 -250.274)" fill="#7c7c7c"/>
  <path id="Path_59" data-name="Path 59" d="M50.9,333.743h21.3a1.205,1.205,0,1,0,0-2.411H50.9a1.205,1.205,0,0,0,0,2.411Zm0,0" transform="translate(-41.712 -278.082)" fill="#7c7c7c"/>
  <path id="Path_60" data-name="Path 60" d="M381.031,368.336a3.868,3.868,0,1,0,3.868-3.867A3.872,3.872,0,0,0,381.031,368.336Zm5.326,0a1.457,1.457,0,1,1-1.457-1.456A1.459,1.459,0,0,1,386.357,368.336Zm0,0" transform="translate(-319.794 -305.893)" fill="#7c7c7c"/>
</svg>
