<svg xmlns="http://www.w3.org/2000/svg" width="16.348" height="15.621" viewBox="0 0 16.348 15.621">
  <g id="linkedin-logo_1_" data-name="linkedin-logo (1)" transform="translate(0 -9.557)">
    <path id="LinkedIn" d="M16.348,19.135v6.044h-3.5V19.54c0-1.417-.507-2.383-1.775-2.383a1.917,1.917,0,0,0-1.8,1.282,2.4,2.4,0,0,0-.116.854v5.886H5.65s.047-9.551,0-10.54h3.5v1.494l-.023.034h.023v-.034a3.48,3.48,0,0,1,3.158-1.742C14.619,14.391,16.348,15.9,16.348,19.135ZM1.983,9.558A1.826,1.826,0,1,0,1.937,13.2H1.96a1.827,1.827,0,1,0,.023-3.643ZM.208,25.179h3.5V14.639H.208Z" transform="translate(0 0)" fill="#c9c9c9"/>
  </g>
</svg>
