<svg id="policy" xmlns="http://www.w3.org/2000/svg" width="76.564" height="69.125" viewBox="0 0 76.564 69.125">
  <path id="Path_1" data-name="Path 1" d="M68.491,0H18.981a7.762,7.762,0,0,0-7.792,7.706L10.87,51.3H1.208A1.257,1.257,0,0,0,0,52.591v6A10.513,10.513,0,0,0,9.919,69.053v.072H51.611v-.081c.31.013.5.081.711.081h.03A10.48,10.48,0,0,0,62.77,58.59V20.459H75.357a1.27,1.27,0,0,0,1.208-1.3V8.146A8.132,8.132,0,0,0,68.491,0ZM10.462,66.645h-.008A8.035,8.035,0,0,1,2.48,58.59V53.781H41.847v4.788a10.494,10.494,0,0,0,3.063,7.447,4.453,4.453,0,0,1,.653.629Zm49.829-8.056a8.006,8.006,0,0,1-7.941,8.056h-.025a8.056,8.056,0,0,1-8-8.075V52.591a1.284,1.284,0,0,0-1.24-1.29H13.35l.319-43.587A5.282,5.282,0,0,1,18.981,2.48H62.637a8.461,8.461,0,0,0-2.346,5.7ZM74.085,8.168v9.811H62.77v-9.8a5.742,5.742,0,0,1,5.684-5.7h.035a5.652,5.652,0,0,1,5.6,5.679Zm0,0" fill="#606060"/>
  <path id="Path_2" data-name="Path 2" d="M166.849,75.79l6.393,4.371a1.221,1.221,0,0,0,1.386,0L181,75.792a9.63,9.63,0,0,0,3.849-7.346V59.6a1.212,1.212,0,0,0-.661-1.113L174.456,53.7a1.218,1.218,0,0,0-1.084,0l-9.715,4.774a1.21,1.21,0,0,0-.66,1.113v8.856A9.631,9.631,0,0,0,166.849,75.79Zm-1.372-15.427,8.447-4.168,8.447,4.179v8.071a7.145,7.145,0,0,1-2.769,5.3l-5.693,3.893-5.67-3.893a7.141,7.141,0,0,1-2.762-5.3Zm0,0" transform="translate(-137.734 -45.271)" fill="#606060"/>
  <path id="Path_3" data-name="Path 3" d="M204.4,123.177a1.238,1.238,0,0,0,.878.372h0a1.241,1.241,0,0,0,.877-.367l4.932-4.934a1.24,1.24,0,0,0-1.753-1.755l-4.052,4.051-1.62-1.635a1.241,1.241,0,1,0-1.762,1.747Zm0,0" transform="translate(-170.304 -98.131)" fill="#606060"/>
  <path id="Path_4" data-name="Path 4" d="M164,248H134.24a1.24,1.24,0,1,0,0,2.48H164a1.24,1.24,0,1,0,0-2.48Zm0,0" transform="translate(-112.386 -209.563)" fill="#606060"/>
  <path id="Path_5" data-name="Path 5" d="M164,285H134.24a1.24,1.24,0,1,0,0,2.48H164a1.24,1.24,0,1,0,0-2.48Zm0,0" transform="translate(-112.386 -240.828)" fill="#606060"/>
</svg>
