<svg xmlns="http://www.w3.org/2000/svg" width="18" height="14.621" viewBox="0 0 18 14.621">
  <g id="twitter-logo-silhouette_1_" data-name="twitter-logo-silhouette (1)" transform="translate(-0.001 -57.441)">
    <g id="Group_19" data-name="Group 19" transform="translate(0.001 57.441)">
      <path id="Path_98" data-name="Path 98" d="M18,59.171a7.374,7.374,0,0,1-2.12.582A3.708,3.708,0,0,0,17.5,57.711a7.444,7.444,0,0,1-2.346.9,3.7,3.7,0,0,0-6.292,3.367,10.483,10.483,0,0,1-7.61-3.858A3.7,3.7,0,0,0,2.4,63.045a3.693,3.693,0,0,1-1.673-.463v.046a3.7,3.7,0,0,0,2.962,3.621,3.74,3.74,0,0,1-.973.129,3.544,3.544,0,0,1-.7-.069,3.694,3.694,0,0,0,3.449,2.565A7.408,7.408,0,0,1,.882,70.451,7.846,7.846,0,0,1,0,70.4a10.438,10.438,0,0,0,5.66,1.661A10.433,10.433,0,0,0,16.166,61.557l-.012-.478A7.374,7.374,0,0,0,18,59.171Z" transform="translate(-0.001 -57.441)" fill="#c9c9c9"/>
    </g>
  </g>
</svg>
