<svg xmlns="http://www.w3.org/2000/svg" width="57.508" height="57.5" viewBox="0 0 57.508 57.5">
  <g id="play-button_2_" data-name="play-button (2)" transform="translate(0 -0.002)">
    <path id="Path_102" data-name="Path 102" d="M26.775,18.714l-11.941-8.68A1.44,1.44,0,0,0,12.547,11.2V28.55a1.435,1.435,0,0,0,.787,1.284,1.45,1.45,0,0,0,.654.155,1.431,1.431,0,0,0,.846-.279l11.941-8.673a1.428,1.428,0,0,0,0-2.323Z" transform="translate(11.464 8.914)" fill="#fff"/>
    <path id="Path_103" data-name="Path 103" d="M28.755,0A28.75,28.75,0,1,0,57.508,28.757,28.751,28.751,0,0,0,28.755,0Zm0,52.7A23.951,23.951,0,1,1,52.7,28.757,23.948,23.948,0,0,1,28.755,52.7Z" fill="#fff"/>
  </g>
</svg>
