<svg id="art-and-design" xmlns="http://www.w3.org/2000/svg" width="67.844" height="67.844" viewBox="0 0 67.844 67.844">
  <path id="Path_45" data-name="Path 45" d="M166.837,284.544h22.7a1.325,1.325,0,0,0,.937-2.262l-22.7-22.7a1.325,1.325,0,0,0-2.262.937v22.7A1.325,1.325,0,0,0,166.837,284.544Zm1.325-20.823,18.173,18.173H168.162Zm0,0" transform="translate(-143.58 -224.851)" fill="#7c7c7c"/>
  <path id="Path_46" data-name="Path 46" d="M5.035,94.375A5.041,5.041,0,0,0,0,99.41v39.914a1.327,1.327,0,0,0,.1.5l3.71,9.064a1.325,1.325,0,0,0,2.452,0l3.71-9.064a1.327,1.327,0,0,0,.1-.5V99.41A5.041,5.041,0,0,0,5.035,94.375ZM2.65,138V103.286H7.42V138ZM5.035,97.025A2.388,2.388,0,0,1,7.42,99.41v1.226H2.65V99.41A2.388,2.388,0,0,1,5.035,97.025Zm0,47.865L3.3,140.65H6.771Zm0,0" transform="translate(0 -81.87)" fill="#7c7c7c"/>
  <path id="Path_47" data-name="Path 47" d="M243.357,162.539H216.325a1.325,1.325,0,0,0,0,2.65h27.031a1.325,1.325,0,0,0,0-2.65Zm0,0" transform="translate(-186.511 -141.001)" fill="#7c7c7c"/>
  <path id="Path_48" data-name="Path 48" d="M358.066,211.547h-9.51a1.325,1.325,0,0,0,0,2.65h9.51a1.325,1.325,0,0,0,0-2.65Zm0,0" transform="translate(-301.22 -183.515)" fill="#7c7c7c"/>
  <path id="Path_49" data-name="Path 49" d="M420.325,260.551a1.325,1.325,0,1,0,.937.388A1.335,1.335,0,0,0,420.325,260.551Zm0,0" transform="translate(-363.479 -226.026)" fill="#7c7c7c"/>
  <path id="Path_50" data-name="Path 50" d="M158.063,56.713V3.975A3.98,3.98,0,0,0,154.088,0H113.01a3.98,3.98,0,0,0-3.975,3.975V16.942l-2.773-2.773a1.325,1.325,0,0,0-2.262.937V66.519a1.325,1.325,0,0,0,1.325,1.325h51.413a1.325,1.325,0,0,0,.937-2.262l-4.893-4.893h1.306A3.98,3.98,0,0,0,158.063,56.713Zm-8.151,8.48v-.211a1.325,1.325,0,0,0-2.65,0v.211H144.9V63.227a1.325,1.325,0,0,0-2.65,0v1.966H139.88v-.211a1.325,1.325,0,0,0-2.65,0v.211h-2.366V63.227a1.325,1.325,0,0,0-2.65,0v1.966h-2.366v-.211a1.325,1.325,0,1,0-2.65,0v.211h-2.365V63.227a1.325,1.325,0,0,0-2.65,0v1.966h-2.365v-.211a1.325,1.325,0,0,0-2.65,0v.211H114.8V63.227a1.325,1.325,0,0,0-2.65,0v1.966h-5.5v-5.5h2.019a1.325,1.325,0,0,0,0-2.65H106.65V54.677h.236a1.325,1.325,0,1,0,0-2.65h-.236V49.661h2.019a1.325,1.325,0,0,0,0-2.65H106.65V44.645h.236a1.325,1.325,0,1,0,0-2.65h-.236V39.63h2.019a1.325,1.325,0,0,0,0-2.65H106.65V34.613h.236a1.325,1.325,0,1,0,0-2.65h-.236V29.6h2.019a1.325,1.325,0,0,0,0-2.65H106.65V24.582h.236a1.325,1.325,0,0,0,0-2.65h-.236V18.3l46.889,46.889Zm-14.15-21.525h11.3a1.325,1.325,0,0,0,0-2.65H133.112l-3.843-3.844h12.5a1.325,1.325,0,0,0,0-2.65H126.618l-3.844-3.843h6.594a1.325,1.325,0,0,0,0-2.65h-9.244l-8.439-8.439V3.975A1.326,1.326,0,0,1,113.01,2.65h41.077a1.326,1.326,0,0,1,1.325,1.325V56.713a1.326,1.326,0,0,1-1.325,1.325h-3.956Zm0,0" transform="translate(-90.219)" fill="#7c7c7c"/>
  <path id="Path_51" data-name="Path 51" d="M243.357,64.926H216.325A1.325,1.325,0,0,0,215,66.251v6.493a1.325,1.325,0,0,0,1.325,1.325h27.031a1.325,1.325,0,0,0,1.325-1.325V66.251A1.325,1.325,0,0,0,243.357,64.926Zm-1.325,6.493H217.65V67.576h24.381Zm0,0" transform="translate(-186.511 -56.323)" fill="#7c7c7c"/>
</svg>
