<svg xmlns="http://www.w3.org/2000/svg" width="78.462" height="68" viewBox="0 0 78.462 68">
  <g id="responsive" transform="translate(0 -32)">
    <g id="Group_29" data-name="Group 29" transform="translate(0 32)">
      <g id="Group_28" data-name="Group 28" transform="translate(0 0)">
        <path id="Path_104" data-name="Path 104" d="M74.538,66H73.231V38.538A6.546,6.546,0,0,0,66.692,32H11.769a6.546,6.546,0,0,0-6.538,6.538V58.154H3.923A3.923,3.923,0,0,0,0,62.077v34A3.923,3.923,0,0,0,3.923,100H53.615a1.308,1.308,0,0,0,1.308-1.308,6.546,6.546,0,0,0-6.538-6.538H44.462V84.308H60.154V96.077A3.923,3.923,0,0,0,64.077,100H74.538a3.923,3.923,0,0,0,3.923-3.923V69.923A3.923,3.923,0,0,0,74.538,66ZM28.769,96.077a1.308,1.308,0,0,1-1.308,1.308H3.923a1.308,1.308,0,0,1-1.308-1.308V94.769H28.769Zm0-3.923H2.615V62.077a1.308,1.308,0,0,1,1.308-1.308H27.462a1.308,1.308,0,0,1,1.308,1.308Zm19.615,2.615a3.931,3.931,0,0,1,3.7,2.615H31.144a3.878,3.878,0,0,0,.241-1.308V94.769Zm-17-2.615V84.308H34v7.846Zm5.231,0V84.308h5.231v7.846ZM60.154,81.692H31.385V73.846H60.154Zm0-11.769v1.308H31.385V62.077a3.876,3.876,0,0,0-.447-1.78c.02-.018.046-.024.064-.043L43.948,47.308A1.308,1.308,0,0,0,42.1,45.459L29.152,58.4c-.031.033-.044.075-.072.109a3.874,3.874,0,0,0-1.619-.36H7.846V38.538a3.923,3.923,0,0,1,3.923-3.923H66.692a3.923,3.923,0,0,1,3.923,3.923V66H64.077A3.923,3.923,0,0,0,60.154,69.923ZM75.846,96.077a1.308,1.308,0,0,1-1.308,1.308H64.077a1.308,1.308,0,0,1-1.308-1.308V94.769H75.846Zm0-3.923H62.769V69.923a1.308,1.308,0,0,1,1.308-1.308H74.538a1.308,1.308,0,0,1,1.308,1.308Z" transform="translate(0 -32)" fill="#7c7c7c"/>
      </g>
    </g>
    <g id="Group_31" data-name="Group 31" transform="translate(7.83 73.688)">
      <g id="Group_30" data-name="Group 30" transform="translate(0 0)">
        <path id="Path_105" data-name="Path 105" d="M55.7,287.417a1.308,1.308,0,0,0-1.849,0L48.3,292.964a1.308,1.308,0,0,0,1.817,1.881l.032-.032,5.547-5.547C55.931,288.861,55.462,288.092,55.7,287.417Z" transform="translate(-47.902 -287.034)" fill="#7c7c7c"/>
      </g>
    </g>
    <g id="Group_33" data-name="Group 33" transform="translate(15.676 73.704)">
      <g id="Group_32" data-name="Group 32" transform="translate(0 0)">
        <path id="Path_106" data-name="Path 106" d="M103.665,287.5a1.308,1.308,0,0,0-1.817,0L96.3,293.045a1.308,1.308,0,0,0,1.817,1.881l.032-.032,5.547-5.547A1.308,1.308,0,0,0,103.665,287.5Z" transform="translate(-95.902 -287.131)" fill="#7c7c7c"/>
      </g>
    </g>
    <g id="Group_35" data-name="Group 35" transform="translate(36.73 45.093)">
      <g id="Group_34" data-name="Group 34">
        <path id="Path_107" data-name="Path 107" d="M239.864,112.466a1.308,1.308,0,0,0-1.817,0L225.1,125.412a1.308,1.308,0,0,0,1.817,1.881l.032-.032L239.9,114.315A1.308,1.308,0,0,0,239.864,112.466Z" transform="translate(-224.702 -112.098)" fill="#7c7c7c"/>
      </g>
    </g>
    <g id="Group_37" data-name="Group 37" transform="translate(66.135 77.244)">
      <g id="Group_36" data-name="Group 36">
        <path id="Path_108" data-name="Path 108" d="M410.5,309.153a1.308,1.308,0,0,0-1.817,0l-3.7,3.7a1.308,1.308,0,0,0,1.817,1.881l.032-.032,3.7-3.7A1.308,1.308,0,0,0,410.5,309.153Z" transform="translate(-404.59 -308.786)" fill="#7c7c7c"/>
      </g>
    </g>
    <g id="Group_39" data-name="Group 39" transform="translate(37.943 76.462)">
      <g id="Group_38" data-name="Group 38">
        <path id="Path_109" data-name="Path 109" d="M233.434,304h-.013a1.314,1.314,0,1,0,.013,0Z" transform="translate(-232.12 -304)" fill="#7c7c7c"/>
      </g>
    </g>
    <g id="Group_41" data-name="Group 41" transform="translate(35.308 37.231)">
      <g id="Group_40" data-name="Group 40" transform="translate(0 0)">
        <path id="Path_110" data-name="Path 110" d="M222.538,64h-5.231a1.308,1.308,0,0,0,0,2.615h5.231a1.308,1.308,0,1,0,0-2.615Z" transform="translate(-216 -64)" fill="#7c7c7c"/>
      </g>
    </g>
  </g>
</svg>
