<svg xmlns="http://www.w3.org/2000/svg" width="20.319" height="17.67" viewBox="0 0 20.319 17.67">
  <g id="Group_1209" data-name="Group 1209" transform="translate(-907 -636)">
    <path id="Rectangle_590" data-name="Rectangle 590" d="M1,0H3.417a1,1,0,0,1,1,1V17.67a0,0,0,0,1,0,0H0a0,0,0,0,1,0,0V1A1,1,0,0,1,1,0Z" transform="translate(907 636)" fill="#686868"/>
    <path id="Rectangle_591" data-name="Rectangle 591" d="M1,0H3.417a1,1,0,0,1,1,1v9.6a0,0,0,0,1,0,0H0a0,0,0,0,1,0,0V1A1,1,0,0,1,1,0Z" transform="translate(914.951 643.068)" fill="#686868"/>
    <path id="Rectangle_592" data-name="Rectangle 592" d="M1,0H3.417a1,1,0,0,1,1,1V5.3a0,0,0,0,1,0,0H0a0,0,0,0,1,0,0V1A1,1,0,0,1,1,0Z" transform="translate(922.903 648.369)" fill="#686868"/>
  </g>
</svg>
