<svg id="layout" xmlns="http://www.w3.org/2000/svg" width="82.603" height="75.471" viewBox="0 0 82.603 75.471">
    <path id="Path_257" data-name="Path 257" d="M27.6,0H2.8A2.8,2.8,0,0,0,0,2.8V72.674a2.8,2.8,0,0,0,2.8,2.8H27.6a2.8,2.8,0,0,0,2.8-2.8V48.5a1.21,1.21,0,1,0-2.42,0V72.674a.377.377,0,0,1-.376.376H2.8a.377.377,0,0,1-.376-.376V2.8A.377.377,0,0,1,2.8,2.42H27.6a.377.377,0,0,1,.376.376V42.785a1.21,1.21,0,1,0,2.42,0V2.8A2.8,2.8,0,0,0,27.6,0Zm0,0"/>
    <path id="Path_258" data-name="Path 258" d="M212.687,14.609H221.7a2.8,2.8,0,0,0,2.8-2.8V2.8A2.8,2.8,0,0,0,221.7,0h-9.016a2.8,2.8,0,0,0-2.8,2.8v9.016A2.8,2.8,0,0,0,212.687,14.609ZM212.311,2.8a.377.377,0,0,1,.376-.376H221.7a.377.377,0,0,1,.376.376v9.016a.377.377,0,0,1-.376.376h-9.016a.377.377,0,0,1-.376-.376Zm0,0" transform="translate(-176.028)"/>
    <path id="Path_259" data-name="Path 259" d="M212.687,125.128H221.7a2.8,2.8,0,0,0,2.8-2.8v-9.016a2.8,2.8,0,0,0-2.8-2.8h-9.016a2.8,2.8,0,0,0-2.8,2.8v9.016A2.8,2.8,0,0,0,212.687,125.128Zm-.376-11.812a.377.377,0,0,1,.376-.376H221.7a.376.376,0,0,1,.376.376v9.016a.377.377,0,0,1-.376.376h-9.016a.377.377,0,0,1-.376-.376Zm0,0" transform="translate(-176.028 -92.689)"/>
    <path id="Path_260" data-name="Path 260" d="M325.449,14.609h4.407a1.21,1.21,0,0,0,0-2.42h-4.407a.377.377,0,0,1-.376-.377V2.8a.377.377,0,0,1,.376-.376h23.611a.377.377,0,0,1,.376.376v9.016a.377.377,0,0,1-.376.376H335.566a1.21,1.21,0,0,0,0,2.42h13.493a2.8,2.8,0,0,0,2.8-2.8V2.8a2.8,2.8,0,0,0-2.8-2.8H325.449a2.8,2.8,0,0,0-2.8,2.8v9.016A2.8,2.8,0,0,0,325.449,14.609Zm0,0" transform="translate(-270.598)"/>
    <path id="Path_261" data-name="Path 261" d="M325.449,125.128h23.611a2.8,2.8,0,0,0,2.8-2.8v-9.016a2.8,2.8,0,0,0-2.8-2.8H325.449a2.8,2.8,0,0,0-2.8,2.8v9.016A2.8,2.8,0,0,0,325.449,125.128Zm-.376-11.812a.377.377,0,0,1,.376-.376h23.611a.376.376,0,0,1,.376.376v9.016a.377.377,0,0,1-.376.376H325.449a.377.377,0,0,1-.376-.376Zm0,0" transform="translate(-270.598 -92.689)"/>
    <path id="Path_262" data-name="Path 262" d="M254.625,287.813H213.9a4.006,4.006,0,1,0,0,8.012h40.728a4.006,4.006,0,0,0,0-8.012Zm0,5.592H213.9a1.586,1.586,0,1,1,0-3.172h40.728a1.586,1.586,0,0,1,0,3.172Zm0,0" transform="translate(-176.028 -241.379)"/>
    <path id="Path_263" data-name="Path 263" d="M254.625,352.973H213.9a4.006,4.006,0,1,0,0,8.012h40.728a4.006,4.006,0,0,0,0-8.012Zm0,5.592H213.9a1.586,1.586,0,1,1,0-3.172h40.728a1.586,1.586,0,0,1,0,3.172Zm0,0" transform="translate(-176.028 -296.026)"/>
    <path id="Path_264" data-name="Path 264" d="M254.625,418.133H230.51a1.21,1.21,0,0,0,0,2.42h24.116a1.586,1.586,0,0,1,0,3.172H213.9a1.586,1.586,0,1,1,0-3.172h10.9a1.21,1.21,0,0,0,0-2.42H213.9a4.006,4.006,0,1,0,0,8.012h40.728a4.006,4.006,0,0,0,0-8.012Zm0,0" transform="translate(-176.028 -350.674)"/>
    <path id="Path_265" data-name="Path 265" d="M213.9,230.664h40.728a4.006,4.006,0,0,0,0-8.012H213.9a4.006,4.006,0,1,0,0,8.012Zm0-5.592h40.728a1.586,1.586,0,0,1,0,3.172H213.9a1.586,1.586,0,1,1,0-3.172Zm0,0" transform="translate(-176.028 -186.731)"/>
    <path id="Path_266" data-name="Path 266" d="M45.421,286.084h3.388a1.21,1.21,0,0,0,0-2.42H45.421a1.21,1.21,0,0,0,0,2.42Zm0,0" transform="translate(-37.078 -237.9)"/>
    <path id="Path_267" data-name="Path 267" d="M59.134,329.621H45.421a1.21,1.21,0,1,0,0,2.42H59.134a1.21,1.21,0,1,0,0-2.42Zm0,0" transform="translate(-37.078 -276.442)"/>
    <path id="Path_268" data-name="Path 268" d="M59.134,362.621H45.421a1.21,1.21,0,1,0,0,2.42H59.134a1.21,1.21,0,1,0,0-2.42Zm0,0" transform="translate(-37.078 -304.118)"/>
    <path id="Path_269" data-name="Path 269" d="M59.134,395.621H45.421a1.21,1.21,0,1,0,0,2.42H59.134a1.21,1.21,0,1,0,0-2.42Zm0,0" transform="translate(-37.078 -331.794)"/>
</svg>
