<svg xmlns="http://www.w3.org/2000/svg" width="11.978" height="16.006" viewBox="0 0 11.978 16.006">
  <g id="padlock" transform="translate(-60.75)">
    <g id="Group_1166" data-name="Group 1166" transform="translate(60.75)">
      <path id="Path_235" data-name="Path 235" d="M71.862,6.975h-.235V4.89a4.89,4.89,0,1,0-9.78,0c0,.249-.1,2.95.453,2.95s.442-2.7.442-2.95a3.995,3.995,0,1,1,7.989,0V6.975H61.615a.866.866,0,0,0-.865.865v5.573a2.6,2.6,0,0,0,2.592,2.592h6.793a2.6,2.6,0,0,0,2.592-2.592V7.84A.866.866,0,0,0,71.862,6.975Zm-.03,6.438a1.7,1.7,0,0,1-1.7,1.7H63.346a1.7,1.7,0,0,1-1.7-1.7V7.87H71.832v5.543Z" transform="translate(-60.75)" fill="#acacac"/>
      <path id="Path_236" data-name="Path 236" d="M192.624,301.448a1.674,1.674,0,1,0-1.674-1.674A1.676,1.676,0,0,0,192.624,301.448Zm0-2.456a.781.781,0,1,1-.779.782A.78.78,0,0,1,192.624,298.992Z" transform="translate(-186.634 -288.218)" fill="#acacac"/>
    </g>
  </g>
</svg>
