<svg xmlns="http://www.w3.org/2000/svg" width="280.419" height="88.081" viewBox="0 0 280.419 88.081">
  <g id="Group_1253" data-name="Group 1253" transform="translate(-1463.58 -329.729)">
    <g id="Group_18" data-name="Group 18" transform="translate(-90.355 843)">
      <g id="Group_1" data-name="Group 1" transform="translate(1731.182 -513.271)">
        <path id="Path_6" data-name="Path 6" d="M732.442,450.376l-.594.594c-4.9,4.9-5.354,12.71-.459,17.605l4.939,4.939a14.057,14.057,0,0,1,2.3,16.965l7.334-7.334-.494-.494c.025.025.256.052.281.077a27.219,27.219,0,0,1,4.451,32.378l21.552-21.551,1.342-1.343.595-.595a12.669,12.669,0,0,0-.3-17.835l-.1-.1-.594-.594-22.908-22.908A12.077,12.077,0,0,0,732.442,450.376Z" transform="translate(-674.039 -446.604)" fill="#989595"/>
        <path id="Path_7" data-name="Path 7" d="M699.868,537.739l.594-.594a12.16,12.16,0,0,0,.012-17.414l-4.94-4.94c-4.747-4.747-4.839-11.794-1.85-17.157l-7.653,7.653.367.367c-.025-.025-.033-.148-.058-.173-8.7-8.7-9.954-22-4.228-32.473l-21.551,21.551-1.343,1.343-.594.594a12.9,12.9,0,0,0-.151,18.027l.1.1.594.594,22.908,22.908C686.974,543.023,694.971,542.635,699.868,537.739Z" transform="translate(-654.876 -453.529)" fill="#989595"/>
        <path id="Path_8" data-name="Path 8" d="M745.766,484.034l-.028.027h0l-14.076,14.077a12.315,12.315,0,0,0-.164,17.544l.595.595a12.826,12.826,0,0,0,17.966.258l22.908-22.908.594-.594.1-.1c4.9-4.9,4.569-13-.327-17.9l-.594-.594L771.4,473.1l-21.551-21.551A26.929,26.929,0,0,1,745.766,484.034Z" transform="translate(-674.03 -447.9)" fill="#b7b7b7"/>
        <path id="Path_9" data-name="Path 9" d="M686.382,504.278c.024-.024.167-.179.192-.2h0L700.65,490c4.9-4.9,4.614-12.457-.283-17.353l-.594-.594c-4.9-4.9-12.624-5.345-17.519-.449L659.347,494.51l-.595.595-.1.1a12.975,12.975,0,0,0-.12,18.088l.594.594,1.342,1.343,21.552,21.551A27.389,27.389,0,0,1,686.382,504.278Z" transform="translate(-654.888 -452.254)" fill="#b7b7b7"/>
      </g>
    </g>
    <g id="Group_1211" data-name="Group 1211" transform="translate(23251.068 8678)">
      <path id="Path_167" data-name="Path 167" d="M336.921,92.773a9.269,9.269,0,0,0-5.208,8.58c-.035,5.1,0,10.2-.018,15.305,0,6.09-2.454,10.592-8.385,12.8-.83.3-1.412.989-1.042,1.748.971,1.977,2.136,3.848,3.213,5.755h.812c.353-.177.706-.371,1.059-.53,7.114-3.142,11.439-8.65,11.951-16.312.565-8.6.212-17.265.229-25.9C339.551,92.544,338.439,91.943,336.921,92.773Z" transform="translate(-22055.756 -8412.449)" fill="#b7b7b7"/>
      <path id="Path_168" data-name="Path 168" d="M369.377,21.686a1.53,1.53,0,0,0-2.454-.018c-1.165,1.183-2.33,2.348-3.5,3.531a1.61,1.61,0,0,0-.053,2.489c1.13,1.2,2.313,2.383,3.5,3.531a6,6,0,0,0,1.218.724,3.828,3.828,0,0,0,1.042-.494c1.359-1.306,2.719-2.6,3.99-3.99a1.455,1.455,0,0,0-.159-2.171C371.777,24.087,370.577,22.887,369.377,21.686Z" transform="translate(-22089.234 -8353.702)" fill="#b7b7b7"/>
      <path id="Path_169" data-name="Path 169" d="M854.1,90.5c0-1.695-1.112-2.277-2.63-1.448a9.272,9.272,0,0,0-5.208,8.474h0v5h0v4.819c0,5.42-.035,3.919.035,9.321a2.609,2.609,0,0,0,.83,2.03,2.777,2.777,0,0,0,2.189-.353,9.1,9.1,0,0,0,4.8-8.262c.018-4.819.018-2.736,0-7.556h.071C854.168,98.5,854.1,94.495,854.1,90.5Z" transform="translate(-22487.332 -8409.387)" fill="#b7b7b7"/>
      <path id="Path_170" data-name="Path 170" d="M58.226,51.3c0-1.695-1.112-2.277-2.63-1.448a9.269,9.269,0,0,0-5.208,8.58v1.43H50.3c-.018,7.079-.018,13.964-.035,21.272a12.206,12.206,0,0,1-3.089,8.615A13.558,13.558,0,0,1,32.47,92.931c-4.837-1.854-7.732-6.3-7.75-11.916-.018-4.784.018-3.284-.035-8.068-.018-1.059.494-2.4-.794-3.036-1.359-.671-2.348.424-3.354,1.112-1.924,1.324-2.807,3.389-3.637,5.455v7.679a50.146,50.146,0,0,0,1.589,5.473c2.736,6.6,7.909,10.221,14.758,11.7.282.071.565.194.847.282H40.82c.282-.088.565-.212.865-.282,7.891-1.695,13.487-6.108,15.623-14.07a36.024,36.024,0,0,0,.883-8.632c.071-3.743.071-9.674.071-15.341h.071C58.3,59.3,58.226,55.295,58.226,51.3Z" transform="translate(-21804.389 -8377.106)" fill="#b7b7b7"/>
      <path id="Path_171" data-name="Path 171" d="M299.443,58.313h-.106c-.018-2.33-.053-4.678-.035-7.008,0-1.695-1.112-2.277-2.63-1.448a9.269,9.269,0,0,0-5.208,8.58c-.018,1.624,0,3.248,0,4.89h.018V84.44c0,2.136,1.2,2.807,3.054,1.695a9.5,9.5,0,0,0,4.908-8.527C299.46,73.107,299.443,64.792,299.443,58.313Z" transform="translate(-22030.477 -8377.106)" fill="#b7b7b7"/>
      <path id="Path_172" data-name="Path 172" d="M499.9,88.553c-6.126-.035-5.014,0-11.139,0-2.065,0-2.419.353-2.419,2.419v17.6c0,1.942-.212,2.136-2.171,2.136h-6.285V91.4c0-2.083-1.148-2.736-2.948-1.712a9.337,9.337,0,0,0-4.978,8.474c-.071,3.584-.071,7.167-.088,10.751-.018,1.589-.212,1.818-1.765,1.818-3.707.018-.441.018-4.148-.018a7.746,7.746,0,0,1-2.118-.265,7.308,7.308,0,0,1,.018-13.752,9.262,9.262,0,0,0,8-5.19,2.321,2.321,0,0,0,.353-1.412c.106-.971-.53-1.589-1.818-1.589-2.083,0-4.166.053-6.249.035h-.388v.035a12.07,12.07,0,0,0-5.9,2.207,15.373,15.373,0,0,0-6.267,16.594c1.5,5.914,5.1,9.851,11.157,10.945a14.477,14.477,0,0,0,2.1.388c2.03.053,4.06.018,6.232.018a11.9,11.9,0,0,1-6.885,7.291c-2.118.865-2.277,1.324-1.218,3.389.441.865.812,1.783,1.324,2.63a14.242,14.242,0,0,0,1.377,1.748h.812c.141-.088.282-.212.424-.282A19.569,19.569,0,0,0,477.193,119c.088-.371.247-.724.282-.847a13.77,13.77,0,0,0,2.277.53,19.348,19.348,0,0,0,3.354-.018,4.524,4.524,0,0,0,.953-.177v-.071h.088a4.235,4.235,0,0,0,1.13-.565c2.613-1.96,5.119-4.06,7.7-6.02a2.793,2.793,0,0,0,1.2-2.507c-.035-3.672-.018-7.344-.018-11.016,0-1.518.406-1.924,1.907-1.924a21.93,21.93,0,0,1,3.884.071,8.862,8.862,0,0,1,4.307,1.518c2.507,1.73,3.231,5.155,2.136,8.368a6.468,6.468,0,0,1-6.408,4.378c-3.584.035.088,0-3.478.018-1.765.018-2.436,1.112-1.659,2.683a8.312,8.312,0,0,0,5.526,4.731c.459.106.812.212,1.112.282h2.207a13.01,13.01,0,0,1,1.836-.777c8.262-3,11.245-12.8,7.926-20.46C510.946,91.307,506.2,88.588,499.9,88.553Z" transform="translate(-22160.299 -8409.236)" fill="#b7b7b7"/>
      <path id="Path_173" data-name="Path 173" d="M830.1,22.081c-.565-1.43-3.336.194-6.6.406-.812-.194-1.854-.424-3.284-.706a9.53,9.53,0,0,0-9.356,3.036,3.743,3.743,0,0,0-.706,1.042c-.794,1.006-1.8,2.613-1.324,3.831.671,1.695,4.625-.777,8.7-.335.459.106.83.177,1.377.282.035,0,.071.018.124.018.035.018.071.018.106.035a.938.938,0,0,0,.459.071,9.135,9.135,0,0,0,8.279-2.877l.088-.018C827.944,26.847,830.857,23.987,830.1,22.081Z" transform="translate(-22456.412 -8354.062)" fill="#b7b7b7"/>
    </g>
  </g>
</svg>
