<svg xmlns="http://www.w3.org/2000/svg" width="95.118" height="27.693" viewBox="0 0 95.118 27.693">
    <g id="Group_1249" data-name="Group 1249" transform="translate(-242.882 -29.359)">
        <g id="Group_4" data-name="Group 4" transform="translate(-523.926 -1389)">
            <g id="Group_1" data-name="Group 1" transform="translate(829.92 1418.729)">
                <path id="Path_6" data-name="Path 6" d="M729.336,447.774l-.184.184a3.845,3.845,0,0,0-.142,5.461l1.532,1.532a4.361,4.361,0,0,1,.712,5.263l2.275-2.275-.153-.153c.008.008.079.016.087.024a8.444,8.444,0,0,1,1.381,10.044l6.686-6.685.416-.417.184-.184a3.93,3.93,0,0,0-.092-5.533l-.032-.032-.184-.184-7.106-7.106A3.746,3.746,0,0,0,729.336,447.774Z" transform="translate(-711.218 -446.604)" fill="#59b283"/>
                <path id="Path_7" data-name="Path 7" d="M668.833,493.088l.184-.184a3.772,3.772,0,0,0,0-5.4l-1.532-1.532a4.42,4.42,0,0,1-.574-5.322l-2.374,2.374.114.114c-.008-.008-.01-.046-.018-.054a8.474,8.474,0,0,1-1.312-10.074l-6.685,6.685-.417.417-.184.184a4,4,0,0,0-.047,5.592l.032.032.184.184,7.106,7.106A3.914,3.914,0,0,0,668.833,493.088Z" transform="translate(-654.877 -466.965)" fill="#4ea0a0"/>
                <path id="Path_8" data-name="Path 8" d="M733.447,461.623l-.009.008h0L729.072,466a3.82,3.82,0,0,0-.051,5.442l.184.184a3.979,3.979,0,0,0,5.573.08l7.106-7.106.184-.184.032-.032a3.953,3.953,0,0,0-.1-5.552l-.184-.184-.417-.417-6.685-6.685A8.354,8.354,0,0,1,733.447,461.623Z" transform="translate(-711.194 -450.414)" fill="#68d9a0"/>
                <path id="Path_9" data-name="Path 9" d="M664.679,479.355l.06-.063h0l4.367-4.367a3.751,3.751,0,0,0-.088-5.383l-.184-.184a3.814,3.814,0,0,0-5.435-.139l-7.106,7.106-.184.184-.032.032a4.025,4.025,0,0,0-.037,5.611l.184.184.416.416,6.686,6.685A8.5,8.5,0,0,1,664.679,479.355Z" transform="translate(-654.909 -463.217)" fill="#5bc5c9"/>
            </g>
        </g>
        <g id="amoozal_2" data-name="amoozal 2" transform="translate(237.45 8.298)">
            <path id="Path_167" data-name="Path 167" d="M327.369,92.534a3.273,3.273,0,0,0-1.839,3.03c-.012,1.8,0,3.6-.006,5.4a4.356,4.356,0,0,1-2.961,4.52c-.293.106-.5.349-.368.617.343.7.754,1.359,1.135,2.032h.287c.125-.062.249-.131.374-.187a6.548,6.548,0,0,0,4.22-5.76c.2-3.036.075-6.1.081-9.145C328.3,92.453,327.9,92.241,327.369,92.534Z" transform="translate(-296.978 -66.894)" fill="#fff"/>
            <path id="Path_168" data-name="Path 168" d="M365.13,21.282a.54.54,0,0,0-.867-.006c-.411.418-.823.829-1.234,1.247a.569.569,0,0,0-.019.879c.4.424.817.842,1.234,1.247a2.117,2.117,0,0,0,.43.256,1.352,1.352,0,0,0,.368-.175c.48-.461.96-.916,1.409-1.409a.514.514,0,0,0-.056-.767C365.978,22.13,365.554,21.706,365.13,21.282Z" transform="translate(-335.101)" fill="#fff"/>
            <path id="Path_169" data-name="Path 169" d="M849.021,89.327c0-.6-.393-.8-.929-.511a3.275,3.275,0,0,0-1.839,2.992h0v1.764h0v1.7c0,1.914-.012,1.384.013,3.291a.921.921,0,0,0,.293.717.981.981,0,0,0,.773-.125,3.212,3.212,0,0,0,1.7-2.917c.006-1.7.006-.966,0-2.668h.025C849.046,92.151,849.021,90.736,849.021,89.327Z" transform="translate(-788.402 -63.407)" fill="#fff"/>
            <path id="Path_170" data-name="Path 170" d="M31.494,50.127c0-.6-.393-.8-.929-.511a3.273,3.273,0,0,0-1.839,3.03v.5h-.031c-.006,2.5-.006,4.931-.012,7.512A4.31,4.31,0,0,1,27.591,63.7,4.788,4.788,0,0,1,22.4,64.826a4.306,4.306,0,0,1-2.737-4.208c-.006-1.689.006-1.16-.012-2.849-.006-.374.175-.848-.281-1.072-.48-.237-.829.15-1.184.393A3.915,3.915,0,0,0,16.9,59.016v2.712a17.708,17.708,0,0,0,.561,1.933,6.794,6.794,0,0,0,5.212,4.133c.1.025.2.069.3.1h2.375c.1-.031.2-.075.305-.1a6.679,6.679,0,0,0,5.517-4.968,12.721,12.721,0,0,0,.312-3.048c.025-1.322.025-3.416.025-5.417h.025C31.518,52.951,31.494,51.536,31.494,50.127Z" transform="translate(-10.753 -26.65)" fill="#fff"/>
            <path id="Path_171" data-name="Path 171" d="M294.276,52.6h-.037c-.006-.823-.019-1.652-.012-2.475,0-.6-.393-.8-.929-.511a3.273,3.273,0,0,0-1.839,3.03c-.006.574,0,1.147,0,1.727h.006v7.456c0,.754.424.991,1.078.6a3.354,3.354,0,0,0,1.733-3.011C294.282,57.826,294.276,54.89,294.276,52.6Z" transform="translate(-268.193 -26.65)" fill="#fff"/>
            <path id="Path_172" data-name="Path 172" d="M467.042,88.519c-2.163-.012-1.77,0-3.934,0-.729,0-.854.125-.854.854v6.215c0,.686-.075.754-.767.754h-2.219v-6.82c0-.736-.405-.966-1.041-.6a3.3,3.3,0,0,0-1.758,2.992c-.025,1.265-.025,2.531-.031,3.8-.006.561-.075.642-.623.642-1.309.006-.156.006-1.465-.006a2.735,2.735,0,0,1-.748-.094,2.581,2.581,0,0,1,.006-4.856,3.271,3.271,0,0,0,2.824-1.833.819.819,0,0,0,.125-.5c.037-.343-.187-.561-.642-.561-.736,0-1.471.019-2.207.012h-.137v.012a4.262,4.262,0,0,0-2.082.779,5.429,5.429,0,0,0-2.213,5.86,4.776,4.776,0,0,0,3.94,3.865,5.112,5.112,0,0,0,.742.137c.717.019,1.434.006,2.2.006a4.2,4.2,0,0,1-2.431,2.575c-.748.305-.8.468-.43,1.2.156.305.287.63.468.929a5.028,5.028,0,0,0,.486.617h.287c.05-.031.1-.075.15-.1a6.911,6.911,0,0,0,4.339-5.118c.031-.131.087-.256.1-.3a4.863,4.863,0,0,0,.8.187,6.833,6.833,0,0,0,1.184-.006,1.6,1.6,0,0,0,.337-.062v-.025h.031a1.5,1.5,0,0,0,.4-.2c.923-.692,1.808-1.434,2.718-2.126a.986.986,0,0,0,.424-.885c-.012-1.3-.006-2.593-.006-3.89,0-.536.143-.679.673-.679a7.744,7.744,0,0,1,1.371.025,3.129,3.129,0,0,1,1.521.536,2.528,2.528,0,0,1,.754,2.955,2.284,2.284,0,0,1-2.263,1.546c-1.265.012.031,0-1.228.006-.623.006-.86.393-.586.948a2.935,2.935,0,0,0,1.951,1.671c.162.037.287.075.393.1h.779a4.591,4.591,0,0,1,.648-.274,5.367,5.367,0,0,0,2.8-7.225A4.822,4.822,0,0,0,467.042,88.519Z" transform="translate(-416.018 -63.234)" fill="#fff"/>
            <path id="Path_173" data-name="Path 173" d="M816.258,21.7c-.2-.5-1.178.069-2.331.143-.287-.069-.655-.15-1.16-.249a3.365,3.365,0,0,0-3.3,1.072,1.321,1.321,0,0,0-.249.368c-.281.355-.636.923-.468,1.353.237.6,1.633-.274,3.073-.118.162.037.293.062.486.1.013,0,.025.006.044.006s.025.006.037.012a.331.331,0,0,0,.162.025,3.226,3.226,0,0,0,2.924-1.016l.031-.006C815.5,23.387,816.526,22.377,816.258,21.7Z" transform="translate(-753.195 -0.409)" fill="#fff"/>
            <g id="Group_1114" data-name="Group 1114" transform="translate(5.432 42.078)">
                <path id="Path_174" data-name="Path 174" d="M8.578,398.091a1.132,1.132,0,0,1,.318-.025,1.539,1.539,0,0,1,.268.037.938.938,0,0,1,.187.062.272.272,0,0,0,.081.031l-.212.48a1.329,1.329,0,0,0-.168-.056,1.171,1.171,0,0,0-.175-.025.968.968,0,0,0-.418.087.939.939,0,0,0-.212.15,1.465,1.465,0,0,0-.187.206,1.188,1.188,0,0,0-.143.243.926.926,0,0,0-.075.256.5.5,0,0,0,.019.237.282.282,0,0,0,.112.156.656.656,0,0,0,.187.094,2.033,2.033,0,0,0,.231.069c.081.019.162.044.243.069a1.487,1.487,0,0,1,.231.094.551.551,0,0,1,.187.15.526.526,0,0,1,.106.231.868.868,0,0,1,0,.337,1.06,1.06,0,0,1-.212.467,1.481,1.481,0,0,1-.449.368,2.482,2.482,0,0,1-.6.224,3.378,3.378,0,0,1-.736.075,2.185,2.185,0,0,1-.81-.143,1.407,1.407,0,0,1-.58-.411,1.514,1.514,0,0,1-.281-.567,1.875,1.875,0,0,1-.037-.7c.012-.112.031-.231.056-.349l.075-.355c.025-.112.056-.224.081-.324s.056-.193.075-.274.044-.143.056-.193.025-.075.025-.081l.461.175q-.112.365-.206.729a5.777,5.777,0,0,0-.143.742,2.027,2.027,0,0,0-.012.206,1.362,1.362,0,0,0,.019.224A1.507,1.507,0,0,0,6,401a.7.7,0,0,0,.125.206.9.9,0,0,0,.411.281,1.785,1.785,0,0,0,.6.094,3.174,3.174,0,0,0,.623-.056,2.012,2.012,0,0,0,.474-.156.905.905,0,0,0,.305-.224.419.419,0,0,0,.118-.256.119.119,0,0,0-.044-.106.727.727,0,0,0-.125-.075c-.056-.019-.112-.037-.187-.056s-.143-.037-.218-.062-.156-.05-.231-.081a1.415,1.415,0,0,1-.212-.118.9.9,0,0,1-.168-.175.6.6,0,0,1-.1-.249,1.52,1.52,0,0,1-.019-.411,1.755,1.755,0,0,1,.087-.4,1.634,1.634,0,0,1,.181-.362,1.749,1.749,0,0,1,.256-.305,1.3,1.3,0,0,1,.318-.231A1.065,1.065,0,0,1,8.578,398.091Z" transform="translate(-5.432 -395.579)" fill="#fff"/>
                <path id="Path_175" data-name="Path 175" d="M71.215,385.79c.044.162.087.324.131.48.019.069.031.137.05.212s.037.143.05.218.031.143.037.212.019.131.025.193c0,.019.006.044.006.062v.081a1.519,1.519,0,0,1-.062.443,1.99,1.99,0,0,1-.175.411,2.524,2.524,0,0,1-.262.374,3.636,3.636,0,0,1-.7.63c-.131.087-.268.168-.4.243l-.212-.461a3.438,3.438,0,0,0,.492-.312,2.872,2.872,0,0,0,.43-.386,2.011,2.011,0,0,0,.3-.449,1.137,1.137,0,0,0,.112-.492v-.044c0-.019-.006-.037-.006-.056h0c-.006-.056-.012-.112-.025-.175s-.025-.131-.037-.193-.031-.131-.044-.2-.031-.131-.05-.193c-.037-.143-.081-.293-.125-.436Zm.112-1.06-.393.424-.4-.43.393-.424Z" transform="translate(-65.694 -382.673)" fill="#fff"/>
                <path id="Path_176" data-name="Path 176" d="M107.4,403.535a3.1,3.1,0,0,0,.667-.224,2.2,2.2,0,0,0,.5-.324,1.537,1.537,0,0,0,.33-.38,1.085,1.085,0,0,0,.15-.4h-.243c-.094,0-.181-.006-.274-.012a1.025,1.025,0,0,1-.779-.368.757.757,0,0,1-.143-.349,1.47,1.47,0,0,1,0-.405,1.451,1.451,0,0,1,.106-.4,1.42,1.42,0,0,1,.175-.337.838.838,0,0,1,.268-.249.61.61,0,0,1,.3-.087.815.815,0,0,1,.63.337,1.768,1.768,0,0,1,.187.274,2.291,2.291,0,0,1,.143.33,3.17,3.17,0,0,1,.094.368,1.982,1.982,0,0,1,.037.387h.181a.25.25,0,0,1,.094.019.17.17,0,0,1,.075.056.353.353,0,0,1,.05.081.275.275,0,0,1,0,.2.354.354,0,0,1-.05.081.216.216,0,0,1-.075.056.251.251,0,0,1-.094.019h-.218a2.133,2.133,0,0,1-.262.7,2.266,2.266,0,0,1-.461.542,2.418,2.418,0,0,1-.6.38,2.71,2.71,0,0,1-.686.206Zm1.072-3.023a.18.18,0,0,0-.131.056.471.471,0,0,0-.112.15,1.011,1.011,0,0,0-.081.206,1.449,1.449,0,0,0-.05.224,1.132,1.132,0,0,0,0,.206.27.27,0,0,0,.056.15.312.312,0,0,0,.094.087.672.672,0,0,0,.118.05.82.82,0,0,0,.118.031.692.692,0,0,0,.106.012,2.156,2.156,0,0,0,.281.006c.087,0,.156-.006.224-.012a2.37,2.37,0,0,0-.037-.312,1.843,1.843,0,0,0-.075-.281,1.126,1.126,0,0,0-.106-.231,1.514,1.514,0,0,0-.118-.181l-.056-.056c-.019-.019-.044-.037-.062-.056a.21.21,0,0,0-.075-.037A.778.778,0,0,0,108.472,400.511Z" transform="translate(-101.043 -397.394)" fill="#fff"/>
                <path id="Path_177" data-name="Path 177" d="M140.6,427.456a.258.258,0,0,1,.019-.1.275.275,0,0,1,.137-.137.25.25,0,0,1,.094-.019h2.232a.25.25,0,0,1,.094.019.17.17,0,0,1,.075.056.353.353,0,0,1,.05.081.273.273,0,0,1-.05.281.233.233,0,0,1-.168.075h-2.232a.25.25,0,0,1-.094-.019.275.275,0,0,1-.137-.137A.258.258,0,0,1,140.6,427.456Z" transform="translate(-132.174 -422.899)" fill="#fff"/>
                <path id="Path_178" data-name="Path 178" d="M175.9,427.456a.259.259,0,0,1,.019-.1.275.275,0,0,1,.137-.137.25.25,0,0,1,.094-.019h2.232a.25.25,0,0,1,.094.019.17.17,0,0,1,.075.056.353.353,0,0,1,.05.081.274.274,0,0,1-.05.281.233.233,0,0,1-.168.075h-2.232a.25.25,0,0,1-.094-.019.275.275,0,0,1-.137-.137A.259.259,0,0,1,175.9,427.456Z" transform="translate(-165.273 -422.899)" fill="#fff"/>
                <path id="Path_179" data-name="Path 179" d="M211.7,402.889a.272.272,0,0,1,.069-.181.213.213,0,0,1,.168-.075h0a.8.8,0,0,0,.343-.069.813.813,0,0,0,.243-.193,1.349,1.349,0,0,0,.181-.268c.05-.1.1-.206.15-.312s.081-.181.125-.268a2.17,2.17,0,0,1,.143-.237.642.642,0,0,1,.53-.287.743.743,0,0,1,.611.318,1.178,1.178,0,0,1,.231.63,1.313,1.313,0,0,1,.006.349,1.756,1.756,0,0,1-.069.324.9.9,0,0,1-.187.312.612.612,0,0,1-.268.168.9.9,0,0,1-.611-.069,2.539,2.539,0,0,1-.492-.3l-.025.025a1.182,1.182,0,0,1-.916.4h0a.213.213,0,0,1-.168-.075A.374.374,0,0,1,211.7,402.889Zm1.459-.592a1.935,1.935,0,0,0,.405.256.469.469,0,0,0,.305.044.143.143,0,0,0,.081-.062.466.466,0,0,0,.069-.125.71.71,0,0,0,.037-.181.862.862,0,0,0-.006-.218.523.523,0,0,0-.012-.062c-.006-.031-.019-.062-.025-.1a.442.442,0,0,0-.05-.112c-.025-.037-.044-.075-.069-.106a.437.437,0,0,0-.1-.081.29.29,0,0,0-.131-.031.185.185,0,0,0-.094.031.32.32,0,0,0-.087.094,1.163,1.163,0,0,0-.087.156c-.031.062-.069.137-.106.224Z" transform="translate(-198.842 -398.332)" fill="#fff"/>
                <path id="Path_180" data-name="Path 180" d="M258.5,358.873c0-.006.006-.012.012-.037a.475.475,0,0,1,.025-.069c.012-.025.019-.056.031-.087s.025-.056.037-.081a.678.678,0,0,1,.181-.212.508.508,0,0,1,.212-.1.156.156,0,0,1,.056-.006h.05a.629.629,0,0,1,.193.031,1.25,1.25,0,0,1,.162.062,1.133,1.133,0,0,0,.131.05.894.894,0,0,0,.137.025.192.192,0,0,0,.112-.031.38.38,0,0,0,.1-.075.989.989,0,0,0,.081-.081c.025-.025.037-.05.05-.062l.274.193c0,.006-.012.019-.025.037a.572.572,0,0,1-.062.081.686.686,0,0,1-.094.1.968.968,0,0,1-.125.1.559.559,0,0,1-.15.075.537.537,0,0,1-.175.025.58.58,0,0,1-.181-.031c-.056-.019-.106-.037-.156-.056l-.037-.019c-.05-.019-.1-.037-.143-.05a.277.277,0,0,0-.143-.006.149.149,0,0,0-.081.044.363.363,0,0,0-.069.093.812.812,0,0,0-.05.106c-.012.037-.025.062-.031.087Zm.8,4.127c.025-.4.037-.773.044-1.122s.006-.673,0-.972c-.006-.15-.006-.287-.012-.405s-.012-.231-.019-.324-.012-.187-.019-.274-.012-.175-.019-.256-.012-.156-.019-.224-.012-.118-.019-.162a1.047,1.047,0,0,1-.012-.143l.474-.081c.006.012.012.118.037.318.012.1.019.2.031.3s.019.206.025.318l.019.318c.006.106.006.212.012.324.012.318.012.68.012,1.091s-.019.848-.05,1.322Z" transform="translate(-242.724 -358.2)" fill="#fff"/>
                <path id="Path_181" data-name="Path 181" d="M318.576,390.2a3.877,3.877,0,0,1-1.4-.218,1.209,1.209,0,0,1-.68-.6,1.041,1.041,0,0,1-.1-.461,1.6,1.6,0,0,1,.094-.517c.025-.062.044-.118.069-.175a1.412,1.412,0,0,1,.069-.137c.019-.037.037-.069.05-.093a.47.47,0,0,0,.025-.044l.386.305c-.012.012-.019.031-.031.044a.124.124,0,0,0-.025.05.857.857,0,0,0-.05.106.639.639,0,0,0-.05.131.759.759,0,0,0-.012.549.861.861,0,0,0,.542.393,3.585,3.585,0,0,0,1.1.137c.131,0,.268-.006.424-.019a4,4,0,0,0,.468-.062,4.049,4.049,0,0,0,.474-.118,2.185,2.185,0,0,0,.443-.2,1.914,1.914,0,0,0-.044-.249c-.025-.087-.056-.168-.087-.256s-.069-.162-.106-.237-.075-.143-.106-.2-.056-.106-.081-.143a.588.588,0,0,0-.031-.056l.405-.281a.37.37,0,0,0,.031.05c.019.031.044.075.069.125s.056.112.093.181.069.143.106.224.069.168.094.256.056.175.075.268a2.05,2.05,0,0,1,.037.237.659.659,0,0,1-.012.193.377.377,0,0,1-.087.162.876.876,0,0,1-.175.156,1.616,1.616,0,0,1-.256.137c-.1.044-.2.081-.312.118a3.191,3.191,0,0,1-.349.093c-.118.025-.243.05-.368.069s-.243.037-.362.044A1.074,1.074,0,0,1,318.576,390.2Zm-.037-2.581-.393.424-.4-.424.393-.424Zm1,.006-.393.424-.4-.43.393-.424Z" transform="translate(-297.015 -385.392)" fill="#fff"/>
                <path id="Path_182" data-name="Path 182" d="M387.315,408.2c.044.162.087.324.131.48.019.069.031.137.05.212s.037.143.05.218.031.143.037.212.019.131.025.193c0,.019.006.044.006.062v.081a1.52,1.52,0,0,1-.062.443,1.989,1.989,0,0,1-.175.411,2.52,2.52,0,0,1-.262.374,3.633,3.633,0,0,1-.7.63c-.131.087-.268.168-.4.243l-.212-.461a3.429,3.429,0,0,0,.492-.312,2.868,2.868,0,0,0,.43-.386,1.879,1.879,0,0,0,.3-.449,1.137,1.137,0,0,0,.112-.492v-.044c0-.019-.006-.037-.006-.056h0c-.006-.056-.012-.112-.025-.175s-.025-.131-.037-.193-.031-.131-.044-.2-.031-.131-.05-.193c-.037-.143-.081-.293-.125-.436Z" transform="translate(-362.088 -405.083)" fill="#fff"/>
                <path id="Path_183" data-name="Path 183" d="M427.966,376.234a1.371,1.371,0,0,1-.455-.069.8.8,0,0,1-.324-.206.613.613,0,0,1-.125-.187.866.866,0,0,1-.062-.193c-.012-.062-.019-.125-.025-.181v-.293c0-.062,0-.143.006-.249v-.8c0-.15,0-.305-.006-.468s-.006-.318-.013-.468-.012-.293-.025-.418-.025-.231-.037-.312l.474-.093c.012.087.025.2.037.324s.019.268.025.418.012.312.019.474.006.324.006.48v1.259a1.933,1.933,0,0,0,.006.2.239.239,0,0,0,.069.143.549.549,0,0,0,.411.125h.025a.25.25,0,0,1,.093.019.17.17,0,0,1,.075.056.221.221,0,0,1,.05.081.251.251,0,0,1-.224.355Z" transform="translate(-400.626 -371.421)" fill="#fff"/>
                <path id="Path_184" data-name="Path 184" d="M439.6,427.456a.259.259,0,0,1,.019-.1.275.275,0,0,1,.137-.137.25.25,0,0,1,.093-.019h2.232a.25.25,0,0,1,.094.019.17.17,0,0,1,.075.056.219.219,0,0,1,.05.081.274.274,0,0,1-.05.281.233.233,0,0,1-.168.075h-2.232a.25.25,0,0,1-.093-.019.276.276,0,0,1-.137-.137A.259.259,0,0,1,439.6,427.456Z" transform="translate(-412.534 -422.899)" fill="#fff"/>
                <path id="Path_185" data-name="Path 185" d="M474.8,427.456a.257.257,0,0,1,.019-.1.275.275,0,0,1,.137-.137.25.25,0,0,1,.093-.019h2.232a.25.25,0,0,1,.094.019.17.17,0,0,1,.075.056.219.219,0,0,1,.05.081.257.257,0,0,1,.019.1.26.26,0,0,1-.069.181.233.233,0,0,1-.168.075h-2.232a.25.25,0,0,1-.093-.019.275.275,0,0,1-.137-.137A.257.257,0,0,1,474.8,427.456Z" transform="translate(-445.54 -422.899)" fill="#fff"/>
                <path id="Path_186" data-name="Path 186" d="M510.6,399.312a.272.272,0,0,1,.069-.181.214.214,0,0,1,.168-.075h.274a1.748,1.748,0,0,1,.019-.349,3.2,3.2,0,0,1,.075-.4,3.1,3.1,0,0,1,.137-.405,1.928,1.928,0,0,1,.193-.355.977.977,0,0,1,.249-.256.5.5,0,0,1,.305-.106.375.375,0,0,1,.256.075.823.823,0,0,1,.193.218,1.173,1.173,0,0,1,.131.312,2.314,2.314,0,0,1,.069.349,2.057,2.057,0,0,1,.006.337,1,1,0,0,1-.062.268,1.012,1.012,0,0,1-.156.305,1.177,1.177,0,0,1-.5.393,1.379,1.379,0,0,1-.312.094q.028.075.075.187c.031.075.069.143.106.218a1.661,1.661,0,0,0,.131.206.536.536,0,0,0,.15.143,1.061,1.061,0,0,1,.025-.318,1,1,0,0,1,.118-.293,1.185,1.185,0,0,1,.187-.249,1.21,1.21,0,0,1,.505-.318.876.876,0,0,1,.28-.044.213.213,0,0,1,.168.075.272.272,0,0,1,.069.181.26.26,0,0,1-.069.181.223.223,0,0,1-.168.075h-.019a.55.55,0,0,0-.256.075.816.816,0,0,0-.212.175.8.8,0,0,0-.15.243.842.842,0,0,0-.068.281.757.757,0,0,0,.037.287.653.653,0,0,0,.162.262l-.306.4a2.667,2.667,0,0,1-.455-.368,3.1,3.1,0,0,1-.355-.411,3.064,3.064,0,0,1-.436-.873l-.019-.062h-.362a.214.214,0,0,1-.168-.075A.268.268,0,0,1,510.6,399.312Zm1.477-1.583a.253.253,0,0,0-.137.075.787.787,0,0,0-.125.175,2.193,2.193,0,0,0-.106.243c-.031.087-.056.181-.081.274a2.175,2.175,0,0,0-.044.28,1.56,1.56,0,0,0,0,.243.484.484,0,0,0,.287-.044.559.559,0,0,0,.218-.181.966.966,0,0,0,.143-.262,1,1,0,0,0,.05-.3.751.751,0,0,0-.05-.287A.457.457,0,0,0,512.077,397.728Z" transform="translate(-479.108 -394.755)" fill="#fff"/>
                <path id="Path_187" data-name="Path 187" d="M549.7,402.889a.272.272,0,0,1,.069-.181.213.213,0,0,1,.168-.075h0a.8.8,0,0,0,.343-.069.814.814,0,0,0,.243-.193,1.342,1.342,0,0,0,.181-.268c.05-.1.1-.206.15-.312s.081-.181.125-.268a2.172,2.172,0,0,1,.143-.237.642.642,0,0,1,.53-.287.743.743,0,0,1,.611.318,1.178,1.178,0,0,1,.231.63,1.311,1.311,0,0,1,.006.349,1.759,1.759,0,0,1-.068.324,1.011,1.011,0,0,1-.187.312.612.612,0,0,1-.268.168.9.9,0,0,1-.611-.069,2.54,2.54,0,0,1-.493-.3l-.025.025a1.182,1.182,0,0,1-.916.4h0a.213.213,0,0,1-.168-.075A.373.373,0,0,1,549.7,402.889Zm1.459-.592a1.936,1.936,0,0,0,.405.256.469.469,0,0,0,.305.044.143.143,0,0,0,.081-.062.466.466,0,0,0,.069-.125.711.711,0,0,0,.037-.181.862.862,0,0,0-.006-.218.516.516,0,0,0-.013-.062c-.006-.031-.019-.062-.025-.1a.439.439,0,0,0-.05-.112.613.613,0,0,0-.068-.106.438.438,0,0,0-.1-.081.29.29,0,0,0-.131-.031.186.186,0,0,0-.094.031.321.321,0,0,0-.087.094,1.154,1.154,0,0,0-.087.156c-.031.062-.069.137-.106.224Z" transform="translate(-515.771 -398.332)" fill="#fff"/>
                <path id="Path_188" data-name="Path 188" d="M634.9,392.087a1.032,1.032,0,0,1-.873-.324.586.586,0,0,1-.094-.187.737.737,0,0,1-.031-.2.854.854,0,0,1,.012-.181,1.356,1.356,0,0,1,.037-.137,1.254,1.254,0,0,1,.156-.268,1.659,1.659,0,0,1,.193-.218,1.859,1.859,0,0,1,.212-.174c.075-.05.143-.094.212-.137s.131-.069.193-.1.112-.05.162-.069c-.012-.131-.025-.231-.025-.293s-.006-.094-.006-.094l.474-.106h0c0,.019.006.05.013.094s.012.106.019.175.012.137.019.212.013.143.019.212.013.125.019.174a.538.538,0,0,0,.013.094c.025.224.05.405.069.549s.037.256.056.343.031.143.037.181a.333.333,0,0,0,.025.069.424.424,0,0,0,.069.118.328.328,0,0,0,.087.075.332.332,0,0,0,.118.037,1.036,1.036,0,0,0,.15.012.213.213,0,0,1,.168.075.244.244,0,0,1,.069.181.258.258,0,0,1-.019.1.35.35,0,0,1-.05.081.213.213,0,0,1-.075.056.249.249,0,0,1-.094.019,1.468,1.468,0,0,1-.218-.019.812.812,0,0,1-.256-.081.78.78,0,0,1-.318-.318,2.493,2.493,0,0,1-.281.037A1.969,1.969,0,0,1,634.9,392.087Zm.237-1.465c-.037.019-.087.037-.137.062s-.106.056-.168.087-.112.069-.168.106a1,1,0,0,0-.15.125.569.569,0,0,0-.106.143.37.37,0,0,0-.044.162.194.194,0,0,0,.05.137.278.278,0,0,0,.131.081.711.711,0,0,0,.181.037,1.07,1.07,0,0,0,.2.006,1.893,1.893,0,0,0,.193-.012.915.915,0,0,0,.156-.025c-.019-.1-.037-.224-.062-.368S635.159,390.847,635.134,390.622Z" transform="translate(-594.722 -387.643)" fill="#fff"/>
                <path id="Path_189" data-name="Path 189" d="M667,379.729a.26.26,0,0,1,.069-.181.213.213,0,0,1,.168-.075h.249c.087.006.168,0,.249,0a1.13,1.13,0,0,0,.218-.037.429.429,0,0,0,.175-.094.467.467,0,0,0,.125-.175.619.619,0,0,0,.025-.318,2.487,2.487,0,0,0-.1-.486c-.019-.056-.037-.118-.062-.181s-.044-.125-.069-.181a1.771,1.771,0,0,0-.081-.193l.43-.231a.491.491,0,0,0,.025.056c.012.031.037.081.056.137s.05.125.075.2a2.258,2.258,0,0,1,.075.243,1.818,1.818,0,0,1,.056,1.166.922.922,0,0,1-.611.555,1.317,1.317,0,0,1-.256.05c-.081.006-.162.006-.237.006h-.355a.213.213,0,0,1-.168-.075A.367.367,0,0,1,667,379.729Zm1.453-3-.393.424-.4-.43.393-.424Z" transform="translate(-625.759 -375.172)" fill="#fff"/>
                <path id="Path_190" data-name="Path 190" d="M706.866,376.234a1.371,1.371,0,0,1-.455-.069.8.8,0,0,1-.324-.206.614.614,0,0,1-.125-.187.868.868,0,0,1-.062-.193c-.012-.062-.019-.125-.025-.181v-.293c0-.062,0-.143.006-.249v-.8c0-.15,0-.305-.006-.468s-.006-.318-.012-.468-.012-.293-.025-.418-.025-.231-.037-.312l.474-.093c.012.087.025.2.037.324s.019.268.025.418.013.312.019.474.006.324.006.48v1.259a1.924,1.924,0,0,0,.006.2.239.239,0,0,0,.068.143.549.549,0,0,0,.411.125h.025a.25.25,0,0,1,.093.019.17.17,0,0,1,.075.056.22.22,0,0,1,.05.081.273.273,0,0,1-.05.281A.246.246,0,0,1,706.866,376.234Z" transform="translate(-662.14 -371.421)" fill="#fff"/>
                <path id="Path_191" data-name="Path 191" d="M718.5,427.456a.257.257,0,0,1,.019-.1.275.275,0,0,1,.137-.137.25.25,0,0,1,.094-.019h2.232a.25.25,0,0,1,.094.019.17.17,0,0,1,.075.056.219.219,0,0,1,.05.081.274.274,0,0,1-.05.281.232.232,0,0,1-.168.075h-2.232a.251.251,0,0,1-.094-.019.275.275,0,0,1-.137-.137A.257.257,0,0,1,718.5,427.456Z" transform="translate(-674.048 -422.899)" fill="#fff"/>
                <path id="Path_192" data-name="Path 192" d="M754.3,402.889a.271.271,0,0,1,.069-.181.213.213,0,0,1,.168-.075h0a.8.8,0,0,0,.343-.069.814.814,0,0,0,.243-.193,1.348,1.348,0,0,0,.181-.268c.05-.1.1-.206.15-.312s.081-.181.125-.268a2.172,2.172,0,0,1,.143-.237.642.642,0,0,1,.53-.287.743.743,0,0,1,.611.318,1.179,1.179,0,0,1,.231.63,1.321,1.321,0,0,1,.006.349,1.749,1.749,0,0,1-.069.324,1.011,1.011,0,0,1-.187.312.612.612,0,0,1-.268.168.9.9,0,0,1-.611-.069,2.54,2.54,0,0,1-.492-.3l-.025.025a1.182,1.182,0,0,1-.916.4h0a.214.214,0,0,1-.168-.075A.374.374,0,0,1,754.3,402.889Zm1.459-.592a1.934,1.934,0,0,0,.405.256.469.469,0,0,0,.305.044.144.144,0,0,0,.081-.062.471.471,0,0,0,.068-.125.708.708,0,0,0,.037-.181.862.862,0,0,0-.006-.218.537.537,0,0,0-.012-.062c-.006-.031-.019-.062-.025-.1a.445.445,0,0,0-.05-.112c-.025-.037-.044-.075-.069-.106a.436.436,0,0,0-.1-.081.29.29,0,0,0-.131-.031.185.185,0,0,0-.093.031.321.321,0,0,0-.087.094,1.168,1.168,0,0,0-.087.156c-.031.062-.069.137-.106.224Z" transform="translate(-707.617 -398.332)" fill="#fff"/>
                <path id="Path_193" data-name="Path 193" d="M811.666,376.234a1.37,1.37,0,0,1-.455-.069.8.8,0,0,1-.324-.206.614.614,0,0,1-.125-.187.868.868,0,0,1-.062-.193c-.013-.062-.019-.125-.025-.181v-.293c0-.062,0-.143.006-.249v-.8c0-.15,0-.305-.006-.468s-.006-.318-.013-.468-.012-.293-.025-.418-.025-.231-.037-.312l.474-.093c.012.087.025.2.037.324s.019.268.025.418.012.312.019.474.006.324.006.48v1.259a1.943,1.943,0,0,0,.006.2.239.239,0,0,0,.069.143.549.549,0,0,0,.411.125h.025a.25.25,0,0,1,.093.019.17.17,0,0,1,.075.056.221.221,0,0,1,.05.081.274.274,0,0,1-.05.281A.236.236,0,0,1,811.666,376.234Z" transform="translate(-760.407 -371.421)" fill="#fff"/>
                <path id="Path_194" data-name="Path 194" d="M823.3,427.456a.26.26,0,0,1,.019-.1.275.275,0,0,1,.137-.137.25.25,0,0,1,.093-.019h2.232a.25.25,0,0,1,.094.019.17.17,0,0,1,.075.056.219.219,0,0,1,.05.081.257.257,0,0,1,.019.1.26.26,0,0,1-.069.181.233.233,0,0,1-.168.075h-2.232a.25.25,0,0,1-.093-.019.276.276,0,0,1-.137-.137A.26.26,0,0,1,823.3,427.456Z" transform="translate(-772.315 -422.899)" fill="#fff"/>
                <path id="Path_195" data-name="Path 195" d="M859.3,399.513a.249.249,0,0,1,.019-.094.219.219,0,0,1,.05-.081.193.193,0,0,1,.069-.056.2.2,0,0,1,.087-.025.5.5,0,0,0,.256-.062.717.717,0,0,0,.206-.162,1.242,1.242,0,0,0,.156-.231,2.793,2.793,0,0,0,.118-.274,1.814,1.814,0,0,0,.081-.287c.019-.093.044-.187.056-.274l.48.112c-.013.044-.031.094-.05.162s-.037.137-.056.212-.031.156-.044.231a1.408,1.408,0,0,0-.019.218.935.935,0,0,0,.012.137.384.384,0,0,0,.044.118.171.171,0,0,0,.081.081.254.254,0,0,0,.131.031.373.373,0,0,0,.224-.075.754.754,0,0,0,.175-.193,1.537,1.537,0,0,0,.131-.268,2.759,2.759,0,0,0,.094-.3c.025-.1.05-.2.069-.3s.031-.181.044-.249l.468.094c-.019.112-.031.212-.044.293s-.025.168-.031.256a1.761,1.761,0,0,0-.012.243,1.649,1.649,0,0,0,.012.181.571.571,0,0,0,.044.156.371.371,0,0,0,.081.112.2.2,0,0,0,.125.05.467.467,0,0,0,.187,0,.423.423,0,0,0,.118-.05.2.2,0,0,0,.062-.062c.013-.025.025-.037.025-.05h0a.411.411,0,0,0,.05-.131,1.228,1.228,0,0,0,.012-.156,1.463,1.463,0,0,0-.037-.318c-.025-.112-.056-.224-.087-.337a2.885,2.885,0,0,0-.112-.305q-.056-.14-.094-.224l.424-.237c.006.019.025.05.044.1a1.764,1.764,0,0,1,.075.181q.047.112.094.243c.031.087.062.187.087.287a2.423,2.423,0,0,1,.062.305,1.738,1.738,0,0,1,.025.305,1.358,1.358,0,0,1-.056.405.9.9,0,0,1-.175.312.765.765,0,0,1-.293.2,1.184,1.184,0,0,1-.411.069.648.648,0,0,1-.362-.118.9.9,0,0,1-.281-.281,1.1,1.1,0,0,1-.33.287.808.808,0,0,1-.393.106.643.643,0,0,1-.187-.025.919.919,0,0,1-.181-.075.6.6,0,0,1-.156-.125.5.5,0,0,1-.112-.168,1.2,1.2,0,0,1-.33.262.966.966,0,0,1-.443.1h-.037a.2.2,0,0,1-.087-.025.2.2,0,0,1-.069-.056.357.357,0,0,1-.05-.081C859.325,399.576,859.3,399.551,859.3,399.513Z" transform="translate(-806.071 -394.956)" fill="#fff"/>
            </g>
        </g>
    </g>
</svg>
