<svg xmlns="http://www.w3.org/2000/svg" width="220" height="67.271" viewBox="0 0 220 67.271"><g transform="translate(-1508 -38.729)"><g transform="translate(822.355 -1380)"><g transform="translate(829.92 1418.729)"><path d="M731.244,449.373l-.436.436a9.1,9.1,0,0,0-.337,12.921l3.625,3.625a10.317,10.317,0,0,1,1.686,12.452l5.383-5.383-.363-.363c.018.018.188.038.206.057a19.978,19.978,0,0,1,3.267,23.764l15.818-15.818.985-.985.436-.436a9.3,9.3,0,0,0-.217-13.09l-.075-.075-.436-.436-16.813-16.813A8.864,8.864,0,0,0,731.244,449.373Z" transform="translate(-688.379 -446.604)" fill="#59b283"/><path d="M687.9,520.517l.436-.436a8.925,8.925,0,0,0,.009-12.781l-3.625-3.626c-3.484-3.484-3.551-8.656-1.358-12.592l-5.617,5.617.269.269c-.018-.018-.024-.109-.042-.127a20.049,20.049,0,0,1-3.1-23.834l-15.818,15.818-.985.985-.436.436a9.468,9.468,0,0,0-.11,13.231l.075.075.436.436L674.841,520.8A9.26,9.26,0,0,0,687.9,520.517Z" transform="translate(-654.877 -458.712)" fill="#4ea0a0"/><path d="M741.014,475.39l-.021.02h0l-10.331,10.332a9.038,9.038,0,0,0-.121,12.876l.436.436a9.414,9.414,0,0,0,13.186.189l16.813-16.813.436-.436.075-.075a9.353,9.353,0,0,0-.24-13.136l-.436-.436-.985-.985L744.01,451.545A19.765,19.765,0,0,1,741.014,475.39Z" transform="translate(-688.364 -448.87)" fill="#68d9a0"/><path d="M678.011,494.665c.018-.018.123-.131.141-.149h0l10.331-10.332a8.874,8.874,0,0,0-.207-12.737l-.436-.436a9.023,9.023,0,0,0-12.858-.329L658.168,487.5l-.436.436-.075.075a9.523,9.523,0,0,0-.088,13.276l.436.436.985.985,15.818,15.818A20.1,20.1,0,0,1,678.011,494.665Z" transform="translate(-654.896 -456.483)" fill="#5bc5c9"/></g></g><g transform="translate(1502.732 22.298)"><path d="M333.174,92.679a6.917,6.917,0,0,0-3.886,6.4c-.026,3.807,0,7.614-.013,11.422,0,4.545-1.831,7.9-6.257,9.551-.619.224-1.054.738-.777,1.3.725,1.475,1.594,2.872,2.4,4.295h.606c.263-.132.527-.277.79-.4,5.309-2.345,8.537-6.455,8.919-12.172.422-6.416.158-12.884.171-19.326C335.136,92.508,334.306,92.06,333.174,92.679Z" transform="translate(-274.998 -61.943)" fill="#606060"/><path d="M367.711,21.528a1.142,1.142,0,0,0-1.831-.013c-.869.883-1.739,1.752-2.608,2.635a1.2,1.2,0,0,0-.04,1.857c.843.9,1.726,1.778,2.608,2.635a4.477,4.477,0,0,0,.909.54,2.856,2.856,0,0,0,.777-.369c1.014-.975,2.029-1.937,2.977-2.977a1.086,1.086,0,0,0-.119-1.62C369.5,23.319,368.606,22.424,367.711,21.528Z" transform="translate(-310.3)" fill="#606060"/><path d="M852.106,90.043c0-1.265-.83-1.7-1.963-1.08a6.919,6.919,0,0,0-3.886,6.323h0v3.728h0v3.6c0,4.044-.026,2.925.026,6.956a1.947,1.947,0,0,0,.619,1.515,2.072,2.072,0,0,0,1.633-.263,6.789,6.789,0,0,0,3.583-6.165c.013-3.6.013-2.042,0-5.638h.053C852.158,96.01,852.106,93.02,852.106,90.043Z" transform="translate(-730.052 -58.714)" fill="#606060"/><path d="M47.739,50.843c0-1.265-.83-1.7-1.963-1.08a6.917,6.917,0,0,0-3.886,6.4v1.067h-.066c-.013,5.283-.013,10.42-.026,15.874a9.109,9.109,0,0,1-2.305,6.429,10.118,10.118,0,0,1-10.974,2.371,9.1,9.1,0,0,1-5.783-8.892c-.013-3.57.013-2.45-.026-6.02-.013-.79.369-1.792-.593-2.266-1.014-.5-1.752.316-2.5.83A8.272,8.272,0,0,0,16.9,69.628v5.731a37.421,37.421,0,0,0,1.186,4.084c2.042,4.927,5.9,7.628,11.013,8.734.211.053.422.145.632.211H34.75c.211-.066.422-.158.646-.211,5.889-1.265,10.065-4.558,11.659-10.5a26.882,26.882,0,0,0,.659-6.442c.053-2.793.053-7.219.053-11.448h.053C47.792,56.81,47.739,53.82,47.739,50.843Z" transform="translate(-9.957 -24.678)" fill="#606060"/><path d="M297.416,56.073h-.079c-.013-1.739-.04-3.491-.026-5.23,0-1.265-.83-1.7-1.963-1.08a6.917,6.917,0,0,0-3.886,6.4c-.013,1.212,0,2.424,0,3.649h.013V75.57c0,1.594.9,2.095,2.279,1.265a7.088,7.088,0,0,0,3.662-6.363C297.429,67.112,297.416,60.907,297.416,56.073Z" transform="translate(-248.344 -24.678)" fill="#606060"/><path d="M487.007,88.54c-4.571-.026-3.741,0-8.313,0-1.541,0-1.8.263-1.8,1.8v13.134c0,1.449-.158,1.594-1.62,1.594h-4.69V90.66c0-1.554-.856-2.042-2.2-1.278a6.968,6.968,0,0,0-3.715,6.323c-.053,2.674-.053,5.348-.066,8.023-.013,1.186-.158,1.357-1.317,1.357-2.766.013-.329.013-3.1-.013a5.781,5.781,0,0,1-1.581-.2,5.454,5.454,0,0,1,.013-10.262,6.911,6.911,0,0,0,5.968-3.873,1.732,1.732,0,0,0,.263-1.054c.079-.725-.4-1.186-1.357-1.186-1.555,0-3.109.04-4.663.026h-.29v.026a9.007,9.007,0,0,0-4.4,1.647,11.472,11.472,0,0,0-4.677,12.383c1.12,4.413,3.807,7.351,8.326,8.168a10.8,10.8,0,0,0,1.568.29c1.515.04,3.03.013,4.65.013a8.881,8.881,0,0,1-5.138,5.441c-1.581.645-1.7.988-.909,2.529.329.646.606,1.331.988,1.963a10.629,10.629,0,0,0,1.028,1.3h.606c.105-.066.211-.158.316-.211a14.6,14.6,0,0,0,9.169-10.816c.066-.277.184-.54.211-.632a10.276,10.276,0,0,0,1.7.4,14.439,14.439,0,0,0,2.5-.013,3.376,3.376,0,0,0,.711-.132v-.053h.066a3.16,3.16,0,0,0,.843-.422c1.95-1.462,3.82-3.03,5.744-4.492a2.084,2.084,0,0,0,.9-1.871c-.026-2.74-.013-5.48-.013-8.22,0-1.133.3-1.436,1.423-1.436a16.365,16.365,0,0,1,2.9.053,6.613,6.613,0,0,1,3.214,1.133c1.871,1.291,2.411,3.847,1.594,6.244a4.827,4.827,0,0,1-4.782,3.267c-2.674.026.066,0-2.6.013-1.317.013-1.818.83-1.238,2a6.2,6.2,0,0,0,4.123,3.531c.342.079.606.158.83.211h1.647a9.708,9.708,0,0,1,1.37-.58c6.165-2.24,8.392-9.551,5.915-15.268C495.254,90.595,491.71,88.566,487.007,88.54Z" transform="translate(-385.228 -58.554)" fill="#606060"/><path d="M824.669,21.933c-.422-1.067-2.49.145-4.927.3-.606-.145-1.383-.316-2.45-.527a7.112,7.112,0,0,0-6.982,2.266,2.8,2.8,0,0,0-.527.777c-.593.751-1.344,1.95-.988,2.859.5,1.265,3.451-.58,6.495-.25.343.079.619.132,1.028.211.026,0,.053.013.092.013s.053.013.079.026a.7.7,0,0,0,.342.053,6.816,6.816,0,0,0,6.178-2.147l.066-.013C823.061,25.49,825.235,23.356,824.669,21.933Z" transform="translate(-697.451 -0.379)" fill="#606060"/><text transform="translate(127.268 76.702)" fill="#b7b7b7" font-size="12" font-family="IRANSans"><tspan x="-121.497" y="0">مهــارت آمــوزی آنــلاین</tspan></text></g></g></svg>