<svg xmlns="http://www.w3.org/2000/svg" width="47.54" height="33.266" viewBox="0 0 47.54 33.266">
  <path id="partner" d="M47.54,0H0V16.713H3.326a4.176,4.176,0,0,0,3.1,6.7A4.171,4.171,0,0,0,10.36,27.35a4.178,4.178,0,0,0,6.245,3.4,4.179,4.179,0,0,0,6.789,1.295l.377-.376.016.016a4.153,4.153,0,0,0,5.86,0l.041-.041a4.131,4.131,0,0,0,.822-1.162,4.178,4.178,0,0,0,6.653-3.131A4.169,4.169,0,0,0,41.1,23.412a4.178,4.178,0,0,0,3.1-6.7H47.54ZM5.667,20.226a1.4,1.4,0,0,1,0-1.97l1.543-1.543h1.6L9.98,17.882,7.637,20.226A1.392,1.392,0,0,1,5.667,20.226Zm3.939,3.939a1.394,1.394,0,0,1,0-1.969l2.346-2.346,1.969,1.97-2.346,2.346A1.4,1.4,0,0,1,9.606,24.165ZM15.515,28.1a1.393,1.393,0,0,1-1.969-1.969l2.346-2.346,1.97,1.97Zm5.909,1.97a1.393,1.393,0,0,1-1.973-1.966l.38-.38L21.8,29.7Zm20.431-9.848a1.392,1.392,0,0,1-1.97,0l-7.64-7.64-1.97,1.969,7.64,7.64a1.393,1.393,0,1,1-1.97,1.97l-7.64-7.64-1.97,1.969,7.64,7.64a1.393,1.393,0,0,1-1.97,1.97l-7.64-7.64-1.97,1.97,5.319,5.319a1.35,1.35,0,0,1,.007,1.915l-.043.042a1.364,1.364,0,0,1-1.924,0c-7.288-7.28-8.579-8.6-15.8-15.786H2.786V2.786h12.1L8.621,9.055l2.955,2.955a4.176,4.176,0,0,0,5.909,0l3.393-3.393a11.95,11.95,0,0,0,12.3.961l8.68,8.679A1.392,1.392,0,0,1,41.855,20.226Zm2.9-6.3H41.466L33.615,6.077l-.94.588a9.2,9.2,0,0,1-10.97-.952l-.982-.881-5.208,5.208a1.392,1.392,0,0,1-1.969,0l-.985-.985L18.83,2.786H44.755Zm0,0" fill="#757575"/>
</svg>
