<svg xmlns="http://www.w3.org/2000/svg" width="70.359" height="70.36" viewBox="0 0 70.359 70.36">
  <path id="Path_204" data-name="Path 204" d="M65.643,17.521a35.032,35.032,0,0,0-12.8-12.8A34.412,34.412,0,0,0,35.181,0,34.413,34.413,0,0,0,17.522,4.718a35.023,35.023,0,0,0-12.8,12.8A34.411,34.411,0,0,0,0,35.18,34.42,34.42,0,0,0,4.718,52.839a35.041,35.041,0,0,0,12.8,12.8A34.415,34.415,0,0,0,35.18,70.36a34.416,34.416,0,0,0,17.659-4.718,35.023,35.023,0,0,0,12.8-12.8A34.42,34.42,0,0,0,70.359,35.18,34.421,34.421,0,0,0,65.643,17.521ZM52.77,37.7,27.851,52.357a2.805,2.805,0,0,1-1.466.412A3.254,3.254,0,0,1,24.92,52.4a2.8,2.8,0,0,1-1.466-2.565V20.522a2.805,2.805,0,0,1,1.466-2.565A2.745,2.745,0,0,1,27.851,18L52.77,32.66a2.9,2.9,0,0,1,0,5.038Z" fill="#fff"/>
</svg>
