<svg xmlns="http://www.w3.org/2000/svg" width="113.364" height="113.349" viewBox="0 0 113.364 113.349">
  <g id="Group_1277" data-name="Group 1277" transform="translate(0 -0.002)">
    <path id="Path_315" data-name="Path 315" d="M40.595,27.413,17.055,10.3a2.838,2.838,0,0,0-4.508,2.29V46.8a2.83,2.83,0,0,0,1.55,2.531,2.859,2.859,0,0,0,1.29.306,2.821,2.821,0,0,0,1.667-.551l23.54-17.1a2.816,2.816,0,0,0,0-4.58Z" transform="translate(34.785 27.047)" fill="#fff"/>
    <path id="Path_316" data-name="Path 316" d="M56.684,0a56.674,56.674,0,1,0,56.68,56.684A56.677,56.677,0,0,0,56.684,0Zm0,103.891a47.215,47.215,0,1,1,47.208-47.208A47.208,47.208,0,0,1,56.684,103.893Z" transform="translate(0 0)" fill="#fff"/>
  </g>
</svg>
