<svg xmlns="http://www.w3.org/2000/svg" width="27.497" height="28.445" viewBox="0 0 27.497 28.445">
  <g id="printer_1_" data-name="printer (1)" transform="translate(-8.15)">
    <g id="Group_1192" data-name="Group 1192" transform="translate(8.15)">
      <path id="Path_246" data-name="Path 246" d="M10.5,22.272h2.938V26.95a1.5,1.5,0,0,0,1.5,1.5H28.863a1.5,1.5,0,0,0,1.5-1.5V22.272H33.3a2.351,2.351,0,0,0,2.351-2.351V9.4A2.351,2.351,0,0,0,33.3,7.046H30.352V1.5a1.5,1.5,0,0,0-1.5-1.5H14.928a1.5,1.5,0,0,0-1.5,1.5V7.052H10.5A2.351,2.351,0,0,0,8.15,9.4V19.922A2.351,2.351,0,0,0,10.5,22.272Zm18.8,4.672a.436.436,0,0,1-.436.436H14.934a.436.436,0,0,1-.436-.436V15.186H29.305ZM14.492,1.5a.436.436,0,0,1,.436-.436H28.857a.436.436,0,0,1,.436.436V7.052h-14.8S14.492,1.5,14.492,1.5ZM9.209,9.4A1.292,1.292,0,0,1,10.5,8.1H33.3A1.292,1.292,0,0,1,34.588,9.4V19.922A1.292,1.292,0,0,1,33.3,21.213H30.358V14.662a.531.531,0,0,0-.529-.529H13.968a.531.531,0,0,0-.529.529v6.557H10.5a1.292,1.292,0,0,1-1.292-1.292S9.209,9.4,9.209,9.4Z" transform="translate(-8.15)" fill="#9f9f9f"/>
      <path id="Path_247" data-name="Path 247" d="M69.179,182.759a.529.529,0,0,0,.372-.157.523.523,0,0,0,.151-.372.549.549,0,0,0-.151-.372.527.527,0,1,0-.372.9Z" transform="translate(-65.13 -171.128)" fill="#9f9f9f"/>
      <path id="Path_248" data-name="Path 248" d="M173.848,356.8h-8.169a.529.529,0,1,0,0,1.059h8.175a.529.529,0,1,0-.006-1.059Z" transform="translate(-156.015 -336.041)" fill="#9f9f9f"/>
      <path id="Path_249" data-name="Path 249" d="M173.848,413h-8.169a.529.529,0,1,0,0,1.059h8.175a.529.529,0,1,0-.006-1.059Z" transform="translate(-156.015 -388.971)" fill="#9f9f9f"/>
      <path id="Path_250" data-name="Path 250" d="M173.848,300.6h-8.169a.529.529,0,1,0,0,1.059h8.175a.529.529,0,1,0-.006-1.059Z" transform="translate(-156.015 -283.11)" fill="#9f9f9f"/>
    </g>
  </g>
</svg>
