<svg xmlns="http://www.w3.org/2000/svg" width="40.797" height="40.797" viewBox="0 0 40.797 40.797">
  <g id="ruler" transform="translate(0 -0.5)" fill="#757575">
    <path id="Path_224" data-name="Path 224" d="M339.933,219.217a.8.8,0,1,0-1.127,0A.8.8,0,0,0,339.933,219.217Zm0,0" transform="translate(-311.595 -200.037)" fill="#757575"/>
    <path id="Path_225" data-name="Path 225" d="M.8,41.3H40a.8.8,0,0,0,.563-1.36L1.36.733A.8.8,0,0,0,0,1.3V40.5a.8.8,0,0,0,.8.8Zm.8-38.076L8,9.63,6.312,11.32a.8.8,0,0,0,1.127,1.127l1.691-1.69,3.381,3.381-1.69,1.69a.8.8,0,1,0,1.127,1.127l1.691-1.69,3.38,3.381-1.69,1.69a.8.8,0,0,0,1.127,1.127l1.69-1.69,3.381,3.381-1.69,1.69a.8.8,0,0,0,1.127,1.127l1.69-1.69,3.381,3.38-1.69,1.691a.8.8,0,1,0,1.127,1.127l1.69-1.69,3.381,3.381-1.69,1.691a.8.8,0,0,0,1.127,1.127l1.69-1.691L38.076,39.7H1.594Zm0,0" transform="translate(0 0)" fill="#757575"/>
    <path id="Path_226" data-name="Path 226" d="M87.36,205.723a.8.8,0,0,0-1.36.563V222.3a.8.8,0,0,0,.8.8h16.017a.8.8,0,0,0,.564-1.36Zm.233,15.784v-13.3l13.3,13.3Zm0,0" transform="translate(-79.147 -188.656)" fill="#757575"/>
    <path id="Path_227" data-name="Path 227" d="M271.474,151.89a.8.8,0,1,0,1.127-1.127l-3.381-3.381a.8.8,0,0,0-1.127,1.127Zm0,0" transform="translate(-246.516 -134.964)" fill="#757575"/>
    <path id="Path_228" data-name="Path 228" d="M123.076,8.621l22.367,22.367a2.389,2.389,0,0,0,3.381,0l2.254-2.253a2.4,2.4,0,0,0,0-3.381L128.711,2.986a.794.794,0,0,0-.312-.192L121.638.54a.8.8,0,0,0-1.008,1.008l2.254,6.761A.8.8,0,0,0,123.076,8.621ZM149.95,26.48a.8.8,0,0,1,0,1.127L147.7,29.861a.8.8,0,0,1-1.127,0l-1.727-1.727,3.381-3.381ZM147.1,23.626l-3.381,3.381-1.127-1.127,3.381-3.38ZM128.675,5.2l16.169,16.169-3.381,3.381L125.294,8.585Zm-1.212-1.042-3.212,3.211-1.605-4.817Zm0,0" transform="translate(-110.981 0)" fill="#757575"/>
  </g>
</svg>
