<svg xmlns="http://www.w3.org/2000/svg" width="82.348" height="82.083" viewBox="0 0 82.348 82.083">
    <g id="sketch" transform="translate(0 -0.82)">
        <g id="Group_1224" data-name="Group 1224" transform="translate(57.984 58.709)">
            <g id="Group_1223" data-name="Group 1223">
                <path id="Path_255" data-name="Path 255" d="M375.4,360.841a1.209,1.209,0,0,0-1.317.262l-13.209,13.209a1.209,1.209,0,0,0,.855,2.063h13.209a1.209,1.209,0,0,0,1.209-1.209V361.958A1.209,1.209,0,0,0,375.4,360.841Zm-10.754,13.117,9.082-9.082v9.082Z" transform="translate(-360.517 -360.749)"/>
            </g>
        </g>
        <g id="Group_1226" data-name="Group 1226" transform="translate(0 0.82)">
            <g id="Group_1225" data-name="Group 1225">
                <path id="Path_256" data-name="Path 256" d="M81.6,39.428a1.209,1.209,0,0,0-1.317.262l-3.62,3.62V18.7a1.209,1.209,0,0,0-1.209-1.209H66.169l3.371-3.371v0l3.248-3.248a3.686,3.686,0,0,0,0-5.212L69.033,1.9a3.686,3.686,0,0,0-5.212,0l-3.25,3.25L56.645,9.076l-8.412,8.412H10.715V5.531A1.209,1.209,0,0,0,9.506,4.322,9.517,9.517,0,0,0,0,13.829V65.165a1.212,1.212,0,0,0,.029.26,9.155,9.155,0,0,0,9.127,8.459H46.09L39.134,80.84a1.209,1.209,0,0,0,.855,2.063h41.15a1.209,1.209,0,0,0,1.209-1.209V40.545A1.209,1.209,0,0,0,81.6,39.428ZM65.531,3.609a1.269,1.269,0,0,1,1.793,0L71.08,7.365a1.27,1.27,0,0,1,0,1.793l-2.395,2.4L63.136,6Zm-4.1,4.1,5.55,5.549L64.758,15.48,59.209,9.931Zm18.5,46.413H77.7a1.209,1.209,0,0,0,0,2.417h2.23v3.642H77.7a1.209,1.209,0,0,0,0,2.417h2.23v3.642H77.7a1.209,1.209,0,0,0,0,2.417h2.23V72.3H77.7a1.209,1.209,0,0,0,0,2.417h2.23v5.765H42.906L55.115,68.278a1.209,1.209,0,0,0-1.71-1.709l-4.9,4.9H9.156a6.7,6.7,0,0,1-6.733-6.521q.01-.345.053-.683v0q.02-.16.048-.319l.006-.036q.025-.142.057-.282l.018-.078q.028-.119.059-.236c.012-.042.024-.084.036-.127.018-.061.036-.123.055-.183s.04-.121.061-.181c.015-.042.029-.084.045-.126.029-.079.061-.157.093-.235l.028-.067c.041-.1.084-.192.13-.286l.006-.012a7.115,7.115,0,0,1,4.946-3.868l.018,0c.1-.02.2-.038.3-.054l.051-.009c.092-.014.185-.025.277-.035l.078-.009c.09-.009.18-.015.27-.021l.086-.006q.178-.009.358-.009a1.209,1.209,0,0,0,1.209-1.209V48.1a1.209,1.209,0,1,0-2.417,0v7.631a9.44,9.44,0,0,0-5.429,2.627c-.157.153-.306.313-.451.475V13.829A7.1,7.1,0,0,1,8.3,6.843V43.269h0a1.209,1.209,0,1,0,2.417,0h0V19.906h35.1l-6.682,6.682A1.209,1.209,0,0,0,40.843,28.3l8.745-8.745h0L57.5,11.64l5.549,5.55-.651.651h0L38.025,42.214l-5.549-5.549,4.8-4.8a1.209,1.209,0,1,0-1.709-1.709l-5.659,5.658a1.213,1.213,0,0,0-.085.1c-.009.011-.017.023-.025.034s-.034.046-.049.069l-.025.042c-.013.023-.026.045-.038.069s-.015.03-.022.046-.021.048-.03.072c0,.009-.007.017-.01.025l-2.355,6.671-1.605,4.548a1.222,1.222,0,0,0-.048.184H21.6a1.209,1.209,0,0,0,0,2.417H55.071a1.209,1.209,0,0,0,0-2.417H31.056l7.371-2.6.018-.008c.029-.011.057-.023.085-.035L38.563,45c.029-.014.057-.03.085-.047l.027-.016c.029-.019.057-.039.085-.061l.021-.015a1.214,1.214,0,0,0,.1-.087L63.751,19.906h10.5V45.727L56.958,63.016a1.209,1.209,0,0,0,0,1.709,1.234,1.234,0,0,0,.092.083,1.208,1.208,0,0,0,1.618-.083h0L79.93,43.462Zm-44.116-10.7-3.462,1.222-2.307-2.307,1.222-3.462Z" transform="translate(0 -0.82)"/>
            </g>
        </g>
    </g>
</svg>
