<svg xmlns="http://www.w3.org/2000/svg" width="29.563" height="25.982" viewBox="0 0 29.563 25.982">
  <g id="upload_1_" data-name="upload (1)" transform="translate(0 -31.009)">
    <g id="Group_1187" data-name="Group 1187" transform="translate(0 48.847)">
      <g id="Group_1186" data-name="Group 1186">
        <path id="Path_241" data-name="Path 241" d="M28.81,339.95a.753.753,0,0,0-.753.753v2.876a3.014,3.014,0,0,1-3.01,3.01H4.515a3.014,3.014,0,0,1-3.01-3.01V340.7A.753.753,0,1,0,0,340.7v2.876a4.521,4.521,0,0,0,4.515,4.515H25.047a4.521,4.521,0,0,0,4.515-4.515V340.7A.753.753,0,0,0,28.81,339.95Z" transform="translate(0 -339.95)" fill="#9f9f9f"/>
      </g>
    </g>
    <g id="Group_1189" data-name="Group 1189" transform="translate(4.569 51.812)">
      <g id="Group_1188" data-name="Group 1188" transform="translate(0 0)">
        <path id="Path_242" data-name="Path 242" d="M98.805,391.3H79.886a.753.753,0,1,0,0,1.505H98.8a.753.753,0,0,0,0-1.505Z" transform="translate(-79.133 -391.305)" fill="#9f9f9f"/>
      </g>
    </g>
    <g id="Group_1191" data-name="Group 1191" transform="translate(6.973 31.009)">
      <g id="Group_1190" data-name="Group 1190" transform="translate(0 0)">
        <path id="Path_243" data-name="Path 243" d="M136.131,37.119l-6.3-5.631a1.88,1.88,0,0,0-2.507,0l-6.3,5.631a.753.753,0,1,0,1,1.123l5.8-5.183V47.644a.753.753,0,0,0,1.505,0V33.059l5.8,5.183a.753.753,0,1,0,1-1.122Z" transform="translate(-120.766 -31.009)" fill="#9f9f9f"/>
      </g>
    </g>
  </g>
</svg>