<svg xmlns="http://www.w3.org/2000/svg" xmlns:xlink="http://www.w3.org/1999/xlink" width="1225" height="267" viewBox="0 0 1225 267"><defs><style>.a,.z{fill:none;}.a{stroke:#707070;}.b{fill:#fff;}.c{clip-path:url(#c);}.d,.e{fill:#6fa9c9;}.d{opacity:0.8;}.f{fill:#f3af59;}.g{fill:#eeeced;}.h{fill:#eb9235;}.i{fill:#4a0e0b;}.j{fill:#56130f;}.k{fill:#c62e45;}.l{fill:#a72238;}.m{fill:#f3ad4c;}.n{fill:#f9ddc2;}.o{fill:#ef8f6a;}.p{fill:#07152e;}.q{fill:#0b1a3b;}.r{fill:#e27452;}.s{fill:#861933;}.t{fill:#91c7de;}.u{fill:#48c7ae;font-size:30px;font-family:IRANYekan-Bold, IRANYekan;font-weight:700;}.v{fill:#050505;font-size:20px;font-family:IRANYekan;}.w,.x,.y{fill:#00ddb1;}.x{opacity:0.159;}.y{opacity:0.071;}.z{stroke:#14ddb6;stroke-miterlimit:10;stroke-width:3px;}.aa{filter:url(#a);}</style><filter id="a" x="0" y="0" width="1225" height="267" filterUnits="userSpaceOnUse"><feOffset dy="2" input="SourceAlpha"/><feGaussianBlur stdDeviation="3" result="b"/><feFlood flood-opacity="0.09"/><feComposite operator="in" in2="b"/><feComposite in="SourceGraphic"/></filter><clipPath id="c"><path class="a" d="M30,0H332.357a30,30,0,0,1,30,30l84.469,95.685C446.827,142.253,343.332,249,326.763,249H30A30,30,0,0,1,0,219V30A30,30,0,0,1,30,0Z" transform="translate(141 240)"/></clipPath></defs><g transform="translate(-132 -233)"><g class="aa" transform="matrix(1, 0, 0, 1, 132, 233)"><rect class="b" width="1207" height="249" rx="30" transform="translate(9 7)"/></g><g class="c" transform="translate(1)"><g transform="translate(78.518 131.745)"><path class="b" d="M1090.961,545.583V902.774l-15.413-.006-90.206-.04h-6.864l-26.453-.006h-3.411l-25.246-.011-4.316,0-35.177-.012-6.2-.005-28.685-.012h-4.285l-3.516,0-49.442-.02-8.633,0-40.371-.017-5.966,0-58.892-.026a58.524,58.524,0,0,1-8.187-.575,56.816,56.816,0,0,1-13.251-3.542,50.83,50.83,0,0,1-19.2-13.389,44.605,44.605,0,0,1-4.657-6.32c-.467-.764-.933-1.545-1.407-2.341-.134-.224-.267-.448-.4-.675-.024-.04-.049-.083-.074-.126-.161-.267-.319-.54-.477-.81-.063-.1-.123-.21-.183-.313-.21-.356-.418-.715-.628-1.08-2.3-3.981-4.657-8.3-6.994-12.935-.119-.235-.239-.474-.358-.713h0c-.038-.08-.077-.164-.119-.244-.162-.328-.327-.655-.488-.982-.147-.3-.295-.6-.442-.9-.382-.775-.758-1.557-1.137-2.349-.239-.5-.474-1-.709-1.5q-1.274-2.705-2.512-5.533c-.158-.356-.312-.712-.467-1.071-.137-.319-.277-.635-.414-.954-.119-.29-.246-.58-.369-.87-.158-.373-.316-.747-.47-1.123-.221-.525-.439-1.054-.656-1.585-.186-.451-.368-.908-.551-1.365q-1.137-2.822-2.218-5.736c-.158-.426-.316-.853-.47-1.284q-.521-1.431-1.025-2.884c-.259-.747-.519-1.5-.772-2.252q-1.59-4.722-2.983-9.646c-.077-.267-.151-.534-.224-.8-.144-.517-.284-1.034-.428-1.554q-.379-1.413-.74-2.841c-.105-.419-.214-.841-.316-1.264s-.207-.845-.309-1.27q-.248-1.03-.481-2.065c-.158-.693-.312-1.385-.46-2.08-.123-.563-.238-1.123-.354-1.689a.744.744,0,0,1-.018-.092c-.049-.224-.095-.451-.137-.675q-.163-.792-.316-1.594c-.007-.049-.018-.1-.028-.15q-.2-1.055-.389-2.117l-.021-.112q-.179-1.008-.344-2.019c-.06-.356-.116-.712-.172-1.069-.053-.33-.105-.658-.154-.988-.025-.152-.049-.3-.07-.46-.053-.341-.1-.689-.151-1.031-.039-.247-.074-.5-.109-.747q-.363-2.577-.642-5.179c-.024-.2-.046-.411-.067-.615-.042-.411-.084-.819-.123-1.229s-.081-.822-.116-1.232q-.111-1.233-.2-2.474-.047-.6-.084-1.206a.182.182,0,0,1,0-.046c-.014-.238-.031-.48-.046-.721,0-.043-.007-.089-.007-.132-.021-.374-.045-.747-.063-1.12-.011-.184-.021-.365-.028-.546-.021-.4-.038-.807-.056-1.212-.017-.443-.031-.882-.045-1.325,0-.08-.007-.164-.011-.244-.007-.247-.014-.5-.017-.744,0-.112-.007-.224-.01-.336,0-.069,0-.135,0-.2-.018-.62-.028-1.241-.035-1.864q-.01-1.077,0-2.154v-.132c0-.425.011-.848.014-1.273,0-.362.011-.723.018-1.086,0-.1,0-.2,0-.3,0-.132.007-.262.01-.394s.007-.264.01-.4.007-.259.01-.388c0-.037,0-.072,0-.109v-.072a.17.17,0,0,0,0-.043v-.083c0-.035,0-.069,0-.106,0-.06,0-.121.007-.181.014-.4.028-.8.046-1.2.011-.273.025-.546.039-.822v0c0-.055,0-.112.007-.17q.021-.495.053-.994c.01-.2.024-.408.038-.615q.027-.491.063-.982c.014-.256.035-.512.053-.764.014-.209.028-.416.046-.626.011-.118.018-.239.032-.357,0-.074.01-.146.018-.221s.01-.147.017-.221c0-.012,0-.023,0-.035,0-.04.007-.083.01-.123,0-.055.01-.107.014-.161.014-.155.028-.313.042-.471s.028-.31.042-.468c.032-.368.067-.733.105-1.1.021-.227.046-.456.07-.683.049-.46.1-.917.151-1.376.067-.577.137-1.158.211-1.735a134.843,134.843,0,0,1,4.874-22.59A136.8,136.8,0,0,1,617.446,704.5a160.226,160.226,0,0,1,24.361-32.133A203.657,203.657,0,0,1,660.221,655.6C782.09,557.176,900.307,598.582,917.2,598.582c81.422,0,61.749-45.134,151.912-52.036Q1080.552,545.666,1090.961,545.583Z" transform="translate(-602.48 -545.583)"/><path class="d" d="M1584.965,934.746v145.959q-3.115,1.076-6.279,2.157-4.255,1.458-8.576,2.928-3.024,1.024-6.075,2.054a.011.011,0,0,1-.009,0,.011.011,0,0,1-.008,0c-44.11,14.9-90.46,29.5-106.8,30.985-12.453,1.136-21.026-2.151-26.895-6.8a31.919,31.919,0,0,1-5.934-6.2c-.2-.276-.4-.551-.588-.829a36.788,36.788,0,0,1-3.473-6.3,33.284,33.284,0,0,1-2.278-7.233s.072-.113.212-.328l.3-.467c.717-1.1,2.151-3.307,4.076-6.23,1.245-1.89,2.693-4.078,4.288-6.471,6.643-9.961,15.8-23.4,23.063-32.984,5.486-7.23,9.9-12.267,11.341-11.957,4.865,1.044,18.133,24.414,23.241,20.5,3.27-2.5,13.208-36.013,22.077-60.02l0,0c1.523-4.119,3.012-7.956,4.432-11.31.023-.057.046-.112.072-.169.089-.212.181-.424.272-.636q.21-.482.422-.964.744-1.708,1.465-3.2c.132-.278.264-.551.4-.823,2.148-4.337,4.042-7.03,5.51-7.179,4.5-.459,10.222,5.868,14.823,10.532.014.014.026.023.032.028l0,0c3.221,3.261,5.885,5.7,7.193,4.411,1.767-1.739,9.737-19.607,17.955-35.124,6.56-12.388,13.28-23.281,17.126-23.261C1578.77,925.834,1581.729,929.342,1584.965,934.746Z" transform="translate(-1093.484 -816.401)"/><path class="d" d="M1658.779,1316.423v34.929l-6.279,2.065-9.444,3.109-6.456,2.123a.009.009,0,0,1-.009,0,.011.011,0,0,1-.009,0l-47.19,15.528-45.957,2.349-21.885-2.739,9.482-10.65s.86-1.666,2.186-4.107c.516-.955,1.107-2.03,1.744-3.169a133.394,133.394,0,0,1,7.222-11.717c2.278-3.152,4.193-5.005,4.9-3.62,2.188,4.306,8.389,6.445,11.306,1.853s38.379-45.8,39.251-35.569-13.718,35.7-7.882,36.863,37.932-33.274,49.239-26.233C1645.267,1321.351,1651.984,1319.122,1658.779,1316.423Z" transform="translate(-1167.298 -1086.904)"/><path class="e" d="M829.938,1260.274l-229.223-41.966a.112.112,0,0,0,0-.018q.223-3.458.586-6.94a160.832,160.832,0,0,1,3.983-22.558s24.446-5.28,36.279,0,10.758,13.744,20.081,14.9,17.776.19,24.787,6.176a40.853,40.853,0,0,0,28.209,9.573c10.679-.685,33.468-3.418,42.394,4.275s26.614,24.448,41.914,24.191,23.784,4.111,26.3,7.95C827.674,1259.574,829.809,1260.239,829.938,1260.274Z" transform="translate(-600.356 -1002.281)"/><path class="f" d="M1090.966,1330.287v90.842l-15.413-.006-90.206-.04h-6.864l-26.453-.006H948.62l-25.246-.012-4.316,0-35.177-.012-6.2-.005L849,1421.034h-4.285l-3.516,0-49.442-.02-8.633,0-40.37-.017-5.966,0-58.893-.026c-2.769,0-6.63-7.386-9.311-7.765-4.615-.654-6.322-2.531-10.505-4.215-7.478-3.011-15.708.294-20.818-5.5a44.532,44.532,0,0,1-4.657-6.311c-.467-.763-.933-1.542-1.407-2.337-.134-.224-.267-.448-.4-.675-.025-.04-.049-.083-.074-.126-.161-.267-.319-.539-.477-.809-.063-.1-.123-.209-.183-.312-.21-.355-.418-.714-.628-1.078-2.3-3.975-4.657-8.292-6.994-12.915-.12-.235-.239-.473-.358-.712-.042-.08-.081-.163-.122-.244-.161-.327-.327-.654-.488-.981-.147-.3-.295-.6-.442-.9-.382-.774-.758-1.555-1.137-2.346-.239-.5-.474-1-.709-1.5q-1.274-2.7-2.513-5.524c-.158-.355-.312-.711-.467-1.07-.137-.319-.277-.634-.414-.953-.119-.289-.246-.579-.368-.869-.158-.373-.316-.745-.47-1.121q-.331-.787-.656-1.583c-.186-.45-.369-.907-.551-1.362q-1.137-2.818-2.218-5.728c-.158-.425-.316-.852-.47-1.282-.347-.953-.691-1.914-1.025-2.88-.26-.745-.519-1.494-.772-2.248q-1.59-4.715-2.983-9.631c-.077-.267-.151-.533-.225-.8-.144-.516-.284-1.033-.428-1.552q-.379-1.411-.74-2.837c-.105-.419-.214-.84-.316-1.262s-.207-.843-.309-1.268q-.247-1.029-.481-2.062t-.459-2.077c-.123-.562-.239-1.121-.354-1.686a.719.719,0,0,1-.018-.092c-.049-.224-.095-.45-.137-.674q-.163-.791-.316-1.591c-.007-.049-.017-.1-.028-.15q-.2-1.053-.39-2.114l-.021-.112q-.179-1.006-.344-2.016c-.06-.356-.116-.711-.172-1.067-.052-.33-.105-.657-.154-.986-.025-.152-.049-.3-.07-.459-.053-.341-.1-.688-.151-1.029-.038-.247-.074-.5-.109-.746q-.363-2.573-.642-5.171c-.025-.2-.046-.41-.067-.614-.042-.41-.084-.817-.123-1.227s-.081-.82-.116-1.23q-.11-1.231-.2-2.47-.047-.6-.084-1.2a.185.185,0,0,1,0-.046c-.014-.238-.031-.479-.045-.72,0-.043-.007-.089-.007-.132-.021-.373-.046-.745-.063-1.118-.011-.184-.021-.364-.028-.545-.021-.4-.039-.806-.056-1.21-.017-.442-.031-.881-.046-1.323-.01-.327-.021-.657-.028-.986,0-.112-.007-.224-.011-.336,0-.068,0-.135,0-.2-.01-.413-.014-.829-.021-1.242-.007-.43-.01-.861-.014-1.291,0-.494,0-.987,0-1.48v-.132c0-.425.01-.846.014-1.271,0-.362.011-.722.018-1.084,0-.1,0-.2.007-.3v0c0-.132,0-.261.007-.393s.007-.264.011-.4.007-.258.011-.388c0-.037,0-.072,0-.109v-.072a.169.169,0,0,0,0-.042.679.679,0,0,0,0-.083c0-.034,0-.069,0-.106,0-.06,0-.12.007-.18.014-.4.028-.8.046-1.2.01-.272.021-.548.035-.82,0-.057.007-.115.011-.172q.021-.494.053-.992c.01-.2.024-.407.038-.614q.027-.49.063-.981c.014-.255.035-.511.053-.763.014-.2.031-.4.049-.608v0c.007-.123.018-.247.028-.37s.021-.244.031-.367a.526.526,0,0,1,0-.074c0-.011,0-.023,0-.035,0-.04.007-.083.01-.123s.01-.106.014-.161c.014-.155.028-.313.042-.47s.028-.31.042-.468c.032-.367.067-.731.105-1.1.021-.226.046-.455.07-.682.049-.459.1-.915.151-1.374.067-.577.137-1.156.211-1.733,27.614-.327,100.551,1.552,187.352,25.745q7.37,2.053,14.69,4.042,4.274,1.161,8.528,2.294,9.606,2.564,19.108,4.988,10.17,2.594,20.206,5.016,15.071,3.635,29.8,6.826c.021.005.042.008.06.014q8.68,1.876,17.231,3.579,21.393,4.263,41.865,7.329c1.025.155,2.053.3,3.074.453,14.518,2.091,28.642,3.668,42.308,4.652a378.883,378.883,0,0,0,60.9-.078h0q9.249-.83,18.051-2.24a.014.014,0,0,0,.011,0,.015.015,0,0,0,.011,0c.5-.075,1.007-.158,1.509-.244a.015.015,0,0,0,.011,0,.016.016,0,0,0,.011,0q5.316-.883,10.461-2,6.375-1.381,12.942-2.8h0l.014,0C1089.506,1330.6,1090.236,1330.448,1090.966,1330.287Z" transform="translate(-599.484 -1063.938)"/><path class="g" d="M1650.258,811.833l-5.432-.055-107.767-1.1a19.949,19.949,0,0,1,19.194-9.264s19.65-17.373,40.605-2.315c0,0,22.271-3.732,38.769,3.23a54.3,54.3,0,0,1,9.2,4.87A23.54,23.54,0,0,1,1650.258,811.833Z" transform="translate(-1178.358 -721.89)"/><path class="g" d="M1320.236,981.791s4.794-7.331,16.259-6.517c0,0,16.644-12.22,34.393-1.63,0,0,18.867-2.624,32.839,2.272,9.316,3.264,12.393,6.689,12.393,6.689Z" transform="translate(-1052.814 -847.596)"/><path class="g" d="M1029.885,926.8s3.415-7.332,11.581-6.517c0,0,11.855-12.22,24.5-1.629,0,0,13.438-2.624,23.391,2.272,6.635,3.264,8.827,6.689,8.827,6.689Z" transform="translate(-904.189 -791.4)"/><path class="h" d="M936.841,1396.836s-88.982-10.843-125-24.866-38.636-9.9-29.916-2.473,59,24.981,38.164,26.976-58.341-3.871-72.474,11.646-36.337,29.463,0,32.474,142.446-18.372,142.446-18.372Z" transform="translate(-691.025 -1127.776)"/><path class="i" d="M1380.982,1513.433s10.432,25.112,11.59,25.885,5.423,1.752,5.713,2.911,6.954,16.516,6.954,16.516l-25.5,4.926-20.282-11.88Z" transform="translate(-1086.493 -1235.292)"/><path class="j" d="M1157.1,1565.557l-.011.267c-.014.284-.028.568-.05.849-.007.092-.014.183-.021.275s-.014.186-.025.278c-.1,1.133-.268,2.237-.462,3.278-.025.126-.05.249-.072.373-.208,1.044-.441,2.016-.674,2.877-.029.112-.061.221-.089.327-.018.072-.039.144-.061.215s-.036.129-.054.192c-.144.508-.283.964-.413,1.356-.028.1-.057.187-.085.276-.047.141-.09.27-.133.39-.014.04-.025.077-.039.114-.029.086-.057.166-.083.241-.015.038-.025.069-.036.1-.079.224-.14.384-.172.467a.6.6,0,0,1-.025.069l-96.108-.035a.586.586,0,0,1,.014-.074h-2.992l-27.009-.006h-3.483l-25.777-.011-4.407,0-35.917-.012-6.331-.006-29.288-.011h-4.375l-3.59,0-50.482-.02-8.814,0-41.219-.017-6.091,0L752,1571.871c-2.827,0-5.875.378-8.613,0-4.712-.654-4-3.789-8.268-5.473-7.635-3.011-22.8-.808-28.013-6.6,4.787-1.712,9.825-3.5,15.06-5.346q4.278-1.506,8.721-3.055l.021-.008q3.827-1.338,7.757-2.7h0c7.231-2.5,14.7-5.054,22.312-7.612l.473-.158c7.61-2.558,15.357-5.117,23.125-7.632q3.591-1.166,7.184-2.312h0c14.877-4.755,29.707-9.29,43.724-13.268q18.934-5.373,35.179-9.847,10.932-2.99,20.653-5.484,3.515-.9,6.872-1.726h0q8.175-2.014,15.418-3.583,9.6-2.073,17.589-3.275c14.2-2.111,24.594-2.016,31.28.921.115.049.229.1.341.155a14.936,14.936,0,0,1,4.908,3.523s0,0,0,.005a.021.021,0,0,1,.007.012,8.308,8.308,0,0,1,2,3.835v0a12.475,12.475,0,0,1-.724,6.795c-.083.232-.168.468-.262.7-5.647,14.418-28.629,32.1-9.234,32.691,9,.276,22.534-.341,37.235-1.087,13.838-.7,28.715-1.514,41.825-1.8.111,0,.226-.005.337-.005q2.386-.056,4.687-.077c2.727-.034,5.357-.034,7.858,0q1.483.017,2.9.054c.14,0,.28.006.416.012q2.376.064,4.551.183,1.838.1,3.518.241c1.734.149,3.336.333,4.783.554,22.642,3.468,20.284,10.4,26.511,10.816h.036c6.274.387,54.538-2.317,60.332,4.638C1156.641,1558.5,1157.218,1562.061,1157.1,1565.557Z" transform="translate(-671.237 -1220.249)"/><path class="g" d="M1936.014,934.746v6.247c-1.833-1.606-3.556-3.169-4.311-3.993-1.945-2.122-4.377,2.995-5.837,5.186s-1.62-4.624-1.62-6.711-13.965,13.615-13.965,13.615v-.005c6.56-12.388,13.28-23.281,17.126-23.261C1929.818,925.834,1932.779,929.342,1936.014,934.746Z" transform="translate(-1444.532 -816.585)"/><path class="g" d="M1726.955,1093.588s9.966-28.314,15.154-27.444,12.279,13.712,12.279,13.712-7.213-6.625-8.551-4.408-1.58,6.6-3.89,4.408-3.77-2.505-4.985,0S1726.955,1093.588,1726.955,1093.588Z" transform="translate(-1313.789 -916.577)"/><path class="k" d="M722.047,1643.448c-5.022,5-35.93,6.566-34.966,10.161.737,2.729,13.615,4.739,15.7,7.875a46.862,46.862,0,0,1-10.83-2.862,41.547,41.547,0,0,1-15.689-10.818,36.043,36.043,0,0,1-3.806-5.106c-.382-.617-.763-1.248-1.15-1.891-.109-.181-.218-.362-.327-.546-.02-.032-.04-.067-.06-.1-.132-.216-.261-.436-.39-.654-.052-.084-.1-.17-.149-.253-.172-.288-.341-.578-.513-.873-1.876-3.217-3.806-6.709-5.716-10.45-.1-.19-.2-.383-.293-.576.9.1,1.816.2,2.745.325a114.483,114.483,0,0,0,11.479.942l.132,0c2.427.065,4.649.03,6.7-.082.123,0,.244-.012.364-.019a73.675,73.675,0,0,0,14.98-2.476c.143-.037.284-.074.425-.109.063-.019.126-.035.186-.049,6.2-1.623,10.919-3.07,17.892-1.513q.925.206,1.8.383c.12.026.238.049.356.072,2.306.459,4.331.766,6.126.972,5.2.6,8.487.36,11.241.55a12.953,12.953,0,0,1,5.208,1.323c5.6,2.8-21.251,7.485-24.147,9.673S727.069,1638.446,722.047,1643.448Z" transform="translate(-641.392 -1313.939)"/><g transform="translate(41.115 321.648)"><path class="l" d="M762.113,1675.488s-.9-9.506,2.549-10.325-.759,9.9-.759,9.9Z" transform="translate(-756.503 -1665.119)"/><path class="l" d="M771.357,1685.857s3.7-7.478,7.015-6.437-5.295,6.976-5.295,6.976Z" transform="translate(-763.172 -1675.247)"/><path class="l" d="M743.871,1699.052s3.735-2.061,6.954-1.546a17.634,17.634,0,0,1,5.152,1.546c1.417.515,3.155,1.545,2.383,2s-7.212-.386-8.758,0S739.97,1700.464,743.871,1699.052Z" transform="translate(-742.819 -1688.158)"/></g><g transform="translate(99.689 332.168)"><path class="l" d="M902.8,1717.966s4.333-20.182,10.37-15.45S906.342,1711.907,902.8,1717.966Z" transform="translate(-896.581 -1701.797)"/><path class="l" d="M895.409,1723.715s-1.981-14.665,2.026-15.382S895.46,1719.277,895.409,1723.715Z" transform="translate(-890.957 -1706.436)"/><path class="l" d="M881.474,1754.2s3.461-1.68,5.98-1.524,9.3.958,8.677,2.3-7.4.18-9.122.4S879.618,1755.463,881.474,1754.2Z" transform="translate(-881.105 -1738.073)"/></g><g transform="translate(387.286 323.923)"><path class="k" d="M1697.6,1687.691s-.129-6.954,3.09-8.177S1697.924,1685.888,1697.6,1687.691Z" transform="translate(-1697.602 -1677.566)"/><path class="k" d="M1706.619,1682.188s2.458-8.8,6.969-9.125S1707.7,1680.041,1706.619,1682.188Z" transform="translate(-1704.033 -1673.053)"/></g><g transform="translate(22.609 301.547)"><path class="k" d="M679.464,1598.641c.957.387,4.376.074,4.487-.2s-2.126-2.879-3.082-3.266a1.87,1.87,0,1,0-1.4,3.466Z" transform="translate(-678.296 -1595.037)"/><path class="k" d="M710.88,1611.059c-.537.882-.779,4.307-.528,4.46s3.184-1.633,3.721-2.515a1.87,1.87,0,1,0-3.194-1.945Z" transform="translate(-701.087 -1605.823)"/><path class="k" d="M693.138,1627.58c.984.314,4.37-.259,4.459-.54s-2.339-2.709-3.323-3.023a1.87,1.87,0,0,0-1.137,3.563Z" transform="translate(-687.952 -1615.643)"/><g transform="translate(5.539 3.325)"><path class="k" d="M702.234,1618.558c0-.078-.381-7.83-4.626-11.832l.09-.1c4.284,4.039,4.664,11.844,4.667,11.922Z" transform="translate(-697.608 -1606.63)"/></g></g><g transform="translate(48.488 289.325)"><path class="k" d="M810.291,1557.438c-1.257.835-6.247,1.384-6.486,1.025s2.2-4.745,3.462-5.579a2.733,2.733,0,0,1,3.023,4.554Z" transform="translate(-793.675 -1552.427)"/><path class="k" d="M773.262,1584.658c1.027,1.106,2.375,5.942,2.059,6.235s-5.038-1.409-6.065-2.515a2.733,2.733,0,1,1,4.006-3.719Z" transform="translate(-768.526 -1574.791)"/><path class="k" d="M798.577,1602.886c-1.318.737-6.335.9-6.545.529s2.559-4.563,3.877-5.3a2.733,2.733,0,0,1,2.668,4.771Z" transform="translate(-785.282 -1584.762)"/><g transform="translate(6.631 5.915)"><path class="k" d="M792.143,1591.462c-.018-.112-1.74-11.328,3.172-18.3l-.157-.111c-4.957,7.037-3.223,18.328-3.2,18.441Z" transform="translate(-791.645 -1573.051)"/></g></g><g transform="translate(27.157 281.672)"><g transform="translate(5.461 5.318)"><path class="k" d="M720.831,1576.932l-.369-.059a112.42,112.42,0,0,0-7.268-32.445l.336-.145A112.777,112.777,0,0,1,720.831,1576.932Z" transform="translate(-713.195 -1544.284)"/></g><g transform="translate(0 0)"><path class="b" d="M698.424,1530.2c.707.8,4.019,2.09,4.248,1.889s-.639-3.648-1.346-4.45a1.935,1.935,0,0,0-2.9,2.561Z" transform="translate(-696.854 -1526.63)"/><path class="b" d="M714.76,1526.523c-.638.857-1.219,4.363-.974,4.546s3.439-1.375,4.077-2.233a1.935,1.935,0,0,0-3.1-2.313Z" transform="translate(-708.114 -1525.744)"/><path class="b" d="M719.2,1541.3c-1.031-.281-4.507.461-4.587.756s2.538,2.7,3.569,2.979a1.935,1.935,0,0,0,1.018-3.734Z" transform="translate(-708.741 -1536.796)"/><path class="b" d="M712.826,1547.667c-.1-1.064-2.029-4.051-2.333-4.021s-1.622,3.33-1.52,4.393a1.935,1.935,0,0,0,3.853-.372Z" transform="translate(-704.719 -1538.511)"/><path class="b" d="M696.99,1547.3c.946-.5,2.985-3.408,2.843-3.678s-3.7-.246-4.642.251a1.935,1.935,0,1,0,1.8,3.427Z" transform="translate(-694.155 -1538.369)"/><path class="m" d="M711.737,1542.358a.637.637,0,1,1,.529.73A.637.637,0,0,1,711.737,1542.358Z" transform="translate(-706.688 -1537.209)"/></g><path class="k" d="M734.755,1588.387c-1.052,1.293-2.187,6.719-1.818,7.019s5.449-1.917,6.5-3.21a3.018,3.018,0,0,0-4.683-3.809Z" transform="translate(-721.763 -1569.625)"/></g><g transform="translate(84.842 282.908)"><g transform="translate(5.254 5.318)"><path class="k" d="M857.46,1581.24l.369-.059a112.407,112.407,0,0,1,7.268-32.444l-.336-.145A112.8,112.8,0,0,0,857.46,1581.24Z" transform="translate(-857.46 -1548.592)"/></g><g transform="translate(6.47 0)"><path class="b" d="M887,1534.51c-.707.8-4.019,2.09-4.248,1.889s.639-3.649,1.346-4.45a1.935,1.935,0,1,1,2.9,2.561Z" transform="translate(-876.683 -1530.938)"/><path class="b" d="M871.284,1530.831c.639.857,1.219,4.363.974,4.545s-3.439-1.376-4.078-2.232a1.935,1.935,0,0,1,3.1-2.313Z" transform="translate(-866.048 -1530.051)"/><path class="b" d="M863.124,1545.61c1.031-.281,4.507.461,4.587.756s-2.538,2.7-3.569,2.979a1.935,1.935,0,1,1-1.018-3.734Z" transform="translate(-861.697 -1541.104)"/><path class="b" d="M874.836,1551.974c.1-1.064,2.029-4.05,2.333-4.021s1.622,3.33,1.52,4.393a1.935,1.935,0,0,1-3.853-.372Z" transform="translate(-871.061 -1542.818)"/><path class="b" d="M886.153,1551.6c-.946-.5-2.985-3.408-2.843-3.678s3.7-.246,4.642.252a1.935,1.935,0,1,1-1.8,3.426Z" transform="translate(-877.106 -1542.676)"/><path class="m" d="M882.373,1546.665a.637.637,0,1,0-.529.729A.638.638,0,0,0,882.373,1546.665Z" transform="translate(-875.539 -1541.517)"/></g><path class="k" d="M844.5,1592.695c1.052,1.294,2.187,6.719,1.818,7.019s-5.449-1.917-6.5-3.21a3.018,3.018,0,0,1,4.683-3.808Z" transform="translate(-839.141 -1573.933)"/></g><g transform="translate(350.408 308.696)"><path class="k" d="M1588.76,1626.392c1.7.748,7.85.373,8.064-.112s-3.657-5.283-5.353-6.031a3.357,3.357,0,0,0-2.71,6.143Z" transform="translate(-1586.758 -1619.962)"/><path class="k" d="M1644.076,1650.452c-1.013,1.553-1.636,7.687-1.193,7.976s5.8-2.756,6.817-4.309a3.357,3.357,0,1,0-5.625-3.667Z" transform="translate(-1626.682 -1640.62)"/><path class="k" d="M1611.713,1679.08c1.748.617,7.856-.225,8.032-.724s-4.048-4.99-5.8-5.607a3.357,3.357,0,1,0-2.236,6.331Z" transform="translate(-1602.958 -1657.471)"/><g transform="translate(9.858 6.175)"><path class="k" d="M1628.781,1663.148c0-.14-.255-14.073-7.653-21.489l.167-.167c7.467,7.485,7.72,21.513,7.722,21.654Z" transform="translate(-1621.127 -1641.491)"/></g></g><g transform="translate(370.62 303.716)"><g transform="translate(4.779 4.654)"><path class="k" d="M1670.965,1647.4l-.322-.051a98.4,98.4,0,0,0-6.361-28.394l.294-.127A98.728,98.728,0,0,1,1670.965,1647.4Z" transform="translate(-1664.282 -1618.826)"/></g><path class="b" d="M1651.354,1606.5a2.237,2.237,0,1,0,2.54-2.242,1.694,1.694,0,0,0-2.54,2.242Z" transform="translate(-1649.98 -1603.376)"/><path class="b" d="M1665.651,1603.283a2.237,2.237,0,1,0,2.716,2.024,1.694,1.694,0,0,0-2.716-2.024Z" transform="translate(-1659.836 -1602.601)"/><path class="b" d="M1669.535,1616.217a2.237,2.237,0,1,0-.891,3.268,1.694,1.694,0,0,0,.891-3.268Z" transform="translate(-1660.385 -1612.273)"/><path class="b" d="M1663.96,1621.787a2.237,2.237,0,1,0-3.371.326,1.693,1.693,0,1,0,3.371-.326Z" transform="translate(-1656.866 -1613.774)"/><path class="b" d="M1650.1,1621.462a2.237,2.237,0,1,0-1.575-3,1.694,1.694,0,0,0,1.575,3Z" transform="translate(-1647.619 -1613.65)"/><path class="m" d="M1663.006,1617.141a.558.558,0,1,1,.463.638A.557.557,0,0,1,1663.006,1617.141Z" transform="translate(-1658.588 -1612.635)"/><path class="k" d="M1683.152,1657.424c-.921,1.132-1.914,5.88-1.591,6.143s4.769-1.678,5.689-2.81a2.641,2.641,0,1,0-4.1-3.333Z" transform="translate(-1671.781 -1641.005)"/></g><path class="k" d="M1732.838,1699.746v23.9l-12.615,0-73.724-.029a.33.33,0,0,1,.014-.074c.554-3.617,8.65-5.47,7.9-9.064-.975-4.635-41.4-6.373-25.183-12.29.794-.29,1.635-.562,2.512-.818l.23-.068c.29-.083.582-.164.881-.244.088-.023.178-.046.269-.072a83.73,83.73,0,0,1,9.384-1.821c.1-.015.207-.029.313-.046q1.338-.185,2.7-.347l.373-.043c.1-.012.193-.023.29-.032.258-.031.519-.06.777-.089.688-.077,1.38-.146,2.071-.212.181-.017.359-.034.539-.049.129-.015.258-.026.387-.038.384-.037.766-.072,1.148-.1q1.166-.1,2.329-.184c.309-.02.619-.043.926-.063,6.213-.424,12.2-.562,16.848-.588h.006c3.193-.017,5.756.02,7.311.054h.032c.918.018,1.483.035,1.62.041h.031c1.884.123,7.775-.067,15.11-.161h.043C1707.913,1697.148,1724.68,1697.276,1732.838,1699.746Z" transform="translate(-1241.356 -1366.392)"/><path class="n" d="M1160.809,1636.461s.474,7.375,1.9,7.477c.19.014,7.238,0,7.238,0l9-.072a2.919,2.919,0,0,0-2.694-2.62c-2.631-.453-7.037-2.291-8.638-5.764C1165.928,1631.829,1160.809,1636.461,1160.809,1636.461Z" transform="translate(-962.119 -1321.334)"/><path class="n" d="M1320.438,1613.217s1.373,7.261,2.8,7.188c.19-.01,7.183-.888,7.183-.888l8.921-1.174a2.92,2.92,0,0,0-3-2.27c-2.666-.127-7.264-1.412-9.278-4.662C1324.951,1607.992,1320.438,1613.217,1320.438,1613.217Z" transform="translate(-1065.15 -1304.341)"/><path class="l" d="M1189.351,1337.879s-2.32,15.055-11.041,41.788-9.891,38.306-9.891,38.306l-9.417-.244s-.144-29.2,3.873-42.639.768-48.433.768-48.433Z" transform="translate(-959.717 -1102.087)"/><path class="k" d="M1207,1317.807s12.82,25.89,16.082,46.385,5.829,39.249,5.829,39.249a38.456,38.456,0,0,1-9.055,1.67s-9.99-29.757-11.05-37.168-30.832-37.04-28.508-44.353S1207,1317.807,1207,1317.807Z" transform="translate(-971.249 -1095.68)"/><path class="h" d="M1174.36,1144.012s-13.24,12.711-13.874,17.944,6.423,13.4,6.423,13.4Z" transform="translate(-962.295 -972.084)"/><path class="o" d="M1216.881,1116.524l5.014,3.272,7.234-1.364c-.1-.584-.584-3-1.025-5.2-.026-.13-.053-.259-.078-.385-.377-1.865-.7-3.468-.7-3.468l-6.765-2.967-2.522-1.106c.007.039.2,2.07.227,2.367A17.229,17.229,0,0,1,1216.881,1116.524Z" transform="translate(-998.971 -944.515)"/><path class="p" d="M1225.422,1132.868c-.141-.059-8.72-2.57-9.65-2.26s-1.478,2.113-1.478,2.113l14.03,3.14A6.964,6.964,0,0,0,1225.422,1132.868Z" transform="translate(-997.11 -962.533)"/><path class="q" d="M1172.109,1195.576c1.468,6.627,25.656,7.36,31.877,1.329.708-.687.735-3.879.459-8.182-.541-8.406-2.249-21.048-2.328-27.509a51.154,51.154,0,0,0-1.052-9.207,74.823,74.823,0,0,0-3.091-11.016s-11.822-3.793-14.031-3.139C1173.3,1141,1170.642,1188.949,1172.109,1195.576Z" transform="translate(-967.645 -967.609)"/><path class="p" d="M1256.346,1221.029c-.541-8.406-.834-22.286-.913-28.747-.039-3.12-1.889-5.073-2.467-7.97l-7.109-1.239S1238.97,1211.468,1256.346,1221.029Z" transform="translate(-1016.895 -999.918)"/><path class="l" d="M1236.231,1252.175s8.053-7.035,11.064-11.486l2.275,1.537s-6.348,10.625-12.416,13.425S1236.231,1252.175,1236.231,1252.175Z" transform="translate(-1009.835 -1041.002)"/><path class="r" d="M1222.987,1110.517c1.49,2.511,7.025,4.673,9.333,5.467-.026-.129-.053-.258-.078-.385-.376-1.865-.7-3.468-.7-3.468l-6.765-2.967C1223.281,1109.148,1222.373,1109.484,1222.987,1110.517Z" transform="translate(-1003.083 -947.267)"/><path class="o" d="M1219.422,1074.753s-10.269,4.961-13.26-1.481-6.331-10.141.1-13.581,8.854-1.578,10.376.33S1222.016,1073.3,1219.422,1074.753Z" transform="translate(-989.149 -910.629)"/><path class="j" d="M1203.577,1050.26s.48,7.944-1.192,7.844-3.181-.133-2.592,2.2,3.244,4.723-1.691,5.885-14.037-10.658-13.027-13.3C1187.989,1045.252,1208.025,1040.819,1203.577,1050.26Z" transform="translate(-977.635 -901.459)"/><path class="q" d="M1187.612,1240.75a1.536,1.536,0,0,0-1.341,1.3c-.112,1.156-.888,15.221-.185,15.594a8.126,8.126,0,0,0,3.8,0c.17-.222.8-15.657.377-16.588A5.572,5.572,0,0,0,1187.612,1240.75Z" transform="translate(-979.602 -1041)"/><path class="o" d="M1276.812,1294.715a6.157,6.157,0,0,1,2.052,2.622c.578,2.211.209,4.278-1.959,5.109-.8.307-.909-1.593-1.5-2.409s-2.707-1.267-2.223-2.51l1.43-3.671Z" transform="translate(-1036.057 -1078.903)"/><path class="o" d="M1271.94,1299.4a6.821,6.821,0,0,0-1.479,2.424c-.138.949-.193,2.417-.224,3.042s.284,1.144.864.124,1.077-2.376,1.472-2.375S1271.94,1299.4,1271.94,1299.4Z" transform="translate(-1034.585 -1082.857)"/><path class="q" d="M1242.009,1143.139s8.42,1.488,14.916,11.018,8.9,15.623,7.717,19.066-7.1,14.113-8.3,15.558c-1.023,1.236-3.987,1.148-5.925.312,0,0,3.758-15.878,2.246-17.593-.647-.733-8.979-7.771-10.3-4.36C1240.183,1172.784,1242.009,1143.139,1242.009,1143.139Z" transform="translate(-1013.489 -971.448)"/><path class="l" d="M1244.257,1147.068a6.624,6.624,0,0,0-4.65-2.924c-3.269-.486-5.246,3.317-5.246,3.317l2.445.929s1.573-2.888,2.994-2.888A6.985,6.985,0,0,1,1244.257,1147.068Z" transform="translate(-1010.535 -972.169)"/><g transform="translate(189.107 173.821)"><path class="l" d="M1184.543,1163.345s-3.405-.045-7.769-.148c-7.673-.176-18.311-.52-18.584-1.077-.427-.876.141-10.612,2.763-11.315a6.191,6.191,0,0,1,.962-.151c4.235-.406,17.184.362,20.172,1.324C1185.358,1153.032,1184.543,1163.345,1184.543,1163.345Z" transform="translate(-1149.741 -1150.543)"/><path class="k" d="M1176.774,1163.474c-7.673-.176-18.311-.52-18.584-1.078-.427-.876.141-10.613,2.763-11.316a6.152,6.152,0,0,1,.962-.151c5.01.218,10.566.734,12.392,1.323C1177.351,1153.235,1176.86,1162.212,1176.774,1163.474Z" transform="translate(-1149.741 -1150.819)"/><path class="k" d="M1163.854,1191.28s-26.283-2.612-30.835-1.093-4.552,32.529-3.129,34.663,27.243,4.115,30.9,2.982S1163.854,1191.28,1163.854,1191.28Z" transform="translate(-1129.052 -1178.478)"/><path class="l" d="M1210.08,1192.45s-3.6.328-3.929,2.888-2.6,33.734-.541,34.559,10.631.491,11.129,0,2.352-34.7,1.1-36.763A21.187,21.187,0,0,0,1210.08,1192.45Z" transform="translate(-1183.042 -1180.332)"/><g transform="translate(10.43 3.122)"><path class="s" d="M1165.726,1163.168s-.839,4.324.244,4.983,3.711.847,4.364.075.512-4.97.512-4.97Z" transform="translate(-1165.416 -1162.669)"/><path class="l" d="M1166.5,1161.928a2.4,2.4,0,0,0,2.417,1.784,2.822,2.822,0,0,0,2.7-1.7S1168.834,1160.757,1166.5,1161.928Z" transform="translate(-1166.186 -1161.429)"/><path class="m" d="M1173.632,1166.076a.382.382,0,1,1,.376.389A.382.382,0,0,1,1173.632,1166.076Z" transform="translate(-1171.275 -1164.476)"/></g><g transform="translate(17.963 3.782)"><path class="s" d="M1192.2,1165s-1.113,4.262-.076,4.989,3.65,1.082,4.351.354.829-4.928.829-4.928Z" transform="translate(-1191.68 -1164.638)"/><path class="l" d="M1193.486,1164.095a2.4,2.4,0,0,0,2.3,1.935,2.821,2.821,0,0,0,2.806-1.52S1195.894,1163.075,1193.486,1164.095Z" transform="translate(-1192.968 -1163.729)"/><path class="m" d="M1200.359,1168.422a.382.382,0,1,1,.35.412A.382.382,0,0,1,1200.359,1168.422Z" transform="translate(-1197.869 -1166.825)"/></g><g transform="translate(2.775 14.776)"><path class="s" d="M1139.423,1204.1s-1.138,4.019-.5,5.068,15.078,1.76,16,.907,1.067-5.477,1.067-5.477Z" transform="translate(-1138.729 -1203.518)"/><path class="l" d="M1141.147,1202.646s1.973,2.489,6.961,2.56a25.163,25.163,0,0,0,9.611-2.062S1146.054,1201.081,1141.147,1202.646Z" transform="translate(-1140.454 -1202.06)"/><path class="m" d="M1162.72,1208.685a.427.427,0,1,1,.427.426A.427.427,0,0,1,1162.72,1208.685Z" transform="translate(-1155.839 -1206.48)"/></g><path class="l" d="M1152,1239.768s-11.925-.509-12.619,0-.96,16.939-.427,17.739,12.589,1.174,12.589,1.174Z" transform="translate(-1135.914 -1214.015)"/></g><path class="h" d="M1812.852,1502.822v29.924c-5.966.528-12.009,1.073-17.654,1.492-27.733,2.059-69.327,1.018-54.51-11.854C1748.558,1515.543,1782.635,1508.2,1812.852,1502.822Z" transform="translate(-1321.37 -1227.725)"/><path class="h" d="M651.066,1323.122c-9.11,0-23.831.513-19.34,3.591s8.317,7.693-6.983,8.207c-15.125.508-23.8,1.326-23.991,1.344a189.546,189.546,0,0,1-1.141-29.121s14.169-4.332,22.775,0,14.788.849,21.482,5.465,20.8,5.129,23.666,7.694S660.174,1323.122,651.066,1323.122Z" transform="translate(-599.471 -1086.976)"/><g transform="translate(327.295 330.472)"><path class="t" d="M1564.071,1711.036l.542-9.214s-4.636-3.858-5.3-4.123-10.671-1.8-10.671-1.8l.433,8.654,3.134,6.289Z" transform="translate(-1540.872 -1695.897)"/><path class="e" d="M1521.955,1710.719s-.647-6.709-.3-7.443,6.627-7.6,7.669-7.386,6.794,2.359,7.8,3.172,3.347,7.161,3.307,7.821-.239,4.065-.239,4.065Z" transform="translate(-1521.552 -1695.885)"/></g><g transform="translate(314.409 339.21)"><path class="t" d="M1519.485,1734.908l.072-3.955a1.936,1.936,0,0,0-.77-1.581,35.509,35.509,0,0,0-3.234-2.277c-.31-.109-3.322-.474-5.536-.731a1.935,1.935,0,0,0-2.15,2.1l.325,3.58a1.944,1.944,0,0,0,.232.758l1.731,3.145a1.936,1.936,0,0,0,1.744,1l5.7-.14A1.936,1.936,0,0,0,1519.485,1734.908Z" transform="translate(-1502.184 -1726.351)"/><path class="e" d="M1490.323,1737.333a1.936,1.936,0,0,1-1.977-1.71,17.877,17.877,0,0,1-.223-3.705c.231-.55,6.281-5.463,7.054-5.338a16.917,16.917,0,0,1,4.2,1.775c.765.568,2.676,5.166,2.667,5.653l-.021,1.148a1.934,1.934,0,0,1-1.881,1.9Z" transform="translate(-1488.075 -1726.513)"/></g><g transform="translate(138.624 316.706)"><path class="t" d="M991.835,1655.126l-.06-3.344a1.635,1.635,0,0,1,.651-1.336,30.128,30.128,0,0,1,2.735-1.925c.262-.093,2.809-.4,4.681-.618a1.637,1.637,0,0,1,1.819,1.775l-.275,3.027a1.636,1.636,0,0,1-.2.641l-1.464,2.66a1.637,1.637,0,0,1-1.474.847l-4.818-.119A1.637,1.637,0,0,1,991.835,1655.126Z" transform="translate(-991.774 -1647.891)"/><path class="e" d="M1011.724,1657.179a1.637,1.637,0,0,0,1.672-1.446,15.167,15.167,0,0,0,.189-3.134c-.2-.465-5.312-4.62-5.966-4.514a14.279,14.279,0,0,0-3.549,1.5c-.647.48-2.263,4.369-2.256,4.78l.018.972a1.636,1.636,0,0,0,1.591,1.607Z" transform="translate(-998.934 -1648.028)"/></g><g transform="translate(121.413 322.466)"><path class="t" d="M944.207,1671.907l-.033-1.818a.89.89,0,0,1,.354-.727,16.2,16.2,0,0,1,1.487-1.047c.142-.05,1.528-.218,2.546-.336a.89.89,0,0,1,.989.965l-.15,1.647a.89.89,0,0,1-.107.349l-.8,1.446a.891.891,0,0,1-.8.461l-2.62-.065A.889.889,0,0,1,944.207,1671.907Z" transform="translate(-944.174 -1667.973)"/><path class="e" d="M955.022,1673.023a.89.89,0,0,0,.909-.786,8.226,8.226,0,0,0,.1-1.7,13.961,13.961,0,0,0-3.244-2.455,7.777,7.777,0,0,0-1.93.817,9.029,9.029,0,0,0-1.227,2.6l.01.528a.89.89,0,0,0,.865.874Z" transform="translate(-948.067 -1668.046)"/></g><g transform="translate(288.247 328.378)"><path class="t" d="M1417.862,1692.521l-.033-1.819a.892.892,0,0,1,.354-.727,16.493,16.493,0,0,1,1.487-1.047c.142-.05,1.528-.217,2.546-.336a.89.89,0,0,1,.989.965l-.15,1.646a.882.882,0,0,1-.107.349l-.8,1.446a.889.889,0,0,1-.8.46l-2.62-.064A.891.891,0,0,1,1417.862,1692.521Z" transform="translate(-1417.829 -1688.586)"/><path class="e" d="M1428.677,1693.636a.891.891,0,0,0,.909-.786,8.252,8.252,0,0,0,.1-1.7,13.96,13.96,0,0,0-3.244-2.455,7.792,7.792,0,0,0-1.93.816,9.03,9.03,0,0,0-1.227,2.6l.01.528a.89.89,0,0,0,.865.874Z" transform="translate(-1421.722 -1688.659)"/></g><g transform="translate(62.319 347.544)"><path class="t" d="M816.78,1759.34l-.033-1.819a.888.888,0,0,1,.354-.727,16.279,16.279,0,0,1,1.487-1.047c.142-.05,1.528-.217,2.546-.336a.89.89,0,0,1,.989.965l-.15,1.646a.883.883,0,0,1-.107.349l-.8,1.446a.89.89,0,0,1-.8.461l-2.62-.064A.891.891,0,0,1,816.78,1759.34Z" transform="translate(-816.747 -1755.406)"/><path class="e" d="M827.595,1760.456a.89.89,0,0,0,.909-.786,8.245,8.245,0,0,0,.1-1.7,13.955,13.955,0,0,0-3.244-2.455,7.769,7.769,0,0,0-1.93.816,9.051,9.051,0,0,0-1.227,2.6l.01.529a.89.89,0,0,0,.865.873Z" transform="translate(-820.64 -1755.48)"/></g><g transform="translate(127.874 318.351)"><path class="t" d="M962.952,1656.365l-.023-1.267a.617.617,0,0,1,.246-.506,11.467,11.467,0,0,1,1.036-.73c.1-.035,1.064-.151,1.773-.234a.62.62,0,0,1,.688.672l-.1,1.147a.621.621,0,0,1-.074.243l-.554,1.007a.62.62,0,0,1-.559.321l-1.825-.045A.62.62,0,0,1,962.952,1656.365Z" transform="translate(-962.93 -1653.624)"/><path class="e" d="M970.485,1657.142a.621.621,0,0,0,.634-.548,5.721,5.721,0,0,0,.071-1.187,9.706,9.706,0,0,0-2.26-1.71,5.425,5.425,0,0,0-1.344.569,6.289,6.289,0,0,0-.854,1.811l.007.368a.619.619,0,0,0,.6.608Z" transform="translate(-965.641 -1653.676)"/></g></g></g><g transform="translate(-43)"><text class="u" transform="translate(950 347)"><tspan x="0" y="0">دوست داری معماری یاد بگیری؟</tspan></text><text class="v" transform="translate(905 398)"><tspan x="0" y="0">مسیر یادگیری معماری پیشنهادی آموزال رو دنبال کن!</tspan></text></g><path class="w" d="M572.728,1430.18l-62.441-62.441a124.31,124.31,0,0,0-87.893-36.408H381.9l116.078,116.078a11.911,11.911,0,0,1,0,16.844L381.9,1580.332h40.5a124.3,124.3,0,0,0,87.893-36.408l62.441-62.441A36.281,36.281,0,0,0,572.728,1430.18Z" transform="translate(64.67 -1091.332)"/><path class="x" d="M572.728,1430.18l-62.441-62.441a124.31,124.31,0,0,0-87.893-36.408H381.9l116.078,116.078a11.911,11.911,0,0,1,0,16.844L381.9,1580.332h40.5a124.3,124.3,0,0,0,87.893-36.408l62.441-62.441A36.281,36.281,0,0,0,572.728,1430.18Z" transform="translate(206.67 -1091.332)"/><path class="y" d="M572.728,1430.18l-62.441-62.441a124.31,124.31,0,0,0-87.893-36.408H381.9l116.078,116.078a11.911,11.911,0,0,1,0,16.844L381.9,1580.332h40.5a124.3,124.3,0,0,0,87.893-36.408l62.441-62.441A36.281,36.281,0,0,0,572.728,1430.18Z" transform="translate(371.67 -1091.332)"/><g transform="translate(725.374 -753.079)"><path class="z" d="M-554.374,993.079"/></g></g></svg>