<svg xmlns="http://www.w3.org/2000/svg" width="172.736" height="172.736" viewBox="0 0 172.736 172.736"><defs><style>.a{fill:#ebebeb;}.b{opacity:0.495;}</style></defs><g transform="translate(-1030 -431)"><circle class="a" cx="86.368" cy="86.368" r="86.368" transform="translate(1030 431)"/><g transform="translate(1081.821 482.821)"><g class="b" transform="translate(0)"><path d="M1,0H16.274a1,1,0,0,1,1,1V46.063a0,0,0,0,1,0,0H0a0,0,0,0,1,0,0V1A1,1,0,0,1,1,0Z" transform="translate(28.789 17.274)"/><path d="M1,0H16.274a1,1,0,0,1,1,1V63.336a0,0,0,0,1,0,0H0a0,0,0,0,1,0,0V1A1,1,0,0,1,1,0Z" transform="translate(0)"/><path d="M1,0H16.274a1,1,0,0,1,1,1V34.547a0,0,0,0,1,0,0H0a0,0,0,0,1,0,0V1A1,1,0,0,1,1,0Z" transform="translate(57.578 28.789)"/></g></g></g></svg>