<svg xmlns="http://www.w3.org/2000/svg" width="21.379" height="21.379" viewBox="0 0 21.379 21.379"><defs><style>.a{fill:#fff;}</style></defs><g transform="translate(0 0)"><g transform="translate(7.189 0)"><g transform="translate(0 0)"><path class="a" d="M184.882,1.467a5.011,5.011,0,0,0-7.086,0l-4.188,4.188a5.058,5.058,0,0,0,0,7.086,4.769,4.769,0,0,0,1.007.764l.764-.764a1.721,1.721,0,0,0,.316-1.51,2.419,2.419,0,0,1-.316-.261,2.532,2.532,0,0,1,0-3.543l4.188-4.188a2.505,2.505,0,1,1,3.543,3.543L180.342,9.55a7.211,7.211,0,0,1,.313,3.223c.012-.012.027-.019.039-.031l4.188-4.188A5.011,5.011,0,0,0,184.882,1.467Z" transform="translate(-172.159 0)"/></g></g><g transform="translate(0 7.548)"><g transform="translate(0)"><path class="a" d="M13.066,181.54a4.769,4.769,0,0,0-1.007-.764l-.764.764a1.721,1.721,0,0,0-.316,1.51,2.412,2.412,0,0,1,.316.261,2.532,2.532,0,0,1,0,3.543l-4.512,4.512a2.505,2.505,0,1,1-3.543-3.543l3.093-3.093a7.21,7.21,0,0,1-.313-3.223c-.012.012-.027.02-.039.032l-4.512,4.512a5.011,5.011,0,1,0,7.086,7.086l4.512-4.512A5.055,5.055,0,0,0,13.066,181.54Z" transform="translate(0 -180.776)"/></g></g></g></svg>