<svg xmlns="http://www.w3.org/2000/svg" width="12.001" height="15.68" viewBox="0 0 12.001 15.68">
  <g id="Group_1366" data-name="Group 1366" transform="translate(-971 -3467.319)">
    <path id="Subtraction_1" data-name="Subtraction 1" d="M-9277,9h-8a2,2,0,0,1-2-2V0h12V7A2,2,0,0,1-9277,9Zm-4-7a2,2,0,0,0-2,2,2,2,0,0,0,2,2,2,2,0,0,0,2-2A2,2,0,0,0-9281,2Z" transform="translate(10258 3474)" fill="#bfbfbf"/>
    <path id="Path_365" data-name="Path 365" d="M10246.325,3474v-2.442s-.172-3.739,4.694-3.739,4.457,3.739,4.457,3.739V3474" transform="translate(-9273.824)" fill="none" stroke="#bfbfbf" stroke-width="1"/>
  </g>
</svg>
