<svg xmlns="http://www.w3.org/2000/svg" width="436.325" height="410.396" viewBox="0 0 436.325 410.396">
  <g id="Group_1242" data-name="Group 1242" transform="translate(8146 2749)">
    <g id="call-center" transform="translate(-8146 -2749)">
      <g id="Ellipse_28" data-name="Ellipse 28" transform="translate(5.792 6.619)" fill="#fff" stroke="#707070" stroke-width="1">
        <circle cx="99.703" cy="99.703" r="99.703" stroke="none"/>
        <circle cx="99.703" cy="99.703" r="99.203" fill="none"/>
      </g>
      <path id="Path_309" data-name="Path 309" d="M398.141,294.262l-53.3-11.571V269.656a54.351,54.351,0,0,0,13.5-14.793h7.615c19.4,0,35.188-14.848,35.188-33.1a31.53,31.53,0,0,0-7.038-19.654V175.431C394.1,131.63,356.219,96,309.65,96s-84.45,35.63-84.45,79.431v26.681a31.544,31.544,0,0,0-7.038,19.654c0,18.248,15.786,33.1,35.188,33.1h7.615a54.243,54.243,0,0,0,13.5,14.793v13.035l-53.3,11.571a51.086,51.086,0,0,0-10.034,3.368V261.482c0-10.947-9.474-19.858-21.113-19.858H21.113C9.474,241.624,0,250.535,0,261.482V380.629c0,10.947,9.474,19.858,21.113,19.858h56.3v13.239H63.338v13.239H436.325V339.411C436.325,317.707,420.625,299.139,398.141,294.262ZM279.9,295.1l17.157,12.1-17.346,9.79-3.732-21.044Zm22.147,52.431h15.209l5.862,66.193H296.187Zm16.6-13.239H300.644l-4.041-11.4,13.048-7.359,13.041,7.359Zm3.6-27.091L339.4,295.1l4.962,1.08L339.9,317.164Zm43.7-65.579H364.1a49.708,49.708,0,0,0,1.852-13.239V201.909c11.639,0,21.113,8.911,21.113,19.858S377.589,241.624,365.95,241.624Zm-56.3-132.386c38.806,0,70.375,29.693,70.375,66.193v16.044a36.712,36.712,0,0,0-14.075-2.805V175.431H351.875v3.694a42.212,42.212,0,0,1-16.989,8.326c.275-.252.577-.469.852-.721l-9.951-9.36a41.92,41.92,0,0,1-19.051,10.081c.275-.252.577-.469.852-.721l-9.951-9.36a42.661,42.661,0,0,1-29,11.3h-1.21V175.431H253.35V188.67a36.712,36.712,0,0,0-14.075,2.805V175.431C239.275,138.932,270.844,109.239,309.65,109.239Zm-56.3,132.386c-11.639,0-21.113-8.911-21.113-19.858s9.474-19.858,21.113-19.858v26.477a49.708,49.708,0,0,0,1.852,13.239Zm14.075-13.239V201.909h1.21a58.066,58.066,0,0,0,19.9-3.581v3.581h8.247a58.066,58.066,0,0,0,19.9-3.581v3.581h8.247a58.126,58.126,0,0,0,26.94-6.694v33.171a37.424,37.424,0,0,1-2.464,13.239H309.65v13.239h31.387A43.282,43.282,0,0,1,309.65,268.1C286.362,268.1,267.425,250.289,267.425,228.386ZM309.65,281.34a59,59,0,0,0,21.113-3.9v7.208L309.65,299.543,288.538,284.65v-7.208A59,59,0,0,0,309.65,281.34Zm-85.33,25.821,37.919-8.226,6.979,39.415,15.027-8.478,4.2,11.849-6.381,72H246.313V340.913H232.238v72.812H197.05V399.268c8.171-2.741,14.075-10.023,14.075-18.639V313.008A36.206,36.206,0,0,1,224.32,307.161Zm-90.608,93.326h49.263v13.239H133.713Zm-112.6-13.239a6.843,6.843,0,0,1-7.038-6.619V261.482a6.843,6.843,0,0,1,7.038-6.619h168.9a6.843,6.843,0,0,1,7.038,6.619V380.629a6.843,6.843,0,0,1-7.038,6.619h-56.3V374.01c0-14.6-12.625-26.477-28.15-26.477s-28.15,11.875-28.15,26.477v13.239ZM91.488,374.01c0-7.3,6.312-13.239,14.075-13.239s14.075,5.937,14.075,13.239v39.716H91.488ZM422.25,413.726H387.063V340.913H372.988v72.812H337.237l-6.374-72,4.192-11.849,14.724,8.313,8.3-39.027,36.906,8.009c16.051,3.484,27.27,16.742,27.27,32.243Zm0,0" transform="translate(0 -16.569)" fill="#5a5a5a"/>
      <path id="Path_311" data-name="Path 311" d="M105.909,211.817A105.909,105.909,0,1,0,0,105.909,106.034,106.034,0,0,0,105.909,211.817Zm0-198.578a92.67,92.67,0,1,1-92.67,92.67A92.77,92.77,0,0,1,105.909,13.239Zm0,0" fill="#5a5a5a"/>
      <path id="Path_312" data-name="Path 312" d="M296,48h13.239V61.239H296Zm0,0" transform="translate(-35.097 -8.284)" fill="#5a5a5a"/>
      <path id="Path_313" data-name="Path 313" d="M344,48h13.239V61.239H344Zm0,0" transform="translate(-40.788 -8.284)" fill="#5a5a5a"/>
      <path id="Path_314" data-name="Path 314" d="M392,48h13.239V61.239H392Zm0,0" transform="translate(-46.479 -8.284)" fill="#5a5a5a"/>
    </g>
    <text id="_۲۴" data-name="۲۴" transform="translate(-7985.701 -2636)" fill="#5a5a5a" font-size="96" font-family="SegoeUI-Bold, Segoe UI" font-weight="700"><tspan x="-96.188" y="0">۲۴</tspan></text>
    <text id="ساعت" transform="translate(-7983.457 -2595.711)" fill="#5a5a5a" font-size="46" font-family="SegoeUI-Bold, Segoe UI" font-weight="700"><tspan x="-119.088" y="0">ساعت</tspan></text>
  </g>
</svg>
