<svg xmlns="http://www.w3.org/2000/svg" width="425.73" height="348.796" viewBox="0 0 425.73 348.796">
  <g id="Group_1276" data-name="Group 1276" transform="translate(-298.192 -2347.108)">
    <path id="Path_307" data-name="Path 307" d="M305.617,13.516a3.375,3.375,0,0,0-3.236-3.508c-.079,0-.158,0-.238,0H-16.524A3.374,3.374,0,0,0-20,13.278c0,.079,0,.159,0,.238V234.243a3.545,3.545,0,0,0,3.375,3.706l.1,0H101.3L91.139,274.008H73.428a3.667,3.667,0,1,0,0,7.333H212.192a3.667,3.667,0,1,0,0-7.333H194.479l-10.166-36.056H302.142a3.544,3.544,0,0,0,3.478-3.61c0-.033,0-.067,0-.1V13.516ZM-12.663,17.34H298.283V184.786H-12.663ZM186.863,274.008H98.757l10.166-36.056H176.7Zm111.421-43.389H-12.663v-38.5H298.284Z" transform="translate(318.193 2414.563)" fill="#5a5a5a"/>
    <g id="Group_1241" data-name="Group 1241" transform="translate(524.241 2347.108)">
      <path id="Path_306" data-name="Path 306" d="M-8147.92-3684.952l2.93,12.184-8.591,2.983.576,19.745h67.972l-.9-20.907h-6.9l4.3-14.776Z" transform="translate(8261.916 3846.832)" fill="#fff"/>
      <rect id="Rectangle_614" data-name="Rectangle 614" width="193.441" height="160.577" transform="translate(4.16 2.912)" fill="#fff"/>
      <g id="select">
        <path id="Path_293" data-name="Path 293" d="M0,0V166.4H112.3a23.267,23.267,0,0,1,.851,6.13v.526H106.5v26.624h73.216V173.057h-6.7l.021-2.662a10.014,10.014,0,0,1,.878-3.994h25.773V0ZM173.057,193.025h-59.9V179.713h59.9Zm-53.248-19.968v-.526a30.033,30.033,0,0,0-3.461-13.977l-3.474-6.586-11.442-31.283a3.369,3.369,0,0,0-.244-.52,3.328,3.328,0,0,1,3.734-4.872,3.283,3.283,0,0,1,2.017,1.547l7.106,12.314a6.656,6.656,0,0,0,12.42-3.328V79.872a3.328,3.328,0,0,1,6.656,0v29.952a3.328,3.328,0,0,0,3.052,3.328l27.729,2.309a10.041,10.041,0,0,1,9.155,9.942v26.983a9.95,9.95,0,0,1-1.664,5.538l-2.213,3.328a16.6,16.6,0,0,0-2.792,9.111l-.034,2.693Zm73.216-13.312H177.976a16.593,16.593,0,0,0,1.737-7.358V125.4a16.74,16.74,0,0,0-15.259-16.577l-24.677-2.064V79.872a9.984,9.984,0,0,0-19.968,0v45.954l-7.1-12.314a9.984,9.984,0,0,0-17.44,9.7L106.7,154.457a3.286,3.286,0,0,0,.184.41l2.569,4.878H6.656V33.28H193.025ZM6.656,26.624V6.656H193.025V26.624Zm0,0" fill="#5a5a5a"/>
        <path id="Path_294" data-name="Path 294" d="M32,32h6.656v6.656H32Zm0,0" transform="translate(-18.688 -18.688)" fill="#5a5a5a"/>
        <path id="Path_295" data-name="Path 295" d="M64,32h6.656v6.656H64Zm0,0" transform="translate(-37.376 -18.688)" fill="#5a5a5a"/>
        <path id="Path_296" data-name="Path 296" d="M96,32h6.656v6.656H96Zm0,0" transform="translate(-56.064 -18.688)" fill="#5a5a5a"/>
        <path id="Path_297" data-name="Path 297" d="M87.936,125.725l8.952-7.654-4.326-5.059-4.626,3.95V112H48v39.936H87.936ZM54.656,145.28V118.656H81.28v3.994L67.994,134.029l-7.707-7.618-4.659,4.735,12.061,11.918L81.28,131.425V145.28Zm0,0" transform="translate(-28.032 -65.408)" fill="#5a5a5a"/>
        <path id="Path_298" data-name="Path 298" d="M87.936,253.725l8.952-7.654-4.326-5.059-4.626,3.95V240H48v39.936H87.936ZM54.656,273.28V246.656H81.28v3.994L67.994,262.029l-7.707-7.618-4.659,4.735,12.061,11.918L81.28,259.425V273.28Zm0,0" transform="translate(-28.032 -140.159)" fill="#5a5a5a"/>
        <path id="Path_299" data-name="Path 299" d="M240,112h13.312v6.656H240Zm0,0" transform="translate(-140.159 -65.408)" fill="#5a5a5a"/>
        <path id="Path_300" data-name="Path 300" d="M288,112h59.9v6.656H288Zm0,0" transform="translate(-168.191 -65.408)" fill="#5a5a5a"/>
        <path id="Path_301" data-name="Path 301" d="M240,144h79.873v6.656H240Zm0,0" transform="translate(-140.159 -84.096)" fill="#5a5a5a"/>
        <path id="Path_302" data-name="Path 302" d="M240,184h13.312v6.656H240Zm0,0" transform="translate(-140.159 -107.456)" fill="#5a5a5a"/>
        <path id="Path_303" data-name="Path 303" d="M352,184h33.28v6.656H352Zm0,0" transform="translate(-205.567 -107.456)" fill="#5a5a5a"/>
        <path id="Path_304" data-name="Path 304" d="M352,216h33.28v6.656H352Zm0,0" transform="translate(-205.567 -126.143)" fill="#5a5a5a"/>
        <path id="Path_305" data-name="Path 305" d="M240,216h13.312v6.656H240Zm0,0" transform="translate(-140.159 -126.143)" fill="#5a5a5a"/>
      </g>
    </g>
  </g>
</svg>
