<svg xmlns="http://www.w3.org/2000/svg" width="388.909" height="303.984" viewBox="0 0 388.909 303.984">
  <g id="Group_1274" data-name="Group 1274" transform="translate(-313 -900.765)">
    <g id="Group_1249" data-name="Group 1249" transform="translate(15 -448)">
      <g id="Rectangle_634" data-name="Rectangle 634" transform="translate(304 1563)" fill="#fff" stroke="#707070" stroke-width="1">
        <rect width="298" height="44" stroke="none"/>
        <rect x="0.5" y="0.5" width="297" height="43" fill="none"/>
      </g>
      <path id="Path_276" data-name="Path 276" d="M289.7,13.344a3.21,3.21,0,0,0-3.078-3.336c-.076,0-.151,0-.226,0H-16.694A3.209,3.209,0,0,0-20,13.118c0,.076,0,.151,0,.227V223.284a3.371,3.371,0,0,0,3.21,3.525l.093,0H95.376l-9.669,34.294H68.862a3.487,3.487,0,1,0,0,6.975H200.843a3.487,3.487,0,1,0,0-6.975H184l-9.669-34.294H286.4a3.371,3.371,0,0,0,3.308-3.433c0-.031,0-.063,0-.095V13.344ZM-13.022,16.982H282.727V176.243H-13.022ZM176.752,261.105h-83.8l9.669-34.294h64.46Zm105.975-41.269H-13.021V183.218H282.728Z" transform="translate(318.001 1384.669)" fill="#5a5a5a"/>
    </g>
    <g id="Group_1272" data-name="Group 1272" transform="translate(-148 -281)">
      <path id="Path_351" data-name="Path 351" d="M-10236.868-5425.665l56.452,23.886,57.021-22.533v39.862l-8.689,15.462-22.313,7.942-20.261,2.926h-22.9l-18.016-6.1-16.749-8.825-4.543-19.393Z" transform="translate(10908.408 6672.395)" fill="#fff"/>
      <path id="Path_352" data-name="Path 352" d="M-10278.016-5443.8l100.35-41.517,90.555,38.322,6.277,5-98.879,43.257Z" transform="translate(10908.787 6672.946)" fill="#fff"/>
      <g id="school_1_" data-name="school (1)" transform="translate(608 1181.765)">
        <g id="Group_1271" data-name="Group 1271" transform="translate(0 0)">
          <path id="Path_350" data-name="Path 350" d="M241.45,185.2a21.241,21.241,0,0,0-14.138-19.992V92.067l14.6-5.835L120.8,37.825,0,86.233l57.178,22.913v33.641c0,10.37,7.27,19.717,20.472,26.318,11.644,5.822,26.968,9.029,43.151,9.029s31.507-3.206,43.151-9.029c13.2-6.6,20.472-15.947,20.472-26.318V109.209l28.748-11.491V165.21a21.2,21.2,0,0,0-2.051,39.135L199.4,239.52l13.413,4.471,7.432-22.3,7.432,22.3,13.413-4.471-11.725-35.175A21.235,21.235,0,0,0,241.45,185.2Zm-71.164-42.416c0,10.011-21.162,21.208-49.484,21.208s-49.484-11.2-49.484-21.208V114.811L120.8,134.64l49.488-19.781v27.927ZM120.8,119.412l-82.8-33.179,82.8-33.179,83.01,33.179Zm99.437,72.859a7.069,7.069,0,1,1,7.069-7.069A7.077,7.077,0,0,1,220.242,192.271Z" transform="translate(0 -37.825)" fill="#5a5a5a"/>
        </g>
      </g>
    </g>
  </g>
</svg>
