<svg xmlns="http://www.w3.org/2000/svg" width="454.52" height="349.188" viewBox="0 0 454.52 349.188">
  <g id="Group_1275" data-name="Group 1275" transform="translate(-1193 -1545)">
    <g id="Group_1235" data-name="Group 1235" transform="translate(1412.362 1652.549)">
      <path id="Path_289" data-name="Path 289" d="M-7893-5299.966c2.567-2.515,11.694-42.285,11.694-42.285l84.182-83.848,15.682-10.4h8.8l11.683,7.028,7.344,10.61-1.148,12.825-11.75,17.356-80.828,80.585Z" transform="translate(7981.827 5486.784)" fill="#fff"/>
      <path id="edit_1_" data-name="edit (1)" d="M224.609,52.753A27.767,27.767,0,0,0,192.345,47.7V27.711A27.742,27.742,0,0,0,164.634,0H27.711A27.742,27.742,0,0,0,0,27.711V213.929A27.742,27.742,0,0,0,27.711,241.64H164.634a27.742,27.742,0,0,0,27.711-27.711V129.064l34.7-34.7a27.71,27.71,0,0,0,0-39.189ZM102.52,156.911l20.188,20.374-27.477,7.289ZM133.4,172.33l-25.944-26.183,74.885-74.67L208.3,97.432Zm47.858,41.6a16.645,16.645,0,0,1-16.627,16.627H27.711a16.645,16.645,0,0,1-16.627-16.627V27.711A16.645,16.645,0,0,1,27.711,11.084H164.634a16.643,16.643,0,0,1,16.627,16.627V56.9L95.72,142.2a5.531,5.531,0,0,0-1.446,2.513L82.085,190.963a5.541,5.541,0,0,0,6.781,6.768l45.94-12.189a5.527,5.527,0,0,0,2.5-1.438l43.957-43.957Zm37.94-127.4L216.138,89.6,190.191,63.649l3.089-3.081a16.65,16.65,0,0,1,23.492.022l2.429,2.429A16.645,16.645,0,0,1,219.2,86.532Zm0,0" transform="translate(0 0)" fill="#5a5a5a"/>
    </g>
    <g id="Group_1245" data-name="Group 1245" transform="translate(9724 6352)">
      <g id="Rectangle_615" data-name="Rectangle 615" transform="translate(-8520.536 -4709.749)" fill="#fff" stroke="#707070" stroke-width="1">
        <rect width="216.66" height="126.18" stroke="none"/>
        <rect x="0.5" y="0.5" width="215.66" height="125.18" fill="none"/>
      </g>
      <g id="Rectangle_616" data-name="Rectangle 616" transform="translate(-8295.259 -4688.207)" fill="#fff" stroke="#707070" stroke-width="1">
        <rect width="17.234" height="68.322" stroke="none"/>
        <rect x="0.5" y="0.5" width="16.234" height="67.322" fill="none"/>
      </g>
      <g id="Rectangle_617" data-name="Rectangle 617" transform="translate(-8469.449 -4578.03)" fill="#fff" stroke="#707070" stroke-width="1">
        <rect width="117.563" height="19.696" stroke="none"/>
        <rect x="0.5" y="0.5" width="116.563" height="18.696" fill="none"/>
      </g>
      <g id="Rectangle_618" data-name="Rectangle 618" transform="translate(-8443.598 -4550.947)" fill="#fff" stroke="#707070" stroke-width="1">
        <rect width="67.706" height="29.545" stroke="none"/>
        <rect x="0.5" y="0.5" width="66.706" height="28.545" fill="none"/>
      </g>
      <path id="Path_325" data-name="Path 325" d="M-8113.631-4640.051l51.683-35.57v144.95l-51.683-36.88Z" transform="translate(-160.474 -50.514)" fill="#fff"/>
      <g id="Ellipse_29" data-name="Ellipse 29" transform="translate(-8496.531 -4802.076)" fill="#fff" stroke="#707070" stroke-width="1">
        <circle cx="42.163" cy="42.163" r="42.163" stroke="none"/>
        <circle cx="42.163" cy="42.163" r="41.663" fill="none"/>
      </g>
      <g id="Ellipse_30" data-name="Ellipse 30" transform="translate(-8409.129 -4802.076)" fill="#fff" stroke="#707070" stroke-width="1">
        <circle cx="42.163" cy="42.163" r="42.163" stroke="none"/>
        <circle cx="42.163" cy="42.163" r="41.663" fill="none"/>
      </g>
      <g id="video-camera" transform="translate(-8531 -4807)">
        <path id="Path_317" data-name="Path 317" d="M312.155,200a6.155,6.155,0,1,0,6.155,6.155A6.158,6.158,0,0,0,312.155,200Zm0,0" transform="translate(-117.654 -76.898)" fill="#5a5a5a"/>
        <path id="Path_318" data-name="Path 318" d="M312.155,260a6.155,6.155,0,1,0,6.155,6.155A6.158,6.158,0,0,0,312.155,260Zm0,0" transform="translate(-117.654 -99.967)" fill="#5a5a5a"/>
        <path id="Path_319" data-name="Path 319" d="M72.155,300a6.155,6.155,0,1,0,6.155,6.155A6.158,6.158,0,0,0,72.155,300Zm0,0" transform="translate(-25.376 -115.347)" fill="#5a5a5a"/>
        <path id="Path_320" data-name="Path 320" d="M311.833,74.559a6.156,6.156,0,0,0-6.369.411l-51.347,35.822h-16.53v-6.155a18.486,18.486,0,0,0-18.465-18.465H196.245a49.219,49.219,0,1,0-75.6-60.736,49.223,49.223,0,1,0-75.6,60.736H18.465A18.486,18.486,0,0,0,0,104.637V215.429a18.486,18.486,0,0,0,18.465,18.465H52.934V252.36a6.155,6.155,0,0,0,6.155,6.155H77.554V289.29a6.155,6.155,0,0,0,6.155,6.155h73.861a6.155,6.155,0,0,0,6.155-6.155V258.515h18.465a6.155,6.155,0,0,0,6.155-6.155V233.894h30.776a18.486,18.486,0,0,0,18.465-18.465V196.964h16.53l51.347,35.825a6.156,6.156,0,0,0,9.677-5.049V80.016A6.157,6.157,0,0,0,311.833,74.559ZM163.726,12.31A36.931,36.931,0,1,1,126.8,49.241,36.973,36.973,0,0,1,163.726,12.31ZM131.207,86.172H110.071A49.538,49.538,0,0,0,120.64,73.046,49.577,49.577,0,0,0,131.207,86.172ZM40.624,49.241A36.931,36.931,0,1,1,77.554,86.172,36.973,36.973,0,0,1,40.624,49.241ZM151.416,283.135H89.865v-24.62h61.551Zm24.62-36.931H65.244v-12.31H176.036Zm49.241-30.776a6.161,6.161,0,0,1-6.155,6.155H18.465a6.161,6.161,0,0,1-6.155-6.155V104.637a6.162,6.162,0,0,1,6.155-6.155H219.122a6.162,6.162,0,0,1,6.155,6.155Zm12.31-92.327H249.9v61.551h-12.31Zm65.244,92.839L262.208,187.6V120.159l40.624-28.342Zm0,0" fill="#5a5a5a"/>
        <path id="Path_321" data-name="Path 321" d="M114.465,50a18.465,18.465,0,1,0,18.465,18.465A18.486,18.486,0,0,0,114.465,50Zm0,24.62a6.155,6.155,0,1,1,6.155-6.155A6.161,6.161,0,0,1,114.465,74.62Zm0,0" transform="translate(-36.911 -19.224)" fill="#5a5a5a"/>
        <path id="Path_322" data-name="Path 322" d="M254.465,86.931A18.465,18.465,0,1,0,236,68.465,18.486,18.486,0,0,0,254.465,86.931Zm0-24.62a6.155,6.155,0,1,1-6.155,6.155A6.162,6.162,0,0,1,254.465,62.31Zm0,0" transform="translate(-90.739 -19.224)" fill="#5a5a5a"/>
        <path id="Path_323" data-name="Path 323" d="M164.482,243.086V206.155A6.155,6.155,0,0,0,158.327,200H72.155A6.155,6.155,0,0,0,66,206.155v36.931a6.155,6.155,0,0,0,6.155,6.155h86.172A6.155,6.155,0,0,0,164.482,243.086Zm-12.31-6.155H78.31V212.31h73.861Zm0,0" transform="translate(-25.376 -76.898)" fill="#5a5a5a"/>
        <path id="Path_324" data-name="Path 324" d="M235.257,300h-123.1a6.155,6.155,0,1,0,0,12.31h123.1a6.155,6.155,0,1,0,0-12.31Zm0,0" transform="translate(-40.756 -115.347)" fill="#5a5a5a"/>
      </g>
    </g>
  </g>
</svg>
