<svg xmlns="http://www.w3.org/2000/svg" width="172.142" height="172.142" viewBox="0 0 172.142 172.142"><defs><style>.a{fill:#ebebeb;}.b{opacity:0.5;}</style></defs><g transform="translate(-826 -431)"><circle class="a" cx="86.071" cy="86.071" r="86.071" transform="translate(826 431)"/><g transform="translate(872.95 476.496)"><path class="b" d="M1128.7-476.763c-3.487,4.439-7.076,8.8-10.52,13.27a4.676,4.676,0,0,0-.9,2.85c.288,5.769.763,11.529,1.1,17.3.354,6.133-4.071,9.186-9.766,6.782-4.827-2.038-9.657-4.065-14.449-6.182a4.055,4.055,0,0,0-3.581.023c-4.488,1.983-9.135,3.641-13.505,5.849-6.636,3.352-11.819-1.173-10.676-7.034.4-5.719.828-11.148,1.1-16.585a4.982,4.982,0,0,0-.923-3.034c-3.394-4.427-6.945-8.732-10.4-13.113-3.783-4.8-2.143-9.682,3.747-11.231,5.132-1.349,10.283-2.62,15.384-4.072a4.762,4.762,0,0,0,2.51-1.907c2.909-4.676,5.893-9.328,8.424-14.209a6.879,6.879,0,0,1,12.316.052c2.43,4.71,5.422,9.126,8.058,13.734a4.723,4.723,0,0,0,3.277,2.51c5.029,1.2,10.017,2.578,15.018,3.9C1130.686-486.337,1132.375-481.446,1128.7-476.763Z" transform="translate(-1054.14 511.848)"/></g></g></svg>